<svg width="97" height="93" viewBox="0 0 97 93" fill="none" xmlns="http://www.w3.org/2000/svg">
<path d="M73.9672 85.1602C73.8431 82.1659 68.9112 66.7201 62.7742 49.781C77.0026 46.3992 89.0126 43.2278 91.6426 42.2749C98.5221 39.7848 97.8222 29.6631 88.2143 29.9739C81.1496 30.2037 69.3787 31.8713 56.8617 34.051C52.2559 22.2099 47.6004 11.2736 44.1417 5.10601C39.4402 -3.27876 30.4117 1.35364 31.8399 8.53134C32.384 11.2753 35.8759 23.1936 40.3419 37.1267C22.6667 40.6297 6.89562 44.394 4.2712 45.8374C-1.01429 48.7366 -0.933321 56.1349 6.40713 59.296C9.86428 60.7832 27.4506 57.6485 45.8052 53.6527C51.8746 71.4297 58.281 88.1022 61.3415 90.2925C67.8396 94.9398 74.217 91.1857 73.9672 85.1602Z" fill="#F3DA70"/>
</svg>
