<svg width="87" height="88" viewBox="0 0 87 88" fill="none" xmlns="http://www.w3.org/2000/svg">
<mask id="mask0_176_86" style="mask-type:luminance" maskUnits="userSpaceOnUse" x="0" y="0" width="86" height="87">
<path d="M15.7682 0.190735L85.7526 15.6876L70.4371 86.9217L0.452688 71.4249L15.7682 0.190735Z" fill="white"/>
</mask>
<g mask="url(#mask0_176_86)">
<path d="M58.6298 84.3177C58.6272 84.3171 58.6272 84.3171 58.6272 84.3171C55.8543 83.7031 53.5283 81.9869 51.9025 79.349L39.476 59.1996L19.9109 72.2651C17.3501 73.9759 14.5311 74.5528 11.7582 73.9388C7.41783 72.9777 3.89762 69.217 2.99916 64.5786C2.14912 60.1972 3.90375 56.0706 7.69022 53.5436L27.733 40.1592L15.0057 19.5185C12.6012 15.6179 12.6993 11.1272 15.2705 7.50335C17.9912 3.6664 22.7356 1.73303 27.076 2.69412C29.8515 3.30872 32.1769 5.02749 33.8027 7.66537L46.2266 27.8142L65.7917 14.7488C68.3525 13.038 71.172 12.4584 73.945 13.0724C78.2853 14.0335 81.805 17.7969 82.7034 22.4352C83.5535 26.8166 81.7989 30.9433 78.0124 33.4702L57.9696 46.8546L70.6969 67.4953C73.102 71.3933 73.0033 75.8866 70.4321 79.5105C67.7115 83.3474 62.9675 85.2782 58.6298 84.3177ZM41.4026 50.2388L57.3157 76.0434C58.0176 77.1808 58.91 77.8762 59.964 78.1123C61.784 78.5153 63.9975 77.5446 65.2296 75.8101C65.9964 74.73 66.6261 72.9812 65.2832 70.8036L49.3384 44.9434L74.4481 28.1766C76.5633 26.7621 76.7056 24.908 76.4549 23.6C76.0467 21.5022 74.4297 19.686 72.6097 19.283C71.5578 19.0501 70.461 19.305 69.356 20.0423L44.2995 36.7776L28.387 10.9705C27.685 9.83301 26.7952 9.13819 25.7407 8.90469C23.9207 8.50169 21.7051 9.46925 20.4756 11.2043C19.7082 12.287 19.0765 14.0327 20.4215 16.2134L36.3668 42.071L11.254 58.8398C9.13927 60.2517 8.99443 62.1052 9.24769 63.4139C9.65588 65.5116 11.2724 67.3304 13.0924 67.7334C14.1443 67.9663 15.239 67.7082 16.3466 66.9715L41.4026 50.2388Z" fill="#F3DA70"/>
</g>
</svg>
