<svg width="314" height="236" viewBox="0 0 314 236" fill="none" xmlns="http://www.w3.org/2000/svg">
<mask id="mask0_158_959" style="mask-type:luminance" maskUnits="userSpaceOnUse" x="0" y="0" width="314" height="236">
<path d="M0 183.294L279.346 3.9787e-05L313.792 52.497L34.4461 235.791L0 183.294Z" fill="white"/>
</mask>
<g mask="url(#mask0_158_959)">
<path d="M307.713 43.3637C307.173 42.7396 304.309 45.1311 303.944 46.209C303.841 46.4939 303.714 46.7637 303.604 47.0377C301.814 50.9767 297.151 54.0049 294.01 56.5474C290.93 59.0501 287.747 61.4642 284.312 63.47C278.016 67.1661 270.758 69.506 263.217 68.6772C257.076 68.0168 251.783 64.9834 247.012 60.8924C243.24 57.2183 239.98 53.0676 236.225 49.3977C236.095 49.2656 235.962 49.1511 235.839 49.0299C233.517 46.2205 231.289 43.443 229.106 40.9316C228.668 40.442 228.05 40.6922 227.433 41.2526C226.407 40.2639 225.395 39.251 224.436 38.1873C223.213 36.8312 220.567 41.0991 220.643 42.1205C221.414 51.6624 221.76 61.2648 220.745 70.6897C219.715 80.403 217.482 88.9654 209.099 94.1396C194.534 103.138 179.482 92.1428 166.526 83.5465C165.163 82.6394 162.729 85.929 162.737 87.0887C162.738 88.8578 162.758 90.6311 162.787 92.3978C161.497 92.949 160.091 95.0673 160.089 95.9694C160.08 116.489 160.049 143.531 139.771 153.559C138.602 154.14 137.444 154.605 136.308 154.993C131.3 154.847 126.122 153.291 121.397 150.661C111.323 145.065 103.824 135.668 97.3378 126.18C96.4771 124.913 94.2732 128.067 93.6953 129.549C93.3932 129.11 93.091 128.672 92.796 128.244C91.807 126.781 88.9732 131.249 89.0128 132.171C89.6471 146.693 88.7615 161.748 84.4256 175.386C81.8275 182.355 78.4769 188.839 73.0853 194.178C65.848 201.319 56.359 208.383 45.6986 208.452C35.9843 208.506 25.6309 205.268 17.4885 199.305C16.1162 198.295 12.6899 202.656 13.856 203.505C16.9429 205.781 20.3739 207.677 23.9733 209.166C22.4346 209.073 19.7015 212.745 20.766 213.507C39.8916 227.31 63.2597 213.204 75.168 198.169C80.8476 190.995 84.9089 182.988 87.7195 174.467C89.0002 171.142 90.1477 167.702 91.2311 164.165C93.4062 157.147 95.3132 149.964 96.4451 142.637C101.39 148.958 107.068 154.72 114.224 158.054C120.631 161.04 127.297 161.263 133.474 159.461C141.115 159.604 148.212 156.577 153.848 150.705C166.421 137.61 167.309 118.874 167.01 100.622C182.307 108.769 200.613 112.535 214.3 101.271C229.046 89.1263 230.819 69.794 229.925 51.078C230.788 51.8629 231.647 52.6654 232.477 53.4878C235.941 57.5972 239.521 61.6619 243.491 65.1289C245.255 66.8907 247.096 68.5709 249.093 70.134C254.934 74.6869 261.867 78.3213 269.141 77.6172C275.026 77.048 280.645 73.998 285.453 70.9051C294.837 64.8722 302.782 56.3822 307.089 45.7915C307.307 45.3069 307.501 44.8071 307.677 44.3032C307.867 43.7751 307.853 43.4891 307.713 43.3637ZM24.5691 209.412C31.381 212.132 38.7778 213.382 45.6766 212.768C55.6315 211.889 64.973 205.107 72.2058 198.203C60.9271 211.349 40.9996 221.117 24.5691 209.412ZM93.0526 141.617C93.0896 140.459 93.1135 139.325 93.1231 138.17C93.1943 138.279 93.2828 138.391 93.3641 138.493C93.2762 139.529 93.1679 140.579 93.0526 141.617ZM153.752 147.491C151.062 150.654 147.82 152.735 144.288 153.887C155.903 145.117 160.727 131.936 162.714 117.743C162.161 128.448 160.653 139.329 153.752 147.491ZM210.673 100.623C197.165 108.12 180.031 102.187 166.876 94.2803C166.841 92.968 166.812 91.6665 166.784 90.3651C173.624 94.9613 180.768 99.6225 188.601 101.471C197.49 103.559 205.613 100.418 212.32 95.0079C225.686 84.2035 226.255 64.1854 225.201 46.7704C225.292 46.8656 225.394 46.9543 225.495 47.0429C227 65.607 228.33 90.8386 210.673 100.623ZM281.168 70.1143C277.125 72.0994 272.861 73.6387 268.182 73.1529C267.917 73.1247 267.656 73.0791 267.394 73.0334C267.924 72.9805 268.44 72.9059 268.969 72.8072C277.736 71.3097 285.376 66.483 292.204 61.1025C294.192 59.5183 296.355 57.9129 298.432 56.1773C293.923 62.133 287.813 66.8408 281.168 70.1143Z" fill="#F3DA70"/>
</g>
</svg>
