<svg width="33" height="27" viewBox="0 0 33 27" fill="none" xmlns="http://www.w3.org/2000/svg">
<mask id="mask0_155_662" style="mask-type:luminance" maskUnits="userSpaceOnUse" x="0" y="0" width="33" height="27">
<path d="M0.363647 0.232666H32.3636V26.7679H0.363647V0.232666Z" fill="white"/>
</mask>
<g mask="url(#mask0_155_662)">
<path d="M19.7206 21.2533C19.5687 21.1779 19.4144 21.2034 19.2613 21.244C19.2265 21.2533 19.1894 21.2846 19.1743 21.3159C19.1673 21.3322 19.2056 21.3751 19.23 21.3971C19.259 21.4226 19.2972 21.4366 19.3297 21.4586C19.339 21.4644 19.3448 21.4783 19.3518 21.4888C19.3286 21.4992 19.3042 21.5201 19.2822 21.5178C19.2311 21.5131 19.1778 21.505 19.1314 21.4841C18.9121 21.382 18.7265 21.4841 18.5374 21.5734C18.5293 21.5781 18.5305 21.6384 18.5386 21.6407C18.6592 21.6836 18.788 21.7277 18.911 21.766C18.904 21.7776 18.9075 21.8031 18.8982 21.8078C18.7346 21.8866 18.5282 21.8368 18.3843 21.9771C18.1859 21.9064 17.9992 22.0305 17.8031 22.0108C17.7347 22.005 17.6744 21.991 17.6164 21.9551C17.5015 21.8855 17.3739 21.8634 17.2452 21.8321C17.1234 21.802 17.0213 21.7904 16.9041 21.8356C16.8183 21.8704 16.7197 21.8391 16.6315 21.8484C16.4912 21.8611 16.3439 21.8228 16.207 21.9087C16.1177 21.9655 16.0051 21.9435 15.9019 21.8971C15.7894 21.846 15.6699 21.8391 15.5597 21.9087C15.5307 21.9272 15.5005 21.9655 15.4982 21.9968C15.4959 22.0293 15.5179 22.0792 15.5446 22.0954C15.6003 22.1291 15.6664 22.1418 15.7267 22.1674C15.7465 22.1755 15.7627 22.1952 15.7801 22.2091C15.7534 22.2358 15.7302 22.2741 15.6977 22.288C15.6235 22.3193 15.5411 22.3263 15.4657 22.2973C15.3671 22.2602 15.2697 22.2161 15.178 22.1662C15.0957 22.1198 15.0133 22.0896 14.917 22.0885C14.8602 22.0873 14.8173 22.005 14.7407 22.0583C14.6897 22.0954 14.6108 22.1047 14.6618 22.1952C14.5748 22.2613 14.4577 22.2868 14.3927 22.3854C14.2906 22.368 14.1758 22.3611 14.1271 22.2567C14.083 22.165 14.0169 22.1558 13.9357 22.1558C13.7106 22.1581 13.4856 22.1627 13.2606 22.1592C13.2107 22.1592 13.1562 22.1372 13.1144 22.1094C13.0448 22.063 13.0181 21.991 13.0181 21.904C13.0193 21.8356 13.0402 21.7788 13.0738 21.7196C13.1306 21.6164 13.1306 21.5212 13.017 21.4458C12.9752 21.418 12.952 21.3646 12.9207 21.3229C12.8835 21.2753 12.8847 21.2405 12.9288 21.1895C12.988 21.1222 13.0309 21.0387 13.0761 20.961C13.0877 20.9401 13.0947 20.9088 13.0889 20.8879C13.0703 20.8345 13.032 20.8577 12.9961 20.8705C12.9358 20.8925 12.8499 20.9505 12.8163 20.9285C12.6272 20.8078 12.4915 20.9436 12.3383 21.0039C12.3151 21.0143 12.2896 21.0213 12.2641 21.0236C12.256 21.0248 12.2421 21.0074 12.2386 20.9958C12.2351 20.9842 12.2374 20.9656 12.2455 20.9575C12.2722 20.9308 12.3012 20.9053 12.3314 20.8832C12.3697 20.8566 12.3766 20.8183 12.3615 20.7823C12.3024 20.6489 12.3035 20.5921 12.3905 20.5352C12.5205 20.4494 12.6782 20.396 12.7304 20.2255C12.8685 20.1501 13.0019 20.0619 13.1469 20.0028C13.3035 19.9378 13.4462 19.8392 13.6016 19.7893C13.7559 19.7383 13.8812 19.6443 14.0285 19.5898C14.2048 19.5249 14.351 19.4112 14.4867 19.2882C14.598 19.1873 14.7338 19.1363 14.8602 19.069C14.8996 19.0469 14.9588 19.0655 15.011 19.0678C14.9634 19.1699 14.8521 19.2001 14.7709 19.2627C14.5632 19.4251 14.3486 19.5771 14.1364 19.7325C14.0308 19.8091 14.0726 19.9204 14.0575 20.019C13.9925 20.0202 13.931 20.0248 13.88 20.0724C13.8139 20.135 13.7385 20.1791 13.6492 20.1977C13.6155 20.2046 13.6132 20.229 13.6376 20.2557C13.6468 20.2649 13.6526 20.28 13.6631 20.2835C13.6979 20.2951 13.7501 20.3218 13.7663 20.3079C13.8696 20.2185 14.0122 20.1663 14.0575 20.019C14.1259 20.0283 14.1816 20.0074 14.235 19.9622C14.7013 19.5736 15.2221 19.2697 15.7546 18.9843C15.9959 18.8544 16.2418 18.7303 16.4657 18.5713C16.5318 18.5249 16.4413 18.5307 16.4285 18.5099C16.4019 18.4635 16.3705 18.5157 16.4053 18.4843C16.4784 18.4194 16.5121 18.3092 16.6176 18.2871C16.6478 18.2813 16.6849 18.3185 16.7209 18.3301C16.7823 18.3498 16.8218 18.3382 16.7974 18.2616C16.7881 18.2338 16.7986 18.2152 16.8276 18.199C16.983 18.1108 17.1431 18.0807 17.3183 18.1166C17.2753 18.163 17.2255 18.2036 17.1837 18.2512C17.1756 18.2593 17.1733 18.2779 17.1756 18.2895C17.1779 18.2999 17.1953 18.3185 17.1976 18.3173C17.4215 18.2071 17.6732 18.1816 17.9064 18.0981C17.9911 18.0667 18.0839 18.025 18.1419 17.9612C18.3135 17.7744 18.5432 17.7153 18.7718 17.6561C18.8762 17.6294 18.9736 17.6039 19.0571 17.5331C19.114 17.4832 19.1743 17.4925 19.2358 17.5343C19.31 17.5842 19.3889 17.5714 19.4596 17.5285C19.716 17.373 20.0048 17.3452 20.2914 17.3185C20.4097 17.3069 20.5245 17.3104 20.6405 17.2663C20.7229 17.235 20.8331 17.2153 20.912 17.2443C21.0802 17.3046 21.2136 17.2385 21.3574 17.1805C21.5685 17.097 21.7843 17.0448 22.014 17.0761C22.2877 17.1144 22.5383 17.068 22.7564 16.8858C22.8063 16.8452 22.8689 16.8197 22.9292 16.7919C22.964 16.7745 23 16.7675 23.0383 16.7954C23.1775 16.8998 23.3085 16.8824 23.4257 16.7582C23.4698 16.7118 23.5104 16.7234 23.5649 16.7432C23.6902 16.7872 23.7749 16.6538 23.8944 16.6573C23.8804 16.6353 23.8688 16.6121 23.8514 16.5935C23.8248 16.5657 23.7958 16.546 23.7517 16.575C23.7204 16.5958 23.6821 16.6098 23.6438 16.6179C23.5962 16.6283 23.5672 16.5784 23.5858 16.5181C23.5928 16.4938 23.5974 16.474 23.6055 16.4497C23.6426 16.4404 23.6937 16.4485 23.7099 16.4253C23.7946 16.3012 23.906 16.2687 24.0498 16.2815C24.1472 16.2908 24.1716 16.271 24.196 16.1202C24.2052 16.0646 24.2342 16.0692 24.2574 16.0483C24.3642 15.9567 24.3827 15.8384 24.3154 15.6934C24.3096 15.6829 24.3154 15.6667 24.3108 15.6551C24.283 15.5913 24.2435 15.5774 24.2006 15.611C24.0939 15.691 24.0138 15.792 23.9373 15.8987C23.8967 15.9555 23.8306 15.9729 23.761 15.9648C23.7494 15.9636 23.7366 15.9567 23.7273 15.9474C23.7227 15.9428 23.7204 15.9254 23.725 15.9207C23.9431 15.6446 24.1623 15.3697 24.3816 15.096C24.4256 15.0414 24.4639 15.0426 24.4918 15.1122C24.5057 15.1482 24.5231 15.147 24.5486 15.1261C24.6124 15.0728 24.6449 15.0031 24.6716 14.9277C24.7365 14.8129 24.8003 14.6981 24.8641 14.5821C25.0184 14.4417 25.0683 14.2538 25.1066 14.0601C25.1077 14.0508 25.0938 14.0357 25.0834 14.0276C25.0416 13.9951 25.0961 14.0148 25.0555 14.0496C25.0312 14.0705 25.0219 14.1285 24.9824 14.1123C24.9384 14.0937 24.9546 14.0415 24.9674 14.0055C25.0091 13.8814 25.059 13.7585 25.1008 13.6343C25.1448 13.5021 25.1425 13.3687 25.0474 13.2608C24.979 13.1831 24.9732 13.1205 24.9917 13.0161C25.0706 12.5579 25.0903 12.1031 24.9001 11.6554C24.7725 11.3572 24.5938 11.1345 24.269 11.0533C24.2018 11.0359 24.1113 10.9884 24.1194 10.942C24.1403 10.8318 24.1066 10.8144 24.0092 10.7981C23.921 10.783 23.8387 10.732 23.7552 10.6926C23.6368 10.6357 23.5208 10.5766 23.3816 10.5789C23.319 10.58 23.2424 10.5615 23.1972 10.522C23.087 10.4246 22.9571 10.42 22.8248 10.4188C22.4409 10.4188 22.0569 10.4223 21.6718 10.4234C21.6207 10.4234 21.5685 10.4165 21.5175 10.4095C21.5059 10.4084 21.4943 10.3956 21.4885 10.384C21.4862 10.3817 21.4989 10.3643 21.5082 10.3608C21.5442 10.348 21.5813 10.3364 21.6196 10.3295C21.6834 10.3179 21.7518 10.3515 21.8121 10.3063C21.7518 10.239 21.6718 10.2831 21.6022 10.2703C21.5511 10.2599 21.4897 10.2726 21.4456 10.2494C21.2693 10.1543 21.0802 10.1996 20.9073 10.2274C20.5756 10.2819 20.2473 10.2378 19.9178 10.2425C19.8854 10.2436 19.8691 10.217 19.8796 10.1891C19.8888 10.1671 19.9016 10.1369 19.919 10.1323C19.9816 10.1126 20.0478 10.1021 20.1116 10.0859C20.1243 10.0836 20.1348 10.0731 20.1452 10.0662C20.1371 10.0592 20.1278 10.0522 20.1185 10.0476C20.1069 10.043 20.0942 10.0383 20.0814 10.0372C19.7601 10.0116 19.4562 10.0534 19.1615 10.1996C18.9887 10.2866 18.7938 10.3341 18.6117 10.4072C18.3553 10.5093 18.0873 10.5812 17.8333 10.6879C17.6129 10.7796 17.3948 10.8712 17.157 10.9083C17.0874 10.9199 17.0352 10.9675 17.012 11.0313C16.9575 11.1798 16.8624 11.2702 16.7 11.2992C16.6408 11.3097 16.5793 11.3526 16.5329 11.3967C16.3903 11.5336 16.2325 11.6623 16.12 11.8236C15.8091 12.269 15.4286 12.6495 15.0435 13.0277C14.9878 13.0833 14.931 13.1425 14.8648 13.1831C14.7941 13.2272 14.7442 13.2817 14.7071 13.3548C14.6421 13.4824 14.5714 13.5879 14.4078 13.6274C14.3196 13.6483 14.2268 13.7515 14.1851 13.8408C14.134 13.9487 14.0482 13.9939 13.96 14.0485C13.8812 14.096 13.8011 14.1424 13.7304 14.2004C13.6271 14.2839 13.5158 14.3524 13.3951 14.4104C13.2896 14.4614 13.1863 14.5206 13.0831 14.5763C12.8766 14.6899 12.6504 14.7677 12.4335 14.8616C12.2873 14.9243 12.1423 14.9858 12.0008 15.0554C11.9753 15.0669 11.9695 15.1157 11.9544 15.1482C11.9787 15.1563 12.0031 15.1644 12.0275 15.1725C12.0518 15.1818 12.0878 15.1864 12.0971 15.2038C12.1284 15.2607 12.0704 15.2549 12.0425 15.2653C12.0182 15.2746 11.9903 15.2734 11.9637 15.2792C11.9521 15.2816 11.9393 15.2885 11.9277 15.2955C11.7978 15.372 11.6365 15.3048 11.5055 15.3871C11.3825 15.4625 11.2537 15.5298 11.1308 15.6052C11.0171 15.6736 10.8953 15.7119 10.7642 15.7432C10.5867 15.785 10.422 15.8778 10.2457 15.9312C10.0833 15.9799 9.98121 16.1574 9.78169 16.1284C9.62045 16.1052 9.48472 16.2165 9.32812 16.2444C9.1518 16.2757 8.96272 16.3024 8.80032 16.4021C8.7574 16.4288 8.70056 16.4439 8.65068 16.4462C8.35952 16.459 8.08575 16.5622 7.80155 16.6051C7.64727 16.6283 7.54171 16.7304 7.40367 16.771C7.28999 16.8046 7.18443 16.8545 7.06727 16.7687C7.00579 16.7246 6.92691 16.6933 6.84223 16.7049C6.81786 16.7084 6.7935 16.7188 6.76798 16.7269C6.77842 16.7501 6.7877 16.7745 6.7993 16.7965C6.8051 16.8081 6.81786 16.8151 6.82482 16.8267C6.84223 16.8557 6.89443 16.8974 6.82598 16.9125C6.66126 16.9485 6.49538 17.0018 6.33298 16.8905C6.24134 16.8278 6.12766 16.8371 6.02326 16.8418C5.87362 16.8499 5.80866 16.7687 5.76806 16.6446C5.75646 16.6086 5.72398 16.5808 5.7495 16.5355C5.7727 16.4949 5.75298 16.452 5.70774 16.4648C5.44209 16.5332 5.27273 16.3337 5.06509 16.2444C4.98969 16.1202 4.90153 16.0066 4.79829 15.9045C4.73217 15.8407 4.74493 15.8012 4.83425 15.7189C4.91777 15.6412 4.91893 15.6238 4.84121 15.582C4.77161 15.5449 4.70201 15.5089 4.63241 15.4718C4.64285 15.4567 4.64981 15.4382 4.66257 15.4266C4.68229 15.4103 4.72637 15.3883 4.72637 15.3883C4.66605 15.2723 4.77161 15.1644 4.74145 15.0484C4.72637 14.9904 4.71245 14.9544 4.65213 14.9393C4.63009 14.9335 4.60109 14.9115 4.59529 14.8918C4.58137 14.8396 4.58021 14.7827 4.62893 14.7468C4.67997 14.7085 4.72405 14.7213 4.75421 14.7816C4.76465 14.8036 4.78089 14.8315 4.80177 14.8384C4.81917 14.8454 4.84585 14.828 4.86905 14.821C4.79597 14.6888 4.93749 14.6401 4.97345 14.5507C5.00477 14.473 5.06973 14.4301 5.13469 14.3825C5.23097 14.3129 5.32377 14.2375 5.41077 14.1563C5.55578 14.0229 5.67526 13.8489 5.84114 13.7527C6.00122 13.6587 6.14042 13.5404 6.29818 13.4464C6.46638 13.3443 6.63806 13.2469 6.80742 13.146C6.93155 13.0729 7.06959 13.0137 7.17515 12.9198C7.30739 12.8038 7.45587 12.7226 7.60783 12.646C7.85723 12.5196 8.08923 12.3723 8.29108 12.1774C8.33632 12.1333 8.39664 12.102 8.45464 12.0718C8.595 11.9976 8.73072 11.9175 8.83512 11.7946C8.9836 11.7772 9.11004 11.7076 9.23416 11.6322C9.2794 11.6043 9.3316 11.5858 9.37104 11.5521C9.79793 11.1832 10.3095 10.9698 10.8245 10.7645C10.8605 10.7506 10.9023 10.7297 10.9371 10.7355C11.1053 10.7598 11.2526 10.7227 11.3767 10.6056C11.386 10.5963 11.4011 10.587 11.4115 10.587C11.6447 10.5951 11.7931 10.4316 11.9683 10.3202C12.1887 10.1775 12.4056 10.0232 12.6852 10.0128C12.7339 10.0116 12.7919 9.98727 12.829 9.95479C12.9636 9.83763 13.1376 9.82951 13.2942 9.77499C13.4554 9.71931 13.6167 9.66595 13.7721 9.59055C13.9218 9.51747 14.0992 9.49775 14.2651 9.46179C14.3417 9.44555 14.4322 9.46759 14.4994 9.43743C14.7535 9.32491 15.0435 9.35043 15.294 9.21819C15.4646 9.12887 15.6687 9.09987 15.7987 8.93515C15.8021 8.9305 15.8369 8.94907 15.8543 8.96067C15.8578 8.96299 15.8439 8.98503 15.8439 8.99663C15.8462 9.04999 15.7952 8.99779 15.8335 9.03259C15.8485 9.04651 15.8903 9.05231 15.9054 9.04187C15.9843 8.98619 16.0585 8.89106 16.0214 8.81102C15.9576 8.67414 15.9924 8.58598 16.0898 8.50014C16.2476 8.36326 16.2986 8.1707 16.3613 7.9851C16.3682 7.96538 16.3555 7.93522 16.3439 7.91434C16.3323 7.89462 16.3067 7.90158 16.2893 7.9329C16.2464 8.0141 16.2116 8.09994 16.1629 8.17882C16.1455 8.20666 16.1037 8.22754 16.0701 8.23566C16.0515 8.24146 16.0144 8.21942 16.0028 8.20086C15.9761 8.15562 15.9529 8.2055 15.9866 8.16722C16.1571 7.97118 16.1907 7.68234 16.4251 7.52921C16.4657 7.50253 16.4935 7.44801 16.5121 7.40045C16.6153 7.13017 16.729 6.86105 16.751 6.56873C16.7603 6.43649 16.8635 6.32165 16.8264 6.18593C16.7905 6.05484 16.8253 5.93188 16.8403 5.80428C16.8519 5.70568 16.7928 5.6384 16.6965 5.6152C16.6049 5.592 16.5944 5.57576 16.6536 5.51312C16.6768 5.48876 16.7359 5.4818 16.7174 5.43772C16.6547 5.2846 16.6779 5.12452 16.6675 4.96792C16.6652 4.92848 16.6745 4.8844 16.6594 4.8496C16.526 4.54335 16.5271 4.20695 16.4367 3.89027C16.41 3.79399 16.3682 3.72555 16.2847 3.67451C16.2627 3.62695 16.2395 3.58287 16.2209 3.53415C16.2012 3.47614 16.1641 3.43554 16.113 3.48426C16.026 3.56663 15.9495 3.41814 15.8578 3.4889C15.8137 3.52254 15.7743 3.4425 15.7581 3.40074C15.6618 3.15946 15.4796 2.98546 15.3022 2.8103C15.2012 2.71054 15.0736 2.63514 14.9553 2.55162C14.924 2.53074 14.8846 2.50986 14.8486 2.50754C14.7082 2.49478 14.554 2.52378 14.4832 2.35326C14.2767 2.32426 14.0784 2.19434 13.8672 2.25466C13.496 2.36022 13.1016 2.26858 12.7374 2.40662C12.713 2.41474 12.684 2.41822 12.6585 2.41474C12.2803 2.3579 11.9695 2.54234 11.6574 2.70474C11.4567 2.80914 11.2491 2.84278 11.0333 2.88106C11.0473 2.86018 11.0507 2.8335 11.0705 2.82306C11.611 2.54698 12.1585 2.28946 12.7571 2.15837C12.7942 2.14909 12.8313 2.13169 12.8638 2.11197C12.8859 2.09921 12.8986 2.07253 12.9149 2.05281C12.8975 2.04121 12.8812 2.01917 12.8627 2.01917C12.6353 2.00525 12.4184 2.07601 12.1991 2.11545C11.7572 2.19434 11.3442 2.37762 10.9162 2.50754C10.8187 2.5377 10.7352 2.61426 10.6471 2.6711C10.5473 2.73606 10.4568 2.84046 10.3501 2.86134C10.0717 2.9147 9.89073 3.11074 9.67613 3.25922C9.65757 3.27314 9.64945 3.30214 9.63553 3.32302C9.65989 3.3323 9.68541 3.35318 9.70629 3.3497C9.91393 3.30794 10.1216 3.2569 10.3025 3.14902C10.5334 3.01098 10.7828 2.95878 11.0333 2.88106C10.951 3.03766 10.8037 3.07478 10.6517 3.1177C10.6018 3.13162 10.5369 3.13046 10.5044 3.16294C10.3049 3.35318 10.0311 3.38914 9.79677 3.50398C9.56013 3.61883 9.31652 3.71975 9.0706 3.81139C8.96968 3.84851 8.86992 3.87635 8.79916 3.96103C8.71912 4.05731 8.6066 4.10255 8.49524 4.13735C8.05907 4.27423 7.69251 4.51551 7.37467 4.83915C7.28187 4.93312 7.18327 5.02012 7.08119 5.10364C7.04291 5.13612 6.99071 5.16164 6.94199 5.1686C6.87935 5.17672 6.80858 5.18368 6.75754 5.12916C6.72158 5.09204 6.75406 4.9714 6.7993 4.91456C6.87819 4.8148 6.99419 4.76375 7.10323 4.73939C7.35379 4.68023 7.49067 4.48187 7.66931 4.33339C7.68091 4.32411 7.68091 4.28003 7.66931 4.26727C7.65655 4.25219 7.61595 4.24291 7.60087 4.25219C7.25055 4.48303 6.89907 4.71387 6.55222 4.95168C6.46754 5.00968 6.3759 5.07116 6.34574 5.18252C6.3179 5.28692 6.18798 5.273 6.14274 5.35768C6.0975 5.44352 6.0337 5.49804 5.93278 5.5166C5.8887 5.52472 5.83766 5.56996 5.81446 5.61172C5.69498 5.82632 5.51169 5.96552 5.30753 6.09312C5.14397 6.1952 4.96881 6.28337 4.84817 6.45041C4.78205 6.54205 4.66373 6.59309 4.54889 6.63369C4.39461 6.68937 4.28209 6.78333 4.23917 6.96081C4.21249 7.07217 4.13013 7.16381 3.98048 7.12785C3.95728 7.12321 3.91088 7.16845 3.89116 7.19977C3.803 7.35173 3.60928 7.38769 3.52112 7.54313C3.4434 7.68002 3.28332 7.7531 3.2172 7.9039C2.96664 8.0431 2.86804 8.32498 2.65575 8.5013C2.64183 8.5129 2.64067 8.5419 2.63371 8.56278C2.65923 8.56626 2.69403 8.58134 2.70679 8.5709C2.817 8.48274 2.95272 8.42474 3.02812 8.29018C3.07104 8.21362 3.13832 8.14054 3.23576 8.11734C3.24968 8.19738 3.25548 8.27742 3.19748 8.34006C3.0896 8.45722 3.03276 8.60686 2.93184 8.72982C2.817 8.86786 2.74972 9.04535 2.63255 9.18803C2.57803 9.25647 2.69983 9.31795 2.65575 9.40611C2.62211 9.47223 2.71375 9.48035 2.75087 9.49311C2.83672 9.52327 2.93068 9.53255 3.01884 9.55691C3.06988 9.56967 3.12904 9.59287 3.1302 9.65435C3.13252 9.72975 3.06524 9.71467 3.01768 9.71815C2.991 9.71931 2.96432 9.71235 2.9388 9.71815C2.92024 9.72163 2.90516 9.73903 2.88892 9.74947C2.90052 9.75527 2.91212 9.76687 2.92372 9.76687C3.0432 9.77035 3.16152 9.76919 3.281 9.77383C3.368 9.77847 3.41904 9.84923 3.40048 9.94087C3.39236 9.97799 3.34944 10.0174 3.3564 10.0476C3.39236 10.1996 3.29028 10.2657 3.18356 10.3156C3.07684 10.3643 2.96084 10.4026 2.84484 10.4223C2.72535 10.4432 2.61863 10.4872 2.50959 10.5371C2.23815 10.6636 1.95859 10.71 1.66859 10.6021C1.64423 10.5928 1.61523 10.5812 1.59203 10.5858C1.3519 10.6276 1.28114 10.4826 1.20806 10.2889C1.13614 10.0952 1.05146 9.89679 0.884421 9.74947C0.80438 9.68103 0.76494 9.58475 0.844981 9.47223C0.870501 9.43859 0.862381 9.36435 0.844981 9.31911C0.796261 9.19383 0.78002 9.06507 0.76726 8.93398C0.76378 8.90847 0.75914 8.8783 0.74406 8.85975C0.567739 8.63934 0.570059 8.34006 0.408817 8.1127C0.394897 8.09182 0.386777 8.06398 0.382137 8.03846C0.369377 7.97118 0.379817 7.9097 0.428538 7.85518C0.484218 7.79486 0.541058 7.7995 0.604859 7.83546C0.651259 7.86214 0.680259 7.83662 0.680259 7.79602C0.680259 7.63246 0.78582 7.50021 0.81018 7.34477C0.82294 7.26705 0.849621 7.19165 0.855421 7.11393C0.875141 6.84365 0.930821 6.69981 1.11874 6.53045C1.2185 6.44113 1.31014 6.34949 1.36814 6.22768C1.39018 6.18244 1.42962 6.14184 1.47023 6.11052C1.68831 5.94 1.91103 5.77412 2.06531 5.53632C2.37271 5.32636 2.60007 5.02592 2.88892 4.79623C3.02232 4.68951 3.14876 4.57351 3.26824 4.45287C3.32392 4.39487 3.2404 4.40531 3.2172 4.38907C3.165 4.35195 3.14992 4.29627 3.19052 4.26843C3.34132 4.16171 3.49328 4.05615 3.64756 3.95523C3.67772 3.93551 3.73108 3.91695 3.75544 3.93087C3.82736 3.97031 3.87956 3.95291 3.9306 3.90187C4.0234 3.80675 4.12548 3.72555 4.25193 3.67567C4.28789 3.66291 4.34241 3.64783 4.35053 3.62115C4.41549 3.41466 4.60341 3.37522 4.76581 3.29402C4.84585 3.25458 4.90965 3.18034 4.98273 3.1235C5.02217 3.09102 5.06161 3.05622 5.10685 3.0307C5.19733 2.98082 5.31449 3.02954 5.39801 2.96458C5.48153 2.89962 5.55578 2.8219 5.6277 2.74534C5.78546 2.57714 5.99542 2.48086 6.19146 2.3811C6.38982 2.28134 6.58122 2.1665 6.77842 2.06209C6.89211 2.00293 6.99535 1.91941 7.13803 1.99945C7.17167 2.01801 7.23895 1.98669 7.28651 1.96581C7.62523 1.81965 7.97207 1.68741 8.2992 1.51689C8.51844 1.40321 8.75856 1.32665 8.9546 1.17237C8.99984 1.13757 9.0474 1.12365 9.10192 1.12713C9.2098 1.13293 9.31072 1.11785 9.407 1.06217C9.69701 0.896286 10.0288 0.851045 10.3397 0.748964C10.4777 0.704884 10.6262 0.689804 10.7573 0.632964C11.0009 0.526243 11.2642 0.492602 11.5147 0.412562C11.9022 0.289601 12.3012 0.336001 12.6968 0.337161C12.8279 0.337161 12.9601 0.337161 13.0924 0.341801C13.184 0.345281 13.2814 0.338322 13.3673 0.365002C13.5749 0.428802 13.7884 0.405602 13.9983 0.425322C14.0633 0.431122 14.1306 0.420682 14.1955 0.413722C14.2698 0.406762 14.2709 0.361522 14.2477 0.304681C14.2477 0.304681 14.2686 0.284961 14.2779 0.286121C14.5667 0.327881 14.8416 0.420682 15.0945 0.557563C15.2059 0.617884 15.3091 0.651524 15.4298 0.650364C15.4831 0.649204 15.5365 0.650364 15.5887 0.644564C15.7128 0.630644 15.7871 0.696764 15.8416 0.796525C15.8613 0.831325 15.881 0.864965 15.8949 0.900926C15.9413 1.01577 16.0318 1.09349 16.1165 1.17701C16.1954 1.25473 16.2812 1.30461 16.3972 1.30345C16.461 1.30345 16.5271 1.31273 16.5898 1.32781C16.6953 1.35333 16.7916 1.39161 16.8287 1.51109C16.8531 1.58997 16.9053 1.65377 16.9807 1.68625C17.0503 1.71525 17.0816 1.77325 17.1037 1.83125C17.1675 1.99597 17.2579 2.12937 17.4296 2.1955C17.4679 2.21058 17.4795 2.26162 17.4609 2.29874C17.4319 2.35906 17.4354 2.38922 17.5108 2.39966C17.628 2.4159 17.7103 2.47738 17.708 2.60614C17.7057 2.71982 17.7509 2.80798 17.824 2.89034C17.86 2.92978 17.8797 2.98314 17.8426 3.03418C17.7718 3.13394 17.7962 3.23602 17.8333 3.33694C17.8519 3.38566 17.8716 3.43554 17.8994 3.48078C18.0386 3.71047 18.0583 3.97727 18.1175 4.22899C18.1639 4.43083 18.2068 4.63731 18.1941 4.85075C18.1883 4.95052 18.259 5.0526 18.2613 5.15468C18.2729 5.5108 18.2683 5.86808 18.2706 6.22421C18.1337 6.50609 18.2463 6.82741 18.1279 7.11277C18.1256 7.11973 18.1395 7.13829 18.15 7.14409C18.1581 7.14757 18.172 7.14061 18.1836 7.13481C18.1952 7.13017 18.2057 7.12205 18.2161 7.11509C18.2973 7.06173 18.3426 6.89933 18.4597 6.97009C18.5583 7.03041 18.4214 7.13133 18.4284 7.21949C18.4435 7.38189 18.317 7.50949 18.317 7.6719C18.3159 7.75194 18.2556 7.82154 18.1883 7.86214C18.0862 7.92594 18.0224 8.09414 17.8542 8.00018C17.8205 8.05122 17.7869 8.1011 17.7556 8.15446C17.7544 8.15678 17.7927 8.19274 17.8078 8.19042C17.9261 8.1707 18.027 8.30062 18.1488 8.22638C18.2231 8.29598 18.3948 8.2229 18.3994 8.3969C18.3994 8.40154 18.4481 8.41314 18.4713 8.4085C18.759 8.35746 19.0444 8.31686 19.3286 8.43054C19.3726 8.4491 19.4318 8.42938 19.4852 8.42938C19.9086 8.4317 20.3343 8.41198 20.7554 8.44562C21.0709 8.46998 21.3841 8.5187 21.7019 8.5129C21.9873 8.62658 22.3086 8.53842 22.5917 8.66718C22.7935 8.66138 22.9803 8.7043 23.1647 8.79362C23.2517 8.83654 23.3712 8.81566 23.4767 8.81566C23.5719 8.81566 23.6519 8.8377 23.7331 8.89686C24.0022 9.09291 24.3305 9.17295 24.6194 9.32259C24.9291 9.48499 25.2887 9.56503 25.5358 9.84923C25.6367 9.96523 25.784 10.043 25.9151 10.1311C26.1784 10.3063 26.3176 10.5766 26.4638 10.841C26.4951 10.8979 26.5102 10.9675 26.5519 11.0139C26.7457 11.2262 26.8443 11.4732 26.8756 11.7574C26.8895 11.885 26.9092 12.0358 26.9858 12.1275C27.067 12.2249 27.1029 12.2864 27.0252 12.3885C27.0681 12.5532 27.0473 12.7214 27.038 12.8885C27.0345 12.9523 27.0333 13.0335 26.9962 13.0752C26.8791 13.2063 26.8663 13.3571 26.8756 13.5183C26.8791 13.5705 26.8698 13.6239 26.8686 13.6761C26.864 13.8768 26.9324 13.9278 27.1308 13.8675C27.1691 13.8547 27.2097 13.8373 27.2329 13.8779C27.2514 13.9093 27.263 13.9545 27.2537 13.9881C27.2271 14.0891 27.1957 14.1911 27.1528 14.2863C27.0728 14.4649 27.0925 14.4661 26.8976 14.3663C26.8744 14.3547 26.8431 14.3257 26.8303 14.3327C26.7967 14.3501 26.7584 14.3791 26.7468 14.4115C26.6969 14.5577 26.6065 14.6969 26.6285 14.8628C26.5392 14.857 26.4696 14.879 26.4661 14.9799C26.4649 15.0031 26.4765 15.0322 26.4939 15.0484C26.5021 15.0565 26.5392 15.0484 26.5531 15.0356C26.6018 14.9915 26.6308 14.9324 26.6285 14.8628C26.7352 14.8384 26.748 14.7317 26.8095 14.6679C26.8477 14.6273 26.9011 14.6134 26.9545 14.6261C26.9951 14.6354 27.0194 14.6667 27.0183 14.7108C27.0171 14.7955 27.031 14.8651 27.1343 14.8825C27.1482 14.8848 27.1691 14.9301 27.1621 14.9451C27.1157 15.0669 27.1145 15.2015 27.0391 15.3164C26.9835 15.401 26.9231 15.4938 26.9452 15.6098C26.951 15.6435 26.9301 15.691 26.9057 15.7177C26.7074 15.9393 26.5612 16.2096 26.3014 16.3766C26.2689 16.3963 26.2399 16.43 26.2062 16.4369C26.0334 16.4775 25.9058 16.5947 25.7666 16.6898C25.7492 16.7014 25.7364 16.72 25.7225 16.7362C25.733 16.7432 25.7434 16.7524 25.755 16.7571C26.1146 16.8824 26.4707 17.0123 26.8396 17.1086C27.234 17.2118 27.6226 17.3348 28.0124 17.4508C28.0878 17.474 28.1643 17.4983 28.2339 17.5331C28.365 17.6004 28.5031 17.634 28.6457 17.6642C28.7989 17.6967 28.9462 17.7535 29.0958 17.8022C29.133 17.8139 29.1805 17.8243 29.2002 17.851C29.3406 18.0482 29.5668 18.0946 29.7686 18.1851C29.8046 18.2001 29.8487 18.2083 29.8754 18.2338C30.0737 18.4275 30.3266 18.5574 30.5006 18.779C30.5574 18.8509 30.6386 18.9101 30.5621 19.0156C30.5586 19.0203 30.5841 19.0597 30.598 19.062C30.6502 19.069 30.7036 19.0609 30.7558 19.069C30.7918 19.0748 30.8474 19.0875 30.859 19.1131C30.9286 19.2685 31.0771 19.3288 31.2012 19.4228C31.2708 19.4761 31.33 19.562 31.3602 19.6455C31.4286 19.8357 31.5492 19.99 31.6606 20.1513C31.8137 20.3694 31.9413 20.5956 31.9703 20.8658C31.9773 20.9238 32.0086 20.9691 32.0655 20.9749C32.2348 20.99 32.1849 21.1141 32.1977 21.2092C32.1699 21.1837 32.0863 21.099 32.0701 21.0839C32.0631 21.0955 32.0539 21.1071 32.0527 21.1199C32.0504 21.1454 32.0457 21.1744 32.0539 21.1976C32.1211 21.3751 32.1641 21.5502 32.0539 21.7277C32.0411 21.7486 32.0318 21.7869 32.0423 21.8031C32.1548 21.9806 32.0759 22.1592 32.0527 22.3379C32.0376 22.4504 32.1525 22.5478 32.0736 22.6778C32.0214 22.7636 32.0179 22.8784 31.9912 22.9805C31.9355 23.2021 31.8335 23.3981 31.6571 23.5489C31.4715 23.7067 31.3196 23.8807 31.3068 24.1405C31.3045 24.1707 31.265 24.2043 31.236 24.2287C31.1978 24.2612 31.1966 24.2971 31.2418 24.3029C31.3381 24.318 31.4182 24.347 31.4796 24.4271C31.5144 24.4711 31.5678 24.4688 31.6235 24.4653C31.6826 24.4619 31.7372 24.3633 31.7905 24.4433C31.8068 24.4677 31.7557 24.5338 31.7383 24.5825C31.6583 24.8087 31.5017 24.9433 31.2732 25.0268C31.0539 25.108 30.8393 25.2159 30.641 25.3423C30.5342 25.4096 30.4217 25.4339 30.3115 25.4653C30.1654 25.507 30.0076 25.4838 29.88 25.6161C29.8 25.6996 29.6445 25.6868 29.5366 25.6625C29.3371 25.6161 29.1736 25.7066 28.9972 25.7483C28.9845 25.7518 28.974 25.7622 28.9624 25.7692C28.9764 25.7901 28.9856 25.8179 29.0042 25.8318C29.0355 25.8562 29.075 25.869 29.1051 25.8933C29.119 25.9038 29.1225 25.9304 29.1248 25.9502C29.126 25.956 29.1051 25.9699 29.0935 25.9699C29.0019 25.971 28.9091 25.9676 28.8174 25.9676C28.5808 25.9664 28.3894 26.0708 28.2177 26.2216C28.1783 26.2564 28.1875 26.1938 28.191 26.246C28.191 26.2552 28.2247 26.2692 28.2432 26.268C28.4114 26.2599 28.5854 26.3109 28.749 26.2181C28.7896 26.1961 28.8522 26.2077 28.9044 26.2123C29.1074 26.2344 29.2942 26.152 29.4879 26.116C29.5204 26.1102 29.5482 26.0708 29.5749 26.0441C29.612 26.0058 29.648 25.9583 29.7014 26.0082C29.7106 26.0174 29.6747 26.0731 29.6631 26.1079C29.6271 26.217 29.445 26.2216 29.474 26.384C29.481 26.4246 29.3928 26.4385 29.3534 26.384C29.3174 26.3364 29.2965 26.2982 29.2374 26.3434C29.1968 26.3759 29.1573 26.4118 29.1214 26.4501C29.0796 26.4954 29.0413 26.5023 28.9868 26.4698C28.8859 26.4118 28.778 26.4443 28.6771 26.4675C28.5495 26.4954 28.4277 26.5476 28.3001 26.5742C28.0704 26.6218 27.8488 26.7111 27.6064 26.6902C27.5298 26.6833 27.4463 26.6984 27.3744 26.7262C27.2804 26.7598 27.1992 26.768 27.1087 26.7192C27.0125 26.667 26.9023 26.681 26.7967 26.6833C26.4696 26.6879 26.1436 26.6856 25.8385 26.5383C25.6309 26.5302 25.4418 26.4049 25.2202 26.4582C25.1205 26.4814 25.008 26.4478 24.9175 26.3863C24.8711 26.3562 24.791 26.3956 24.7736 26.3121C24.8247 26.3016 24.8769 26.2924 24.9268 26.2796C24.9488 26.2738 24.9697 26.2599 24.9906 26.2494C24.9708 26.2332 24.9511 26.2158 24.9302 26.2007C24.8873 26.1706 24.8444 26.1416 24.7876 26.174C24.6762 26.2367 24.5544 26.2135 24.4384 26.203C24.3479 26.1961 24.2598 26.1671 24.2424 26.0522C24.3363 25.9884 24.428 25.9223 24.5173 25.8516C24.5393 25.833 24.544 25.7831 24.544 25.7472C24.544 25.659 24.4883 25.6068 24.4106 25.5789C24.3421 25.5546 24.2853 25.5882 24.2377 25.6335C24.1774 25.6915 24.1438 25.7669 24.1832 25.8423C24.2192 25.9119 24.2424 25.9745 24.2424 26.0522C24.1925 26.0406 24.1414 26.043 24.0974 26.0186C23.9953 25.9606 23.9767 25.9038 24.0046 25.7912C24.0498 25.6091 24.0394 25.5998 23.8259 25.6288C23.8143 25.63 23.7992 25.6369 23.7923 25.6323C23.7714 25.6184 23.7494 25.6021 23.7366 25.5813C23.7099 25.5395 23.732 25.5117 23.7714 25.4943C23.8259 25.4711 23.9036 25.5047 23.9234 25.4165C24.0382 25.3145 24.0811 25.1625 24.2134 25.0709C24.2656 25.0349 24.2273 24.9769 24.1971 24.934C24.1762 24.9027 24.1786 24.8795 24.211 24.876C24.3966 24.8551 24.5579 24.7681 24.7307 24.7078C24.8432 24.6683 24.9708 24.586 25.1089 24.6602C25.1878 24.702 25.2202 24.615 25.2736 24.586C25.3235 24.5593 25.3803 24.5442 25.4128 24.5987C25.4604 24.6788 25.5323 24.6881 25.6123 24.6985C25.8455 24.7298 26.0531 24.644 26.2526 24.55C26.5148 24.4271 26.777 24.3099 27.0542 24.231C27.1157 24.2136 27.2073 24.1893 27.2236 24.1452C27.2781 23.9932 27.4115 23.977 27.5298 23.9329C27.7398 23.8552 27.93 23.7496 28.104 23.6046C28.2316 23.4979 28.3511 23.3691 28.5309 23.3367C28.6249 23.3204 28.6341 23.1847 28.7351 23.1661C28.7246 23.1511 28.7153 23.1244 28.7026 23.1232C28.6365 23.1139 28.5727 23.1023 28.5263 23.0478C28.517 23.0385 28.51 23.0269 28.5031 23.0165C28.4833 22.991 28.4926 22.9713 28.5309 22.9701C28.8905 22.955 29.1457 22.7717 29.3325 22.4806C29.4125 22.4794 29.4868 22.4701 29.5262 22.382C29.5297 22.3738 29.5308 22.3588 29.5262 22.3518C29.5204 22.3437 29.5053 22.3356 29.496 22.3367C29.4067 22.3472 29.3522 22.3959 29.3325 22.4806C29.2675 22.4782 29.206 22.4852 29.1422 22.4771C29.1098 22.4724 29.0796 22.4504 29.0494 22.4353C29.0645 22.4156 29.075 22.3878 29.0947 22.375C29.148 22.3402 29.2084 22.3135 29.2629 22.2787C29.3104 22.2486 29.3336 22.2056 29.2896 22.1534C29.2687 22.1291 29.2675 22.1082 29.2872 22.0827C29.3452 22.0119 29.3963 21.9388 29.4102 21.8449C29.4125 21.8217 29.4322 21.788 29.4508 21.7822C29.6793 21.7184 29.6399 21.534 29.6526 21.3716C29.7106 21.3496 29.7234 21.2985 29.7211 21.2428C29.7199 21.2185 29.713 21.1895 29.699 21.1709C29.6921 21.1628 29.6526 21.1698 29.6376 21.1825C29.6086 21.2034 29.5726 21.2278 29.6039 21.2753C29.6248 21.3066 29.6352 21.338 29.6526 21.3716C29.5656 21.3855 29.5076 21.3391 29.438 21.3008C29.3336 21.2417 29.3325 21.2382 29.3951 21.1234C29.4496 21.0248 29.4485 21.0259 29.3708 20.9436C29.3441 20.9157 29.3267 20.8786 29.2988 20.8519C29.1654 20.7266 29.1654 20.7278 29.2211 20.577C29.2327 20.5422 29.2524 20.4958 29.2385 20.4703C29.1631 20.3322 29.1121 20.1849 29.0483 20.0434C28.9903 19.9146 28.9033 19.7859 28.7965 19.6942C28.6829 19.5968 28.5889 19.4645 28.4311 19.4181C28.2931 19.3787 28.1562 19.3346 28.0217 19.2836C27.9242 19.2465 27.8326 19.1943 27.7398 19.1455C27.7247 19.1374 27.7189 19.1107 27.7085 19.0922C27.7328 19.0829 27.7572 19.0667 27.7815 19.0667C27.8743 19.0655 27.966 19.0736 28.0576 19.0713C28.0773 19.0713 28.1121 19.0458 28.1121 19.033C28.1121 19.011 28.0947 18.9797 28.075 18.9681C28.0193 18.9333 27.9602 18.9066 27.9022 18.8741C27.8442 18.8428 27.7398 18.9043 27.7235 18.7825C27.7212 18.7685 27.6528 18.7593 27.6145 18.7581C27.5901 18.7569 27.56 18.7662 27.5426 18.7825C27.5345 18.7894 27.5472 18.8254 27.5577 18.8451C27.5693 18.8683 27.5878 18.888 27.6052 18.9089C27.6284 18.9367 27.6273 18.9565 27.5994 18.9692C27.5867 18.9739 27.5739 18.9773 27.5611 18.9797C27.4892 18.9901 27.4382 18.9414 27.3802 18.9135C27.0751 18.7697 26.7526 18.7349 26.4209 18.7604C26.2526 18.8555 26.0879 18.7651 25.9232 18.7419C25.8234 18.7268 25.893 18.685 25.929 18.656C25.9603 18.6293 25.9534 18.6131 25.9104 18.6085C25.6471 18.5725 25.3803 18.5748 25.1205 18.6177C24.9639 18.6433 24.8073 18.6572 24.6507 18.6665C24.5045 18.6769 24.3595 18.6723 24.2412 18.7813C24.1774 18.8393 24.0927 18.8277 24.0138 18.8277C23.8155 18.8289 23.6194 18.8347 23.4419 18.9472C23.3607 18.9994 23.2621 18.9936 23.1705 18.9855C23.058 18.975 22.9663 19.0284 22.8701 19.0678C22.8074 19.0933 22.8086 19.1397 22.8295 19.1943C22.8422 19.2279 22.8747 19.2697 22.8213 19.2929C22.6276 19.3752 22.4629 19.526 22.2495 19.5539C22.1172 19.5724 22.0233 19.6316 21.9618 19.7371C21.8632 19.9065 21.7101 19.9494 21.5314 19.9517C21.5488 19.8543 21.6555 19.8659 21.7054 19.8091C21.7217 19.7905 21.7309 19.765 21.7437 19.7429C21.7193 19.7325 21.6938 19.7116 21.6718 19.7163C21.4537 19.7545 21.2519 19.8415 21.0477 19.9193C21.0361 19.9239 21.0303 19.9401 21.0199 19.9471C20.992 19.9691 20.9909 19.9889 21.0152 20.0144C21.0732 20.0735 21.144 20.1165 21.224 20.0851C21.2971 20.0561 21.3632 20.0132 21.4467 20.0248C21.3818 20.1837 21.2229 20.2371 21.1011 20.3334C21.0349 20.3856 20.9688 20.4169 20.8864 20.4192C20.8029 20.4216 20.7356 20.4645 20.6753 20.5167C20.608 20.5735 20.506 20.5944 20.4793 20.6953C20.3633 20.6652 20.3296 20.7626 20.2821 20.8287C20.2276 20.9041 20.1382 20.8821 20.0733 20.9215C20.064 20.9273 20.0628 20.9691 20.0733 20.983C20.1174 21.0422 20.1846 21.0445 20.2508 21.0503C20.274 21.0526 20.2948 21.0735 20.3169 21.0862C20.2972 21.1013 20.2774 21.1187 20.2554 21.1292C20.173 21.1651 20.0988 21.2173 19.9967 21.2115C19.9213 21.2069 19.8436 21.2428 19.767 21.2614C19.7694 21.2092 19.7833 21.164 19.8297 21.135C19.8506 21.1222 19.8726 21.1094 19.8935 21.0978C19.8819 21.0828 19.8703 21.0561 19.861 21.0572C19.825 21.0596 19.7821 21.0619 19.7554 21.0804C19.6951 21.1245 19.7264 21.1941 19.7206 21.2533ZM15.968 19.069C16.1177 19.0713 16.2441 18.9959 16.3671 18.9309C16.6223 18.7975 16.9018 18.7279 17.1605 18.605C17.2765 18.5505 17.4122 18.5365 17.5387 18.5052C17.6326 18.4832 17.7034 18.4287 17.7602 18.3533C17.7672 18.344 17.7753 18.3219 17.7707 18.3173C17.7556 18.2999 17.7347 18.2755 17.7161 18.2755C17.6523 18.2779 17.5827 18.2744 17.5247 18.2976C17.1744 18.4414 16.8264 18.5899 16.4796 18.743C16.3369 18.8057 16.1989 18.8822 16.062 18.9576C16.0202 18.9808 15.9657 19.0052 15.968 19.069C15.7859 19.0411 15.649 19.1247 15.5295 19.2499C15.5237 19.2557 15.5226 19.272 15.5272 19.2778C15.5342 19.2882 15.5469 19.2998 15.5574 19.2998C15.5945 19.301 15.6479 19.3114 15.6687 19.2917C15.7581 19.2024 15.8961 19.178 15.968 19.069ZM26.7085 25.2565C26.7039 25.2692 26.7016 25.2773 26.7016 25.2901C26.7004 25.3261 26.6111 25.3864 26.7132 25.3945C26.8941 25.4107 27.0821 25.4386 27.2305 25.2831C27.2537 25.2576 27.3059 25.2402 27.3384 25.2472C27.4823 25.2762 27.444 25.1068 27.5333 25.0767C27.5669 25.0651 27.56 25.0314 27.5194 25.0279C27.4695 25.0245 27.415 25.0245 27.3674 25.0407C27.147 25.1149 26.9429 25.2228 26.7085 25.2565C26.7596 25.1022 26.8686 25.0384 27.0241 25.0117C27.1389 24.9931 27.2514 24.9572 27.3651 24.927C27.4022 24.9177 27.408 24.898 27.3837 24.8725C27.3755 24.8621 27.3697 24.8493 27.3593 24.8423C27.3384 24.8261 27.3175 24.8017 27.2943 24.8006C27.06 24.782 26.8211 24.7484 26.6181 24.9108C26.4568 25.0407 26.2828 25.1045 26.0763 25.0453C26.0647 25.0419 26.0438 25.0453 26.0404 25.0523C26.023 25.0848 26.0032 25.1196 25.9986 25.1555C25.9928 25.1915 25.9974 25.2344 26.0578 25.217C26.0949 25.2054 26.1413 25.1811 26.1691 25.1927C26.3455 25.2715 26.5276 25.2356 26.7085 25.2565ZM12.9416 12.5613C12.8893 12.5613 12.8395 12.5695 12.7873 12.5637C12.7664 12.5602 12.7455 12.5393 12.7269 12.5231C12.7246 12.5196 12.7327 12.4941 12.742 12.4883C12.9555 12.3676 13.1237 12.1588 13.3974 12.1553C13.4566 12.1553 13.5007 12.124 13.503 12.0637C13.5076 11.9523 13.5772 11.8688 13.6213 11.7748C13.6596 11.6925 13.5958 11.6994 13.5482 11.6936C13.5343 11.6913 13.5204 11.6936 13.5088 11.689C13.4844 11.6797 13.4624 11.667 13.4392 11.6554C13.4462 11.6461 13.452 11.6322 13.4612 11.6264C13.6074 11.5382 13.7547 11.4512 13.9009 11.3607C13.916 11.3514 13.9252 11.3317 13.938 11.3166C13.9136 11.3108 13.8846 11.2934 13.8649 11.3004C13.6213 11.3978 13.3777 11.4976 13.1353 11.5962C12.9891 11.6565 12.8337 11.6994 12.7003 11.7806C12.5529 11.8711 12.3987 11.943 12.2351 11.9906C12.1017 12.0289 11.9671 12.0811 11.9173 12.2052C11.8697 12.3212 11.7583 12.3363 11.6934 12.4187C11.6203 12.5103 11.5263 12.5834 11.4208 12.6437C11.2503 12.7423 11.0705 12.8397 10.9301 12.9743C10.7689 13.1297 10.5925 13.2666 10.4325 13.4232C10.2863 13.5659 10.0995 13.6819 10.0717 13.9162C10.0659 13.9684 10.0114 13.9406 9.97773 13.9464C9.94293 13.9533 9.90813 13.9765 9.88029 14.0021C9.86405 14.0171 9.85477 14.0485 9.85477 14.0717C9.85477 14.1018 9.87681 14.1123 9.90465 14.1041C10.1587 14.038 10.3953 13.9127 10.661 13.8861C10.7051 13.8814 10.7457 13.8292 10.7851 13.7956C10.835 13.7538 10.8872 13.6761 10.9475 13.6993C11.1099 13.7608 11.1888 13.6285 11.299 13.574C11.3697 13.5392 11.4277 13.4592 11.4985 13.4511C11.6249 13.4348 11.7363 13.3768 11.814 13.3014C11.9149 13.2028 12.0681 13.2341 12.1481 13.117C12.4509 13.0242 12.7026 12.8606 12.9149 12.6275C12.93 12.6101 12.9346 12.5845 12.9416 12.5613C13.0228 12.5753 13.0842 12.5486 13.1341 12.4813C13.1538 12.4546 13.1562 12.4349 13.1272 12.421C13.1179 12.4163 13.104 12.4129 13.0935 12.4163C13.0158 12.4372 12.9636 12.4836 12.9416 12.5613ZM26.6853 26.304C26.8443 26.297 27.0032 26.2993 27.1598 26.2784C27.2735 26.2634 27.3953 26.2425 27.4266 26.0894C27.4347 26.0499 27.4985 25.9954 27.5391 25.9931C27.7746 25.9757 27.9892 25.8504 28.2316 25.8782C28.2966 25.8852 28.3639 25.8736 28.4288 25.8794C28.5866 25.8933 28.7072 25.8133 28.8255 25.7286C28.8406 25.7181 28.8453 25.681 28.8406 25.659C28.836 25.6369 28.8174 25.6056 28.7989 25.5998C28.7501 25.5847 28.6968 25.5731 28.6457 25.5743C28.4868 25.5743 28.3291 25.5836 28.1701 25.5859C28.0657 25.5882 27.9671 25.5882 27.8616 25.6288C27.6911 25.695 27.495 25.6091 27.3187 25.6915C27.2909 25.7042 27.2456 25.6717 27.2073 25.6683C27.0101 25.6509 26.8129 25.6358 26.6169 25.6775C26.6053 25.6799 26.596 25.6915 26.5856 25.6984C26.5949 25.7077 26.603 25.7228 26.6134 25.7251C26.8211 25.7576 27.0217 25.8318 27.2363 25.8202C27.2746 25.8191 27.3141 25.826 27.3535 25.8307C27.3639 25.8318 27.3732 25.8423 27.3837 25.8481C27.3732 25.8574 27.3651 25.8701 27.3535 25.8736C27.2549 25.9072 27.1563 25.9629 27.0554 25.9676C26.7631 25.9815 26.5009 26.1265 26.212 26.152C26.1784 26.1543 26.1703 26.1775 26.197 26.2065C26.248 26.261 26.2979 26.3573 26.3803 26.3202C26.487 26.2738 26.5891 26.3759 26.6853 26.304ZM28.4056 24.2357C28.4706 24.2357 28.5506 24.2415 28.6295 24.2345C28.7826 24.2217 28.8627 24.0744 28.9972 24.0245C28.9543 23.9062 28.8186 23.9283 28.7409 23.8587C28.6956 23.8181 28.6156 23.8215 28.5599 23.7902C28.3905 23.6951 28.3882 23.6881 28.3093 23.8053C28.2803 23.8482 28.2629 23.8958 28.2026 23.9097C28.1005 23.9329 28.0019 23.977 27.8987 23.9863C27.7769 23.9967 27.6737 24.0211 27.5716 24.0999C27.4625 24.1835 27.2885 24.1777 27.2352 24.3447C27.2271 24.3702 27.1679 24.3783 27.1319 24.3946C27.0612 24.4282 26.9893 24.4595 26.9197 24.4967C26.9127 24.5001 26.9162 24.55 26.9289 24.5593C27.0612 24.6533 27.2166 24.7124 27.3697 24.6695C27.4718 24.6405 27.5751 24.6347 27.676 24.6092C27.6876 24.6069 27.6969 24.5929 27.7061 24.5848C27.6969 24.5767 27.6876 24.5639 27.6771 24.5628C27.5716 24.5547 27.4672 24.55 27.3628 24.5396C27.3442 24.5373 27.328 24.5152 27.3106 24.5025C27.3187 24.492 27.3257 24.4781 27.3361 24.4723C27.4266 24.4178 27.5159 24.3667 27.6307 24.3737C27.6945 24.3772 27.7734 24.3737 27.821 24.3389C27.9973 24.2136 28.191 24.2113 28.4056 24.2357ZM24.5846 16.4323C24.6101 16.416 24.6472 16.4033 24.6692 16.3778C24.885 16.1318 25.1031 15.8859 25.3119 15.6342C25.3687 15.5646 25.4058 15.4764 25.4406 15.3929C25.4708 15.321 25.4754 15.2386 25.5091 15.1702C25.5439 15.1029 25.603 15.0484 25.6471 14.9857C25.661 14.966 25.6634 14.9359 25.6634 14.9103C25.6622 14.8848 25.6587 14.8547 25.6425 14.8373C25.632 14.8257 25.5938 14.8222 25.5787 14.8326C25.4302 14.9405 25.3177 15.0844 25.2052 15.2259C25.2075 15.4068 25.0729 15.5043 24.9627 15.6122C24.8293 15.7421 24.7423 15.9022 24.6484 16.0576C24.6205 16.1028 24.5927 16.1458 24.5683 16.191C24.5347 16.2548 24.4871 16.2884 24.4129 16.2919C24.2551 16.2989 24.1496 16.3986 24.051 16.5065C24.015 16.5471 24.0138 16.5958 24.0533 16.5947C24.0788 16.5947 24.1113 16.5993 24.1287 16.5854C24.1878 16.5355 24.2482 16.4845 24.298 16.4253C24.3607 16.3546 24.4291 16.3464 24.508 16.3836C24.5312 16.3952 24.5521 16.4126 24.5846 16.4323ZM17.1582 5.91796C17.1582 5.853 17.1582 5.78688 17.1628 5.72192C17.164 5.708 17.1918 5.69292 17.2104 5.6848C17.2162 5.68248 17.2347 5.6964 17.2394 5.70684C17.2579 5.75208 17.2591 5.824 17.3333 5.795C17.389 5.77412 17.3867 5.71148 17.3763 5.66044C17.3681 5.62332 17.3484 5.58736 17.3299 5.55372C17.3032 5.50848 17.2359 5.49688 17.1953 5.53168C17.157 5.56648 17.1153 5.60012 17.0886 5.64304C17.0178 5.75904 17.0155 5.89128 17.0097 6.02352C16.9923 6.41561 16.9471 6.80305 16.7974 7.17309C16.7789 7.21949 16.7789 7.27517 16.7765 7.32621C16.7742 7.36449 16.7777 7.43525 16.7881 7.43641C16.8543 7.44801 16.8287 7.36913 16.8659 7.34361C16.8983 7.32273 16.9239 7.29025 16.9587 7.27169C17.0758 7.20789 17.0932 7.12205 17.0271 7.01069C16.9981 6.96081 16.9911 6.89817 17.0457 6.87381C17.1292 6.83785 17.1651 6.77173 17.1872 6.69749C17.251 6.48637 17.3159 6.27525 17.3078 6.0502C17.3078 6.0386 17.2962 6.02816 17.2893 6.01656C17.2753 6.03164 17.2556 6.0444 17.2487 6.06296C17.2394 6.08616 17.2463 6.11632 17.2371 6.13952C17.2289 6.15808 17.2069 6.16968 17.1907 6.18476C17.1825 6.17432 17.1698 6.16388 17.1686 6.15228C17.1628 6.07456 17.1617 5.99568 17.1582 5.91796ZM17.2498 4.49811C17.244 4.46563 17.2463 4.42271 17.2301 4.38907C17.1431 4.21391 17.0526 4.04107 16.961 3.86823C16.9575 3.86011 16.9389 3.85663 16.9273 3.85431C16.896 3.85083 16.8751 3.86939 16.8879 3.89491C16.9819 4.07123 17.0051 4.26843 17.0399 4.45751C17.0758 4.66051 17.1756 4.84843 17.1698 5.06072C17.1686 5.11988 17.2139 5.1802 17.2405 5.23936C17.251 5.26256 17.2684 5.28228 17.2835 5.30316C17.2927 5.28112 17.3101 5.26024 17.3101 5.2382C17.3113 5.13496 17.3357 5.01316 17.2637 4.93544C17.1849 4.85191 17.3797 4.72895 17.2092 4.68023C17.222 4.62107 17.2347 4.56191 17.2498 4.49811ZM18.2347 20.1988C18.7161 20.1002 18.9608 20.0202 19.3436 19.8311C19.3564 19.8241 19.3576 19.7859 19.3576 19.7627C19.3576 19.7534 19.3413 19.7383 19.3309 19.7371C19.2926 19.7313 19.2497 19.7163 19.2172 19.7279C18.8622 19.8601 18.5084 19.9958 18.1558 20.135C18.1407 20.1397 18.1268 20.1919 18.1337 20.1977C18.1743 20.2313 18.1082 20.2348 18.1604 20.2243C18.1859 20.2197 18.2103 20.2069 18.2347 20.1988ZM19.1963 20.2209C19.1917 20.2116 19.1882 20.2 19.1812 20.193C19.172 20.1849 19.1604 20.1745 19.1488 20.1733C18.9655 20.1582 18.7915 20.2174 18.614 20.2464C18.5247 20.2615 18.4203 20.2661 18.3518 20.3148C18.2486 20.3902 18.1419 20.4134 18.0224 20.4308C17.9342 20.4436 17.8507 20.4888 17.766 20.5213C17.7602 20.5236 17.7556 20.5434 17.7556 20.5434C17.766 20.5503 17.7788 20.5631 17.7892 20.5619C18.0096 20.526 18.2323 20.5004 18.4493 20.4506C18.6917 20.3949 18.9295 20.3183 19.1696 20.2487C19.1801 20.2464 19.1882 20.2302 19.1963 20.2209ZM14.8138 11.493C14.8045 11.4848 14.7964 11.4698 14.786 11.4686C14.75 11.464 14.6966 11.4477 14.6769 11.4651C14.5064 11.6206 14.3405 11.7806 14.1746 11.9419C14.134 11.9825 14.1735 12.0138 14.2025 12.0347C14.2709 12.0822 14.3312 12.0811 14.373 12.0231C14.4948 11.8549 14.6502 11.7192 14.7848 11.5637C14.7999 11.5452 14.8045 11.5173 14.8138 11.493ZM9.059 3.02606C9.08916 3.01214 9.12744 3.00054 9.16108 2.98082C9.32232 2.89266 9.48124 2.80566 9.66337 2.75926C9.76197 2.73374 9.85013 2.66646 9.94293 2.61774C9.94757 2.61426 9.95105 2.59686 9.94757 2.59454C9.93829 2.58758 9.92437 2.57714 9.91393 2.57946C9.61465 2.62934 9.33044 2.72214 9.07756 2.89498C9.05668 2.9089 9.03928 2.9321 9.02768 2.95414C9.0184 2.97154 9.0184 2.99474 9.0184 3.01562C9.0184 3.01794 9.04044 3.02142 9.059 3.02606ZM13.3951 2.07253C13.5424 2.07253 13.6608 2.02033 13.764 1.93101C13.7733 1.92405 13.7791 1.90781 13.7779 1.89505C13.7779 1.88809 13.7663 1.87417 13.7582 1.87301C13.706 1.86489 13.6434 1.83589 13.6039 1.85561C13.4473 1.93449 13.2733 1.92869 13.1098 1.96929C13.0982 1.97161 13.0889 1.98437 13.0796 1.99481C13.0715 2.00409 13.0552 2.02265 13.0576 2.02497C13.0692 2.04005 13.0935 2.06557 13.0993 2.06209C13.2037 2.00409 13.3023 2.07833 13.3951 2.07253ZM29.9148 25.0952C30.1236 25.0163 30.3544 24.9665 30.5574 24.8423C30.5818 24.8273 30.5864 24.8017 30.5632 24.7774C30.547 24.7588 30.5145 24.7287 30.5029 24.7333C30.2895 24.8261 30.0772 24.9224 29.8661 25.0187C29.8556 25.0233 29.8452 25.05 29.8452 25.05C29.8626 25.0639 29.8812 25.0743 29.9148 25.0952ZM17.3194 7.14409C17.3159 7.11857 17.3136 7.09305 17.3078 7.06869C17.3043 7.05709 17.2927 7.04085 17.2846 7.04085C17.2742 7.04085 17.2591 7.05129 17.2521 7.06173C17.1396 7.24385 17.1547 7.46309 17.0863 7.65798C17.0758 7.68582 17.106 7.72758 17.1164 7.76238C17.1338 7.74266 17.1547 7.72526 17.1686 7.70322C17.273 7.53153 17.3206 7.34477 17.3194 7.14409ZM19.4608 20.976C19.5606 20.9691 19.6139 20.961 19.6661 20.9621C19.774 20.9656 19.7821 20.874 19.8204 20.8102C19.8378 20.78 19.8355 20.7638 19.7972 20.758C19.7032 20.744 19.6186 20.8461 19.5292 20.7951C19.3761 20.7081 19.3935 20.9227 19.2891 20.9204C19.2659 20.9192 19.2717 20.9586 19.3112 20.9644C19.3761 20.9726 19.4422 20.9749 19.4608 20.976ZM28.0959 24.7867C28.0959 24.7809 28.0959 24.7913 28.0959 24.7867C28.0576 24.7913 28.0112 24.7762 27.9834 24.7959C27.9115 24.8481 27.8488 24.9108 27.7815 24.9688C27.7931 24.9815 27.8047 25.0059 27.8163 25.0059C27.9161 25.0094 28.0251 25.0546 28.0994 24.9398C28.1458 24.8667 28.2235 24.8539 28.3035 24.847C28.314 24.8458 28.3244 24.8331 28.3349 24.8249C28.3198 24.8145 28.3059 24.7959 28.2896 24.7959C28.2258 24.7925 28.1609 24.7867 28.0959 24.7867ZM7.70643 1.94261C7.69367 1.94609 7.67975 1.94609 7.66815 1.95189C7.51503 2.02613 7.36307 2.10153 7.20995 2.17694C7.17747 2.19318 7.16587 2.2129 7.18559 2.22334C7.20763 2.23494 7.23431 2.23726 7.25867 2.24074C7.27143 2.2419 7.28651 2.23842 7.29695 2.23262C7.43731 2.1607 7.57651 2.08993 7.71455 2.01453C7.72847 2.00641 7.73311 1.97857 7.73891 1.95885C7.73891 1.95885 7.71803 1.94841 7.70643 1.94261ZM9.95337 1.13409C10.1297 1.11321 10.2991 1.04593 10.4649 0.972846C10.487 0.962406 10.5055 0.945006 10.5264 0.931086C10.4893 0.920646 10.4475 0.893966 10.4174 0.903246C10.2445 0.957766 10.0752 1.02041 9.90465 1.08073C9.89421 1.08421 9.88609 1.09581 9.87565 1.10393C9.89885 1.11321 9.92205 1.12133 9.95337 1.13409ZM26.2295 15.6829C26.2248 15.6481 26.2271 15.5948 26.2062 15.5518C26.1946 15.5275 26.1413 15.5054 26.1146 15.5124C26.0833 15.5194 26.0543 15.5565 26.0334 15.5866C25.994 15.6423 26.0496 15.647 26.0798 15.6586C26.1158 15.6736 26.1471 15.6876 26.1622 15.7293C26.168 15.7456 26.1912 15.756 26.2062 15.7699C26.2132 15.7456 26.219 15.7224 26.2295 15.6829ZM17.0596 8.01294C17.0526 8.0025 17.0445 7.98278 17.0387 7.98278C16.9749 7.98742 16.8728 8.11966 16.8589 8.2171C16.8577 8.22638 16.8682 8.2461 16.8763 8.24726C16.8995 8.2519 16.9343 8.26002 16.9459 8.24958C17.0074 8.18346 17.0584 8.10922 17.0596 8.01294ZM14.2628 1.88925C14.1758 1.83125 14.0888 1.77441 13.9774 1.78601C13.9647 1.78717 13.9542 1.79761 13.9426 1.80341C13.9473 1.81153 13.9496 1.82429 13.9566 1.82777C14.0354 1.87069 14.1074 1.93449 14.206 1.92405C14.2187 1.92289 14.2315 1.91825 14.2408 1.91245C14.25 1.90781 14.2558 1.89737 14.2628 1.88925ZM20.644 20.2533C20.6278 20.2533 20.6916 20.2591 20.7542 20.258C20.7693 20.258 20.782 20.2278 20.796 20.2116C20.7855 20.2046 20.7762 20.1895 20.767 20.1895C20.6533 20.1884 20.5408 20.1895 20.4282 20.1942C20.4132 20.1953 20.3981 20.2174 20.383 20.2302C20.3934 20.2383 20.4027 20.2522 20.4132 20.2522C20.4642 20.2545 20.5141 20.2533 20.644 20.2533ZM18.0792 21.7602C18.1546 21.7614 18.2312 21.7648 18.295 21.7115C18.3135 21.6964 18.3251 21.6732 18.3402 21.6535C18.3205 21.6419 18.2985 21.621 18.2799 21.6222C18.2428 21.6256 18.2068 21.6419 18.1709 21.6523C18.1349 21.6628 18.0978 21.6709 18.063 21.6848C18.0386 21.6941 17.9864 21.6871 18.0085 21.7382C18.0154 21.7521 18.0537 21.7532 18.0792 21.7602ZM13.8614 10.4466C13.8498 10.4397 13.8394 10.4292 13.8266 10.4281C13.7431 10.4188 13.6747 10.4513 13.619 10.5116C13.612 10.5197 13.6016 10.536 13.6039 10.5394C13.6109 10.5499 13.6283 10.5638 13.6352 10.5603C13.7072 10.5325 13.7768 10.5023 13.8475 10.471C13.8545 10.4687 13.8568 10.4548 13.8614 10.4466ZM20.4364 10.0963C20.4839 10.0928 20.5234 10.0928 20.5616 10.0859C20.5825 10.0824 20.6034 10.0685 20.6243 10.058C20.6011 10.0499 20.5767 10.0325 20.5535 10.0325C20.4758 10.0337 20.3992 10.0395 20.3227 10.0453C20.3134 10.0464 20.3053 10.058 20.296 10.0638C20.3076 10.0708 20.318 10.0812 20.3296 10.0836C20.3679 10.0894 20.4062 10.0928 20.4364 10.0963ZM8.60196 3.2337C8.59152 3.23022 8.57644 3.21282 8.56484 3.21282C8.48712 3.21282 8.41636 3.2279 8.36416 3.2917C8.3572 3.30098 8.3456 3.31374 8.34792 3.3207C8.3514 3.33114 8.3688 3.34622 8.3746 3.3439C8.45232 3.31258 8.5254 3.2685 8.60196 3.2337ZM10.7248 0.878885C10.7515 0.863805 10.7851 0.849885 10.8118 0.827845C10.8269 0.815085 10.8303 0.788405 10.8385 0.768685C10.8164 0.759405 10.7944 0.746645 10.7712 0.744324C10.7468 0.742005 10.7213 0.745484 10.6981 0.753604C10.6575 0.767525 10.6436 0.804645 10.6563 0.840605C10.6621 0.856845 10.6946 0.863805 10.7248 0.878885ZM26.4255 24.818C26.4197 24.8064 26.4162 24.7925 26.4069 24.7855C26.3803 24.7623 26.3594 24.7205 26.3118 24.7507C26.2817 24.7704 26.2434 24.7959 26.2608 24.8319C26.2805 24.8725 26.4116 24.8563 26.4255 24.818ZM8.82932 15.9323C8.84556 15.9428 8.856 15.9555 8.86644 15.9567C8.93604 15.9567 8.9836 15.9172 9.0184 15.8616C9.01956 15.8592 9.00564 15.8395 9.001 15.8407C8.96504 15.843 8.9256 15.8407 8.8966 15.8569C8.86876 15.8708 8.85252 15.9056 8.82932 15.9323ZM5.32957 15.8453C5.28433 15.8476 5.23213 15.9114 5.25417 15.9486C5.27157 15.9776 5.30985 15.9926 5.33885 16.0135C5.35393 15.9834 5.37713 15.9544 5.38177 15.9219C5.38641 15.8882 5.37713 15.85 5.32957 15.8453ZM9.82461 15.8024C9.84317 15.8012 9.86985 15.8024 9.89421 15.7966C9.91509 15.7908 9.93481 15.7769 9.95453 15.7664C9.93133 15.7548 9.91045 15.7374 9.88725 15.7351C9.84897 15.7305 9.80953 15.7328 9.77125 15.7398C9.74921 15.7444 9.72949 15.763 9.70861 15.7746C9.73181 15.7838 9.75501 15.7943 9.77821 15.8012C9.78981 15.8047 9.80373 15.8024 9.82461 15.8024ZM7.81547 3.63159C7.80503 3.62579 7.79459 3.61419 7.78299 3.61419C7.72499 3.61303 7.69135 3.65595 7.65539 3.69191C7.64843 3.69887 7.64379 3.71511 7.64727 3.71859C7.65539 3.72787 7.66931 3.73715 7.67859 3.73599C7.75167 3.72671 7.82243 3.67103 7.81547 3.63159ZM11.9439 0.565683C11.9323 0.568003 11.9405 0.565683 11.9439 0.565683C11.9695 0.559883 12.0043 0.550603 12.0298 0.543643C12.0066 0.534363 11.9845 0.516963 11.9613 0.514643C11.9231 0.511163 11.8836 0.514643 11.8453 0.521603C11.8314 0.523923 11.8187 0.541323 11.8047 0.551763C11.8163 0.556403 11.8279 0.564523 11.8395 0.565683C11.8651 0.568003 11.9022 0.565683 11.9439 0.565683Z" fill="#FFC736"/>
</g>
</svg>
