<svg width="101" height="69" viewBox="0 0 101 69" fill="none" xmlns="http://www.w3.org/2000/svg">
<g opacity="0.7">
<path d="M6.80673 67.0824L6.17245 63.7667C22.0406 61.0296 32.1871 51.7776 36.3582 36.255C36.3279 36.2249 36.2957 36.2155 36.2559 36.2155C35.4569 36.2155 32.7116 42.3247 22.1751 42.3247C-5.72348 42.3247 -4.37352 1.96539 23.6803 1.96539C55.3409 1.96539 57.7872 60.3571 6.80673 67.0824ZM23.6803 0.0473633C8.13207 0.0473633 0.00012207 11.5517 0.00012207 22.9171C0.00012207 28.5416 1.96921 33.7602 5.53629 37.6057C9.56724 41.9489 15.3211 44.2502 22.1751 44.2502C26.7854 44.2502 30.0552 43.1738 32.384 41.8719C27.5844 52.9405 18.6856 59.6564 5.84301 61.8787C5.3318 61.9651 4.8774 62.2526 4.58014 62.6752C4.29046 63.0961 4.18065 63.6183 4.27342 64.1255L4.90959 67.4318C5.08188 68.3523 5.88845 69.0004 6.79915 69.0004C6.88436 69.0004 6.97145 68.9929 7.05665 68.9854C37.1193 65.0141 49.5227 43.696 48.3242 25.5697C47.3283 10.5467 37.1894 0.0473633 23.6803 0.0473633Z" fill="#F3DA70"/>
<path d="M58.7831 67.0822L58.147 63.7665C84.6331 59.196 88.3743 36.2793 88.1774 36.1778C84.4854 40.429 79.2162 42.3621 73.9546 42.3621C68.638 42.3621 63.3234 40.3896 59.6541 36.809C52.0163 29.6798 51.6016 16.124 60.1312 7.956C64.3344 4.00161 69.9804 1.91827 75.6396 1.91827C81.6226 1.91827 87.6284 4.25146 91.9812 9.14138C105.914 25.3591 98.2993 61.8711 58.7831 67.0822ZM93.4466 7.89401C88.9139 2.7918 82.5958 0.000244141 75.6396 0.000244141C69.3764 0.000244141 63.2439 2.39543 58.8058 6.56774C54.3053 10.8659 51.8591 16.6763 51.8989 22.9395C51.9386 28.8608 54.2826 34.4307 58.3287 38.2048C62.2877 42.0577 67.9886 44.282 73.9546 44.282C77.8587 44.282 81.4977 43.3371 84.6179 41.5599C81.8745 48.1969 74.8728 58.9311 57.8194 61.8786C57.3082 61.965 56.8538 62.2524 56.5641 62.6751C56.2669 63.0959 56.157 63.6181 56.2498 64.1253L56.886 67.4316C57.0583 68.3521 57.8648 69.0002 58.7755 69.0002C58.8607 69.0002 58.9478 68.9927 59.033 68.9852C77.906 66.4961 92.0361 56.4965 97.79 41.543C102.417 29.5558 100.708 16.342 93.4466 7.89401Z" fill="#F3DA70"/>
</g>
</svg>
