<svg width="101" height="69" viewBox="0 0 101 69" fill="none" xmlns="http://www.w3.org/2000/svg">
<g opacity="0.7">
<path d="M93.5569 1.91811L94.1912 5.23379C78.323 7.97087 68.1765 17.2228 64.0055 32.7455C64.0358 32.7756 64.0679 32.7849 64.1077 32.7849C64.9067 32.7849 67.6521 26.6758 78.1886 26.6758C106.087 26.6758 104.737 67.0351 76.6834 67.0351C45.0227 67.0351 42.5765 8.6434 93.5569 1.91811ZM76.6834 68.9531C92.2316 68.9531 100.364 57.4487 100.364 46.0834C100.364 40.4589 98.3944 35.2402 94.8274 31.3948C90.7964 27.0515 85.0425 24.7503 78.1886 24.7503C73.5783 24.7503 70.3084 25.8267 67.9796 27.1286C72.7793 16.06 81.678 9.34411 94.5206 7.12175C95.0318 7.03534 95.4862 6.74792 95.7835 6.32524C96.0732 5.90444 96.183 5.38219 96.0902 4.87498L95.4541 1.5687C95.2818 0.648193 94.4752 8.39233e-05 93.5645 8.39233e-05C93.4793 8.39233e-05 93.3922 0.00759888 93.307 0.0151138C63.2443 3.98641 50.841 25.3045 52.0395 43.4308C53.0354 58.4538 63.1743 68.9531 76.6834 68.9531Z" fill="#F3DA70"/>
<path d="M41.5806 1.91827L42.2167 5.23395C15.7306 9.80452 11.9893 32.7212 12.1862 32.8227C15.8783 28.5715 21.1475 26.6384 26.4091 26.6384C31.7257 26.6384 37.0403 28.6109 40.7096 32.1915C48.3474 39.3207 48.7621 52.8764 40.2325 61.0445C36.0292 64.9989 30.3833 67.0822 24.724 67.0822C18.741 67.0822 12.7353 64.749 8.3825 59.8591C-5.55069 43.6414 2.06438 7.12943 41.5806 1.91827ZM6.91705 61.1065C11.4497 66.2087 17.7679 69.0002 24.724 69.0002C30.9872 69.0002 37.1198 66.6051 41.5578 62.4328C46.0583 58.1346 48.5046 52.3242 48.4648 46.061C48.425 40.1397 46.0811 34.5698 42.035 30.7957C38.076 26.9427 32.3751 24.7185 26.4091 24.7185C22.505 24.7185 18.866 25.6634 15.7458 27.4406C18.4892 20.8036 25.4908 10.0694 42.5443 7.12192C43.0555 7.0355 43.5099 6.74808 43.7996 6.3254C44.0968 5.9046 44.2066 5.38236 44.1139 4.87514L43.4777 1.56886C43.3054 0.648354 42.4988 0.000244141 41.5881 0.000244141C41.5029 0.000244141 41.4158 0.00775909 41.3306 0.015274C22.4577 2.50439 8.32759 12.504 2.57369 27.4575C-2.05366 39.4447 -0.343964 52.6585 6.91705 61.1065Z" fill="#F3DA70"/>
</g>
</svg>
