<svg width="454" height="483" viewBox="0 0 454 483" fill="none" xmlns="http://www.w3.org/2000/svg">
<path d="M387.505 185.469C389.52 184.507 398.302 177.159 407.659 168.694C415.335 175.602 422.033 181.338 423.677 182.518C427.977 185.603 434.684 182.196 430.859 176.943C428.045 173.081 422.473 167.029 416.268 160.715C422.691 154.622 428.472 148.772 431.419 145.009C435.425 139.893 428.843 136.251 424.437 139.186C422.752 140.306 415.858 145.802 407.942 152.441C398.888 143.652 390.369 135.999 388.388 134.97C384.406 132.893 379.342 135.144 379.924 140.17C380.199 142.537 388.967 151.387 398.616 160.408C388.656 169.084 379.584 177.619 379.226 179.975C378.468 184.976 383.45 187.405 387.505 185.469Z" fill="#C1B8A7"/>
<mask id="mask0_176_78" style="mask-type:luminance" maskUnits="userSpaceOnUse" x="0" y="62" width="421" height="421">
<path d="M420.593 208.149L274.471 482.62L8.13099e-06 336.498L146.122 62.027L420.593 208.149Z" fill="white"/>
</mask>
<g mask="url(#mask0_176_78)">
<path d="M73.0612 199.263C113.345 123.595 207.691 94.8047 283.358 135.088C359.035 175.377 387.816 269.718 347.532 345.385C307.243 421.062 212.913 449.848 137.236 409.559C61.5684 369.276 32.7724 274.94 73.0612 199.263ZM288.959 314.202C312.048 270.831 295.555 216.757 252.175 193.662C208.794 170.567 154.724 187.075 131.635 230.446C108.54 273.826 125.033 327.901 168.414 350.996C211.794 374.09 265.864 357.582 288.959 314.202Z" fill="#347BBE"/>
</g>
</svg>
