<svg width="620" height="537" viewBox="0 0 620 537" fill="none" xmlns="http://www.w3.org/2000/svg">
<mask id="mask0_176_70" style="mask-type:luminance" maskUnits="userSpaceOnUse" x="86" y="-1" width="534" height="535">
<path d="M102.193 533.466L619.954 517.761L604.249 -0.000600076L86.4875 15.7045L102.193 533.466Z" fill="white"/>
</mask>
<g mask="url(#mask0_176_70)">
<path d="M345.368 7.85193C202.63 12.1816 90.0104 131.847 94.3401 274.585C98.6703 417.342 218.335 529.943 361.074 525.614C503.831 521.284 616.432 401.637 612.102 258.88C607.772 116.142 488.126 3.52174 345.368 7.85193ZM357.722 415.121C275.908 417.602 207.315 353.067 204.833 271.234C202.351 189.401 266.906 120.827 348.72 118.345C430.553 115.863 499.145 180.398 501.628 262.231C504.11 344.064 439.555 412.638 357.722 415.121Z" fill="#F3DA70"/>
</g>
<path d="M97.9926 434.368C96.4335 437.745 84.3793 452.53 70.4788 468.297C82.1493 480.936 91.8474 491.97 93.8467 494.685C99.0773 501.782 93.545 513.026 84.7135 506.766C78.2204 502.162 68.021 493.01 57.3709 482.808C47.3588 493.636 37.7363 503.39 31.5307 508.38C23.0949 515.163 16.8878 504.275 21.6821 496.874C23.5132 494.043 32.5213 482.442 43.411 469.115C28.577 454.219 15.6488 440.192 13.8912 436.915C10.3478 430.325 13.989 421.842 22.3742 422.705C26.3226 423.113 41.251 437.529 56.4826 453.41C70.7237 436.635 84.7475 421.341 88.6639 420.694C96.978 419.325 101.13 427.572 97.9926 434.368Z" fill="#7B7F81"/>
</svg>
