<svg width="72" height="66" viewBox="0 0 72 66" fill="none" xmlns="http://www.w3.org/2000/svg">
<mask id="mask0_151_421" style="mask-type:luminance" maskUnits="userSpaceOnUse" x="29" y="48" width="13" height="11">
<path d="M29.795 48.8518H41.7365V58.7509H29.795V48.8518Z" fill="white"/>
</mask>
<g mask="url(#mask0_151_421)">
<path d="M39.4838 56.4332V55.664C39.4838 55.5789 39.4143 55.5085 39.3293 55.5085C39.3293 55.5085 37.5302 55.7179 35.786 55.7179C34.0408 55.7179 32.2418 55.5085 32.2418 55.5085C32.1567 55.5085 32.0872 55.5789 32.0872 55.664V56.4332C32.0872 57.7137 33.1226 58.7509 34.4003 58.7509H37.1707C38.4485 58.7509 39.4838 57.7137 39.4838 56.4332ZM40.3637 54.2563C40.7259 54.1347 40.9207 53.7414 40.8 53.3792C40.6783 53.0161 40.2869 52.8213 39.9247 52.942C36.6567 54.0387 34.4067 53.7707 31.6262 52.9356C31.2594 52.8249 30.8744 53.0335 30.7646 53.4003C30.6549 53.767 30.8625 54.153 31.2283 54.2628C32.8198 54.7402 34.2933 55.0512 35.8729 55.0512C37.243 55.0512 38.6918 54.817 40.3637 54.2563ZM40.7524 52.2432C41.1338 52.1262 41.3479 51.721 41.2308 51.3396C41.1137 50.9573 40.7085 50.7432 40.328 50.8603C36.7418 51.9634 34.2732 51.6935 31.2219 50.8539C30.8369 50.7478 30.4399 50.9746 30.3338 51.3597C30.2286 51.7457 30.4555 52.1435 30.8396 52.2496C32.5665 52.7243 34.1671 53.0335 35.8811 53.0335C37.3674 53.0335 38.9387 52.8012 40.7524 52.2432ZM35.8902 51.0606C34.0253 51.0606 32.2847 50.778 30.4052 50.3435C30.0146 50.253 29.7704 49.8624 29.861 49.471C29.9515 49.0795 30.3411 48.8353 30.7317 48.9259C34.0253 49.6868 36.8625 49.9539 40.821 48.9295C41.2097 48.8289 41.6058 49.064 41.7064 49.4527C41.807 49.8423 41.5729 50.2393 41.1841 50.339C39.214 50.8484 37.5055 51.0606 35.8902 51.0606Z" fill="#C1B8A7"/>
</g>
<mask id="mask1_151_421" style="mask-type:luminance" maskUnits="userSpaceOnUse" x="9" y="4" width="54" height="45">
<path d="M9.30737 4.67139H62.69V48.5692H9.30737V4.67139Z" fill="white"/>
</mask>
<g mask="url(#mask1_151_421)">
<path d="M35.475 12.6096C35.9269 12.5913 36.2772 12.209 36.2589 11.7562L35.9936 5.45714C35.9744 5.00531 35.5958 4.65317 35.1421 4.67238C34.6903 4.69159 34.3391 5.07391 34.3583 5.52665L34.6226 11.8257C34.6418 12.2657 35.004 12.6105 35.4403 12.6105C35.4513 12.6105 35.4631 12.6105 35.475 12.6096ZM51.1766 17.1891L55.972 13.1062C56.3159 12.8135 56.358 12.2959 56.0653 11.951C55.7726 11.6053 55.2549 11.5641 54.911 11.8568L50.1165 15.9407C49.7717 16.2334 49.7305 16.751 50.0232 17.0959C50.1851 17.287 50.4147 17.3849 50.647 17.3849C50.8345 17.3849 51.0229 17.3209 51.1766 17.1891ZM55.7058 27.1395L61.961 26.4471C62.4101 26.3977 62.7348 25.9925 62.6854 25.5425C62.6351 25.0916 62.229 24.7678 61.7808 24.8172L55.5266 25.5087C55.0766 25.559 54.7528 25.9641 54.8022 26.4142C54.8488 26.8331 55.2028 27.144 55.6153 27.144C55.6455 27.144 55.6747 27.1422 55.7058 27.1395ZM60.9174 41.1343C61.0647 40.7062 60.8388 40.2388 60.4116 40.0907L54.4638 38.0309C54.0357 37.8827 53.5702 38.1105 53.422 38.5376C53.2747 38.9657 53.5016 39.4321 53.9287 39.5812L59.8766 41.641C59.9644 41.6712 60.0549 41.6858 60.1436 41.6858C60.483 41.6858 60.8003 41.4727 60.9174 41.1343ZM24.182 16.5535C24.5314 16.2654 24.5817 15.7486 24.2955 15.3992L20.3003 10.5279C20.0131 10.1776 19.4973 10.1263 19.1479 10.4145C18.7994 10.7016 18.7482 11.2184 19.0354 11.5687L23.0305 16.4401C23.1924 16.6367 23.4266 16.7391 23.6635 16.7391C23.8455 16.7391 24.0293 16.6788 24.182 16.5535ZM17.8263 24.8721C17.9552 24.4385 17.7083 23.9812 17.2747 23.8532L11.2418 22.0596C10.8074 21.9306 10.3528 22.1776 10.2238 22.612C10.0949 23.0465 10.3418 23.5029 10.7753 23.6309L16.8092 25.4254C16.886 25.4483 16.9647 25.4593 17.0424 25.4593C17.3955 25.4593 17.7211 25.2279 17.8263 24.8721ZM10.3811 39.4193L16.3619 37.4584C16.7909 37.3166 17.025 36.8538 16.8851 36.423C16.7442 35.9931 16.2824 35.7581 15.8525 35.8998L9.87168 37.8608C9.4418 38.0016 9.20766 38.4645 9.34851 38.8952C9.46101 39.241 9.78113 39.4605 10.126 39.4605C10.2101 39.4605 10.2961 39.4477 10.3811 39.4193ZM47.9369 29.9867C47.9369 32.7279 47.0324 35.2587 45.5049 37.2919C44.4256 38.7297 43.5156 40.2809 42.8058 41.9163C42.0952 43.5526 41.5839 45.273 41.3013 47.0492C41.1677 47.8907 40.4424 48.5099 39.5927 48.5099H31.4616C30.6055 48.5099 29.8793 47.8843 29.7494 47.0373L29.6378 46.2992C29.1284 42.9581 27.8342 39.7879 25.8787 37.0349C24.4958 35.0885 23.6699 32.7178 23.636 30.155C23.5464 23.4663 28.9363 17.9081 35.6131 17.8157C42.4025 17.7206 47.9369 23.2056 47.9369 29.9867Z" fill="#FFDD00"/>
</g>
<path d="M27.1583 23.0437C32.9744 17.6693 38.1897 19.0422 40.9153 21.6461C43.6418 24.2501 44.2436 27.9653 42.3101 31.0449C40.3765 34.1254 33.6567 39.2693 28.458 36.7294C23.2592 34.1885 23.8939 26.0592 27.1583 23.0437Z" fill="#FFEA00"/>
<path d="M27.6696 25.2614C27.4363 25.2102 27.3138 24.9486 27.3851 24.72C27.6513 23.8584 28.3446 22.9492 29.3891 22.362C29.5967 22.2459 30.301 22.0822 30.4711 22.2486C31.0775 22.844 29.7522 23.434 29.5436 23.5511C28.6994 24.0248 28.5101 24.4209 28.1525 24.9962C28.0226 25.2056 27.8872 25.3099 27.6696 25.2614Z" fill="white"/>
<path d="M41.5692 32.1222C41.3396 31.7582 40.8768 31.7179 40.5073 31.8734C40.0683 32.0573 39.8387 32.4853 39.7153 32.9216C39.5579 33.4759 39.4921 34.0631 39.4052 34.632C39.354 34.9603 39.3064 35.2868 39.2634 35.6152C39.0229 35.8795 38.7192 36.1484 38.357 36.0625C37.9665 35.9701 37.7598 35.5283 37.6427 35.1826C37.6198 35.1176 37.5997 35.0518 37.5805 34.9868C37.8778 34.6356 38.143 34.2606 38.3707 33.8609C38.6049 33.4466 38.8738 32.9408 38.7055 32.4551C38.5656 32.0509 38.1512 31.8186 37.7479 32.0097C37.2741 32.2329 37.1735 32.7798 37.1588 33.2518C37.1415 33.8253 37.2082 34.3978 37.3573 34.9512C37.3601 34.9603 37.3628 34.9695 37.3656 34.9804C37.307 35.0463 37.2485 35.1122 37.189 35.1753C36.8735 35.5118 36.5232 35.8219 36.1436 36.0844C35.7576 36.3524 35.2482 36.5783 34.8082 36.2993C34.4753 36.0881 34.2951 35.6838 34.1963 35.3161C34.1479 35.1304 34.1113 34.9402 34.0857 34.7481C34.2128 34.5817 34.329 34.4097 34.4342 34.2451C34.7195 33.8024 34.961 33.3314 35.154 32.8402C35.2509 32.596 35.3342 32.3454 35.4037 32.092C35.4604 31.8899 35.5162 31.6731 35.4787 31.4618C35.4476 31.2862 35.3387 31.1289 35.1595 31.0823C34.9656 31.032 34.7753 31.1326 34.6409 31.2661C34.4671 31.4344 34.3701 31.6448 34.2814 31.8661C34.1826 32.1186 34.1003 32.3765 34.0354 32.639C33.9046 33.1777 33.8543 33.7265 33.8771 34.2808C33.8835 34.4179 33.8927 34.5551 33.9064 34.6942C33.8799 34.728 33.8543 34.7637 33.8287 34.7975C33.5524 35.1405 33.2149 35.4771 32.786 35.617C32.3936 35.7423 32.0149 35.6774 31.6784 35.5045C31.6317 35.071 31.5842 34.6393 31.5329 34.2058C31.4954 33.8975 31.457 33.5893 31.4177 33.2829C31.382 33.0021 31.3601 32.7149 31.2915 32.4396C31.189 32.0353 30.8909 31.6128 30.4217 31.6548C30.0073 31.6923 29.8592 32.0957 29.8729 32.4597C29.8802 32.6856 29.9415 32.9051 29.9963 33.1256C30.0604 33.378 30.129 33.6295 30.2122 33.8765C30.4436 34.5643 30.8616 35.2722 31.5009 35.6243C31.5576 36.1667 31.6098 36.7109 31.6564 37.2542C31.8457 39.4173 31.8878 41.4899 31.9445 43.6594C31.9555 44.0774 31.9345 47.0545 31.9372 48.5097H32.3122C32.4073 43.5368 32.1439 40.2524 31.9564 37.9146C31.8988 37.182 31.7753 36.4475 31.7003 35.7176C31.8512 35.778 32.0104 35.8219 32.1823 35.8402C32.9113 35.9207 33.4857 35.4771 33.9357 34.9375C33.9759 35.2146 34.0409 35.4872 34.1479 35.7423C34.3024 36.1137 34.5695 36.4594 34.9747 36.5664C35.475 36.6972 35.9689 36.4155 36.3595 36.1292C36.7445 35.8466 37.1003 35.5237 37.4204 35.1698C37.5284 35.5247 37.6848 35.8887 37.9866 36.1082C38.3653 36.3835 38.8171 36.2573 39.1537 35.982C39.1774 35.96 39.2012 35.939 39.2232 35.9179C38.9607 37.9411 38.8079 39.9762 38.7677 42.0167C38.7567 42.5216 38.7567 46.8698 38.7613 48.5097H39.0631C39.0558 45.871 39.1582 39.2326 39.3567 37.2186C39.4107 36.6753 39.472 36.1338 39.5387 35.5923C39.5854 35.5402 39.6302 35.4872 39.6759 35.4341C39.8771 35.2027 40.0793 34.9695 40.2814 34.7362C40.4835 34.5039 40.6848 34.2707 40.8869 34.0384C41.0698 33.8262 41.2656 33.6204 41.4229 33.3881C41.6689 33.0286 41.8226 32.5219 41.5692 32.1222ZM41.3918 32.9975C41.2061 33.4548 40.8009 33.828 40.4854 34.1957C40.1854 34.5451 39.8845 34.8936 39.5854 35.2429C39.6384 34.8341 39.696 34.4243 39.7592 34.0164C39.8314 33.549 39.868 33.0323 40.0692 32.5997C40.2357 32.2402 40.6006 31.9183 41.0241 32.0106C41.4686 32.1076 41.5381 32.6381 41.3918 32.9975ZM37.3592 33.6487C37.3381 33.1987 37.3043 32.5475 37.7003 32.2365C38.1229 31.9054 38.5555 32.3308 38.5637 32.778C38.5729 33.2545 38.2573 33.7338 38.0104 34.1207C37.8622 34.353 37.6994 34.5753 37.5256 34.7884C37.4314 34.4161 37.3765 34.032 37.3592 33.6487ZM34.0436 33.9003C34.0582 33.4009 34.1305 32.9042 34.2686 32.424C34.3372 32.1835 34.4204 31.942 34.5256 31.7143C34.6088 31.5323 34.7643 31.278 34.9811 31.2405C35.2235 31.1975 35.3067 31.4637 35.3003 31.6539C35.2939 31.8615 35.2235 32.0664 35.1613 32.2631C35.0177 32.7195 34.8366 33.1622 34.6143 33.5865C34.4506 33.8993 34.2649 34.2039 34.0582 34.4911C34.0427 34.2945 34.0372 34.096 34.0436 33.9003ZM30.6284 34.3987C30.4143 33.9743 30.2845 33.5143 30.1674 33.0561C30.0842 32.7341 29.9195 32.2283 30.1701 31.9402C30.321 31.7664 30.5643 31.7948 30.7427 31.9054C30.9485 32.0326 31.0546 32.2576 31.1122 32.4853C31.1717 32.7231 31.1936 32.9719 31.2247 33.2152C31.2595 33.4859 31.2933 33.7567 31.3253 34.0274C31.3784 34.4783 31.4278 34.9311 31.4753 35.3829C31.1149 35.1378 30.8177 34.7719 30.6284 34.3987Z" fill="#544E38"/>
</svg>
