<svg width="232" height="183" viewBox="0 0 232 183" fill="none" xmlns="http://www.w3.org/2000/svg">
<mask id="mask0_158_825" style="mask-type:luminance" maskUnits="userSpaceOnUse" x="0" y="0" width="232" height="183">
<path d="M0 0.406738H231.759V183H0V0.406738Z" fill="white"/>
</mask>
<g mask="url(#mask0_158_825)">
<path fill-rule="evenodd" clip-rule="evenodd" d="M124.522 3.443C176.27 1.43909 222.815 31.6336 229.014 73.8718C237.822 133.921 172.26 185.309 93.2073 181.288C72.1726 180.222 52.026 170.997 36.2746 158.002C9.68743 143.846 0.0536228 121.456 1.66823 98.1021C3.50708 71.5419 19.9222 43.7385 42.3114 25.5403C62.1441 9.41397 95.5126 -2.09322 124.522 3.443ZM26.2551 148.587C11.8582 133.201 3.3815 114.718 4.92435 98.4893C8.68279 59.009 43.1995 23.3598 89.2426 10.4805C89.2964 10.1068 89.6193 9.76719 90.1037 9.61096C97.9884 7.03645 105.927 5.29746 113.803 4.31249C88.4263 2.8724 61.3279 13.2723 44.4104 27.028C22.4518 44.8797 6.35058 72.16 4.53864 98.2176C3.23798 116.98 9.40039 135.123 26.2551 148.587ZM136.864 5.76617C143.063 6.22809 149.351 7.10437 155.666 8.43579C149.584 7.07041 143.305 6.16016 136.864 5.76617ZM225.452 99.155C224.484 101.899 223.255 104.603 221.739 107.239C211.226 125.586 195.546 138.207 175.534 150.7C135.636 175.63 96.7415 181.193 48.9134 163.62C48.2137 163.355 47.5051 163.09 46.8323 162.825C60.5026 172.023 76.6487 178.265 93.4047 179.114C159.388 182.47 215.756 146.332 225.452 99.155ZM139.735 8.20483C140.318 8.53768 140.479 9.14904 140.112 9.62454C139.708 10.1408 138.829 10.3174 138.138 10.0117C136.165 9.12187 134.147 8.34748 132.101 7.67498C67.4813 5.00537 12.5489 48.7585 7.79475 98.6456C6.17118 115.641 15.9485 135.164 31.9421 150.74C33.9334 152.67 36.0055 154.538 38.1583 156.338C41.827 158.28 45.8187 160.06 50.1692 161.657C96.8402 178.809 134.783 173.34 173.713 149.022C193.349 136.747 208.768 124.384 219.093 106.369C229.166 88.8162 226.475 68.2745 215.37 50.5993C204.247 32.9106 184.72 18.0681 161.003 11.9681C153.854 10.1272 146.749 8.89091 139.735 8.20483Z" fill="#F3DA70"/>
</g>
</svg>
