<svg width="183" height="65" viewBox="0 0 183 65" fill="none" xmlns="http://www.w3.org/2000/svg">
<path d="M84.8774 9.38396C76.2321 9.44008 72.9512 14.289 72.9501 21.959C75.8771 20.7357 98.2082 9.8328 84.8774 9.38396C83.3951 9.39398 86.0516 9.4235 84.8774 9.38396ZM115.519 37.5038C123.881 37.7854 132.146 37.8099 140.447 37.0742C144.404 36.7228 154.986 37.3628 157.386 34.2907C150.648 31.3832 143.033 31.1427 136.393 27.3379C133.532 25.6995 129.633 23.4022 129.548 19.7177C129.423 14.2394 134.237 16.5058 137.715 17.4389C145.192 19.446 153.054 20.5514 160.672 21.9922C166.503 23.0962 180.506 22.8239 182.709 29.805C184.921 36.8145 173.872 42.0681 169.118 45.2425C161.414 50.3884 153.765 55.6436 146.014 60.7175C143.88 62.1155 139.783 65.5288 136.875 64.4034C132.815 62.8303 134.824 59.1934 136.711 56.7297C137.93 55.1405 154.085 40.9524 154.117 40.9676C152.87 40.374 145.213 42.4215 143.964 42.6103C138.868 43.3816 133.571 43.7284 128.322 43.9394C114.596 44.4889 100.235 45.2426 86.6532 42.5347C80.3068 41.2707 75.933 38.2841 70.6001 35.112C65.536 32.1005 60.3493 34.6083 54.4715 35.0783C42.3251 36.0458 29.9602 33.7578 18.8085 29.0486C11.1932 25.8313 -5.75494 16.0574 2.994 5.92386C5.27737 3.27782 9.08044 1.83027 8.31141 5.78741C7.78999 8.47163 5.68347 8.60161 6.41805 11.885C6.9463 14.2486 8.94814 15.7435 10.8251 17.058C20.1572 23.5864 34.3811 27.0174 45.5669 27.5526C49.8304 27.7561 58.3843 27.4378 62.1662 25.2952C65.5286 23.3905 63.9517 19.846 65.1682 15.7365C68.3215 5.0832 82.4441 -3.09295 93.5576 2.86454C109.659 11.4961 87.0591 26.4259 78.3558 29.5925C85.3754 37.92 105.87 37.179 115.519 37.5038Z" fill="#FDE464"/>
</svg>
