<svg width="38" height="37" viewBox="0 0 38 37" fill="none" xmlns="http://www.w3.org/2000/svg">
<path fill-rule="evenodd" clip-rule="evenodd" d="M28.6374 30.5095V30.5065L28.6652 30.4402L33.2887 7.13016V7.05616C33.2887 6.47495 33.0728 5.96774 32.6072 5.66403C32.1987 5.39733 31.7285 5.37883 31.3986 5.40349C31.0915 5.43127 30.7884 5.49332 30.4952 5.58849C30.3701 5.62882 30.2466 5.67407 30.1252 5.72416L30.1051 5.73187L4.32844 15.8437L4.32073 15.8467C4.24237 15.8735 4.16566 15.9049 4.09103 15.9408C3.9077 16.0231 3.73182 16.1211 3.56532 16.2337C3.23386 16.4619 2.60332 16.9984 2.70969 17.8494C2.79757 18.5555 3.28319 19.0025 3.61157 19.2353C3.80539 19.3712 4.01378 19.4849 4.23286 19.5745L4.28219 19.5961L4.29761 19.6007L4.3084 19.6053L8.81932 21.1239C8.8039 21.406 8.83165 21.6943 8.90719 21.9795L11.1657 30.5496C11.2891 31.0168 11.5557 31.4335 11.9281 31.7414C12.3005 32.0493 12.76 32.2327 13.242 32.2661C13.724 32.2994 14.2044 32.1809 14.6156 31.9273C15.0269 31.6736 15.3483 31.2975 15.5348 30.8518L19.0622 27.0809L25.1194 31.7244L25.2057 31.7614C25.7561 32.0019 26.2694 32.0774 26.7397 32.0142C27.2099 31.9495 27.5829 31.7521 27.8635 31.5286C28.1881 31.2655 28.4467 30.9303 28.6189 30.5496L28.6313 30.5234L28.6359 30.5142L28.6374 30.5095ZM11.1426 21.3906C11.1176 21.2955 11.1235 21.1949 11.1596 21.1034C11.1956 21.0119 11.2599 20.9343 11.343 20.8818L26.6379 11.1693C26.6379 11.1693 27.5382 10.622 27.5059 11.1693C27.5059 11.1693 27.6662 11.2649 27.1837 11.7135C26.7273 12.1406 16.2825 22.2246 15.2249 23.2452C15.1661 23.3023 15.1249 23.3751 15.1062 23.4549L13.4012 29.9607L11.1426 21.389V21.3906Z" fill="white"/>
</svg>
