<svg width="87" height="88" viewBox="0 0 87 88" fill="none" xmlns="http://www.w3.org/2000/svg">
<path d="M85.3387 73.9481C83.6778 70.6195 71.1801 56.2057 56.8072 40.8661C68.0898 27.8784 77.4494 16.5549 79.3655 13.7811C84.3789 6.52823 78.5079 -4.54335 69.8698 1.98115C63.5189 6.78009 53.6011 16.2384 43.2646 26.7586C32.9282 16.2384 23.0138 6.78009 16.6595 1.98115C8.02141 -4.54335 2.14698 6.52823 7.16373 13.7811C9.0799 16.5549 18.4361 27.8784 29.7255 40.8695C15.3491 56.2091 2.8515 70.6229 1.194 73.9515C-2.14824 80.6462 1.74877 89.0154 10.1044 87.8991C14.0388 87.3715 28.5241 72.5084 43.268 56.1717C58.012 72.5084 72.4939 87.3715 76.4283 87.8991C84.7805 89.0154 88.6809 80.6462 85.3387 73.9481Z" fill="white"/>
</svg>
