<svg width="157" height="162" viewBox="0 0 157 162" fill="none" xmlns="http://www.w3.org/2000/svg">
<path d="M117.031 146.357C117.013 140.914 109.978 113.901 101.085 84.4572C124.309 74.7472 143.932 65.9718 148.245 63.5778C159.526 57.3199 159.012 38.9907 143.45 41.9411C132.007 44.1128 112.863 50.08 92.4803 57.1682C85.7524 36.6641 78.8889 17.8265 73.6703 7.40948C66.5766 -6.7525 51.6878 3.95436 53.5599 16.7214C54.2726 21.6025 59.1937 42.5238 65.5678 66.8867C36.7599 77.673 11.0166 88.4646 6.68278 91.7541C-2.0448 98.3644 -2.36562 111.869 9.31628 115.827C14.8182 117.689 43.4597 107.598 73.3967 95.7423C82.1298 126.735 91.4756 155.624 96.2928 158.869C106.521 165.753 117.068 157.309 117.031 146.357Z" fill="#3B718E"/>
</svg>
