<svg width="329" height="128" viewBox="0 0 329 128" fill="none" xmlns="http://www.w3.org/2000/svg">
<path d="M0 1.59717C0 1.15616 0.154948 0.774745 0.464848 0.464848C0.786666 0.154948 1.16808 0 1.60909 0C12.6224 0 18.0456 7.66403 23.2781 15.0778C28.2604 22.1339 32.9684 28.7967 42.3131 28.7967C51.6458 28.7967 56.3419 22.1339 61.3361 15.0778C66.5686 7.66403 71.9918 0 83.0051 0C94.0184 0 99.4298 7.66403 104.662 15.0778C109.656 22.1339 114.341 28.7967 123.697 28.7967C133.054 28.7967 137.738 22.1339 142.732 15.0778C147.965 7.66403 153.388 0 164.401 0C175.414 0 180.826 7.66403 186.07 15.0778C191.052 22.1339 195.737 28.7967 205.093 28.7967C214.45 28.7967 219.146 22.1339 224.128 15.0778C229.349 7.66403 234.772 0 245.797 0C256.822 0 262.222 7.66403 267.466 15.0778C272.448 22.1339 277.133 28.7967 286.501 28.7967C295.858 28.7967 300.542 22.1339 305.524 15.0778C310.757 7.66403 316.168 0 327.193 0C327.634 0 328.016 0.154948 328.326 0.464848C328.647 0.774745 328.802 1.15616 328.802 1.59717C328.802 2.03818 328.647 2.41959 328.326 2.72949C328.016 3.03939 327.634 3.19434 327.193 3.19434C317.849 3.19434 313.141 9.85716 308.158 16.9133C302.914 24.3389 297.503 32.003 286.489 32.003C275.488 32.003 270.053 24.3389 264.808 16.9133C259.826 9.85716 255.13 3.19434 245.797 3.19434C236.464 3.19434 231.745 9.85716 226.762 16.9133C221.518 24.3389 216.107 32.003 205.093 32.003C194.068 32.003 188.657 24.3389 183.412 16.9133C178.442 9.85716 173.734 3.19434 164.401 3.19434C155.068 3.19434 150.348 9.85716 145.366 16.9133C140.122 24.3389 134.711 32.003 123.697 32.003C112.672 32.003 107.273 24.3389 102.028 16.9133C97.0459 9.85716 92.3378 3.19434 83.0051 3.19434C73.6724 3.19434 68.9524 9.85716 63.9702 16.9133C58.7258 24.3389 53.3145 32.003 42.3131 32.003C31.2998 32.003 25.8765 24.3389 20.6321 16.9133C15.6618 9.85716 10.9418 3.19434 1.60909 3.19434C1.16808 3.19434 0.786666 3.03939 0.464848 2.72949C0.154948 2.41959 0 2.03818 0 1.59717ZM327.193 47.9985C316.168 47.9985 310.757 55.6625 305.512 63.0763C300.53 70.1682 295.822 76.7952 286.489 76.7952C277.157 76.7952 272.448 70.1324 267.454 63.0763C262.222 55.6983 256.799 47.9985 245.797 47.9985C234.784 47.9985 229.349 55.6983 224.116 63.112C219.134 70.1682 214.45 76.831 205.093 76.831C195.737 76.831 191.041 70.1682 186.058 63.112C180.826 55.6983 175.403 47.9985 164.401 47.9985C153.388 47.9985 147.977 55.6625 142.732 63.0763C137.75 70.1324 133.066 76.7952 123.697 76.7952C114.341 76.7952 109.668 70.1324 104.674 63.0763C99.4298 55.6983 94.0184 47.9985 83.0051 47.9985C71.9918 47.9985 66.5686 55.6983 61.3361 63.112C56.3419 70.1682 51.6339 76.7952 42.3131 76.7952C32.9804 76.7952 28.2604 70.1682 23.2781 63.112C18.0456 55.6983 12.6224 47.9985 1.60909 47.9985C1.16808 47.9985 0.786666 48.1535 0.464848 48.4634C0.154948 48.7733 0 49.1547 0 49.5957C0 50.0367 0.154948 50.4181 0.464848 50.728C0.786666 51.0379 1.16808 51.1928 1.60909 51.1928C10.9418 51.1928 15.6618 57.8557 20.6321 64.9118C25.8765 72.3613 31.2878 80.0015 42.3131 80.0015C53.3264 80.0015 58.7258 72.3255 63.9702 64.9118C68.9524 57.8914 73.6605 51.1928 83.0051 51.1928C92.3498 51.1928 97.0459 57.8557 102.028 64.9118C107.273 72.3255 112.684 80.0015 123.697 80.0015C134.699 80.0015 140.122 72.3255 145.366 64.9118C150.348 57.8914 155.057 51.1928 164.401 51.1928C173.734 51.1928 178.442 57.8557 183.424 64.9118C188.669 72.3255 194.092 80.0015 205.093 80.0015C216.107 80.0015 221.53 72.3255 226.762 64.9118C231.733 57.8914 236.453 51.1928 245.797 51.1928C255.13 51.1928 259.838 57.8557 264.82 64.9118C270.065 72.3255 275.488 80.0015 286.501 80.0015C297.515 80.0015 302.926 72.3255 308.158 64.9118C313.141 57.8914 317.849 51.1928 327.193 51.1928C327.634 51.1928 328.016 51.0379 328.326 50.728C328.647 50.4181 328.802 50.0367 328.802 49.5957C328.802 49.1547 328.647 48.7733 328.326 48.4634C328.016 48.1535 327.634 47.9985 327.193 47.9985ZM327.193 95.997C316.168 95.997 310.757 103.673 305.512 111.075C300.53 118.131 295.846 124.794 286.489 124.794C277.133 124.794 272.448 118.131 267.454 111.075C262.222 103.673 256.799 95.997 245.785 95.997C234.772 95.997 229.349 103.673 224.116 111.075C219.134 118.131 214.45 124.794 205.093 124.794C195.737 124.794 191.041 118.131 186.058 111.075C180.826 103.673 175.403 95.997 164.389 95.997C153.376 95.997 147.965 103.673 142.732 111.075C137.738 118.131 133.054 124.794 123.697 124.794C114.329 124.794 109.656 118.131 104.662 111.075C99.4298 103.673 94.0184 95.997 83.0051 95.997C71.9918 95.997 66.5686 103.673 61.3361 111.075C56.3419 118.131 51.6577 124.794 42.3131 124.794C32.9565 124.794 28.2604 118.131 23.2781 111.075C18.0456 103.673 12.6224 95.997 1.60909 95.997C1.16808 95.997 0.786666 96.152 0.464848 96.4619C0.154948 96.7837 0 97.1532 0 97.5942C0 98.0352 0.154948 98.4166 0.464848 98.7265C0.786666 99.0364 1.16808 99.2033 1.60909 99.2033C10.9418 99.2033 15.6618 105.866 20.6321 112.922C25.8765 120.336 31.2878 128 42.3131 128C53.3264 128 58.7258 120.336 63.9702 112.922C68.9524 105.866 73.6367 99.2033 83.0051 99.2033C92.3736 99.2033 97.0459 105.866 102.028 112.922C107.273 120.336 112.684 128 123.697 128C134.699 128 140.122 120.336 145.366 112.922C150.348 105.866 155.033 99.2033 164.389 99.2033C173.746 99.2033 178.442 105.866 183.412 112.922C188.657 120.336 194.08 128 205.093 128C216.095 128 221.518 120.336 226.762 112.922C231.733 105.866 236.429 99.2033 245.785 99.2033C255.142 99.2033 259.826 105.866 264.808 112.922C270.053 120.336 275.476 128 286.489 128C297.503 128 302.914 120.336 308.158 112.922C313.141 105.866 317.825 99.2033 327.193 99.2033C327.634 99.2033 328.016 99.0364 328.326 98.7265C328.647 98.4166 328.802 98.0352 328.802 97.5942C328.802 97.1532 328.647 96.7837 328.326 96.4619C328.016 96.152 327.634 95.997 327.193 95.997Z" fill="#F3DA70"/>
</svg>
