<svg width="32" height="37" viewBox="0 0 32 37" fill="none" xmlns="http://www.w3.org/2000/svg">
<g clip-path="url(#clip0_160_1039)">
<path d="M19.5943 22.237C19.5943 22.237 19.8524 21.9789 20.3686 21.4627C20.8848 20.9465 21.1429 19.9589 21.1429 18.4998C21.1429 17.0407 20.6267 15.795 19.5943 14.7626C18.5619 13.7303 17.3162 13.2141 15.8571 13.2141C14.3981 13.2141 13.1523 13.7303 12.12 14.7626C11.0876 15.795 10.5714 17.0407 10.5714 18.4998C10.5714 19.9589 11.0876 21.2046 12.12 22.237C13.1523 23.2693 14.3981 23.7855 15.8571 23.7855C17.3162 23.7855 18.5619 23.2693 19.5943 22.237ZM21.6177 12.7392C21.6177 12.7392 22.0135 13.1349 22.805 13.9264C23.5964 14.7179 23.9922 16.2424 23.9922 18.4998C23.9922 20.7572 23.2007 22.6774 21.6177 24.2604C20.0348 25.8434 18.1146 26.6348 15.8571 26.6348C13.5997 26.6348 11.6795 25.8434 10.0965 24.2604C8.51358 22.6774 7.7221 20.7572 7.7221 18.4998C7.7221 16.2424 8.51358 14.3221 10.0965 12.7392C11.6795 11.1562 13.5997 10.3647 15.8571 10.3647C18.1146 10.3647 20.0348 11.1562 21.6177 12.7392ZM25.6646 8.69231C25.6646 8.69231 25.7575 8.78523 25.9434 8.97105C26.1292 9.15688 26.2221 9.51132 26.2221 10.0344C26.2221 10.5575 26.0363 11.0048 25.6646 11.3765C25.293 11.7481 24.8456 11.9339 24.3225 11.9339C23.7995 11.9339 23.3521 11.7481 22.9805 11.3765C22.6088 11.0048 22.423 10.5575 22.423 10.0344C22.423 9.51132 22.6088 9.06396 22.9805 8.69231C23.3521 8.32066 23.7995 8.13484 24.3225 8.13484C24.8456 8.13484 25.293 8.32066 25.6646 8.69231ZM17.4367 5.48166C17.4367 5.48166 17.1975 5.48338 16.7192 5.48682C16.2408 5.49026 15.9535 5.49198 15.8571 5.49198C15.7608 5.49198 15.2343 5.48854 14.2776 5.48166C13.321 5.47477 12.5949 5.47477 12.0993 5.48166C11.6038 5.48854 10.9396 5.50919 10.1069 5.5436C9.27409 5.57801 8.5652 5.64683 7.98019 5.75007C7.39518 5.85331 6.90309 5.98063 6.50391 6.13205C5.81566 6.40734 5.21001 6.80652 4.68694 7.32959C4.16388 7.85266 3.76469 8.45831 3.4894 9.14655C3.33798 9.54574 3.21066 10.0378 3.10742 10.6228C3.00419 11.2078 2.93536 11.9167 2.90095 12.7495C2.86654 13.5823 2.84589 14.2464 2.83901 14.742C2.83212 15.2375 2.83212 15.9636 2.83901 16.9203C2.84589 17.8769 2.84933 18.4034 2.84933 18.4998C2.84933 18.5961 2.84589 19.1227 2.83901 20.0793C2.83212 21.036 2.83212 21.7621 2.83901 22.2576C2.84589 22.7531 2.86654 23.4173 2.90095 24.2501C2.93536 25.0828 3.00419 25.7917 3.10742 26.3767C3.21066 26.9618 3.33798 27.4538 3.4894 27.853C3.76469 28.5413 4.16388 29.1469 4.68694 29.67C5.21001 30.1931 5.81566 30.5922 6.50391 30.8675C6.90309 31.0189 7.39518 31.1463 7.98019 31.2495C8.5652 31.3527 9.27409 31.4216 10.1069 31.456C10.9396 31.4904 11.6038 31.511 12.0993 31.5179C12.5949 31.5248 13.321 31.5248 14.2776 31.5179C15.2343 31.511 15.7608 31.5076 15.8571 31.5076C15.9535 31.5076 16.48 31.511 17.4367 31.5179C18.3933 31.5248 19.1194 31.5248 19.615 31.5179C20.1105 31.511 20.7746 31.4904 21.6074 31.456C22.4402 31.4216 23.1491 31.3527 23.7341 31.2495C24.3191 31.1463 24.8112 31.0189 25.2104 30.8675C25.8986 30.5922 26.5043 30.1931 27.0273 29.67C27.5504 29.1469 27.9496 28.5413 28.2249 27.853C28.3763 27.4538 28.5036 26.9618 28.6069 26.3767C28.7101 25.7917 28.7789 25.0828 28.8133 24.2501C28.8477 23.4173 28.8684 22.7531 28.8753 22.2576C28.8822 21.7621 28.8822 21.036 28.8753 20.0793C28.8684 19.1227 28.865 18.5961 28.865 18.4998C28.865 18.4034 28.8684 17.8769 28.8753 16.9203C28.8822 15.9636 28.8822 15.2375 28.8753 14.742C28.8684 14.2464 28.8477 13.5823 28.8133 12.7495C28.7789 11.9167 28.7101 11.2078 28.6069 10.6228C28.5036 10.0378 28.3763 9.54574 28.2249 9.14655C27.9496 8.45831 27.5504 7.85266 27.0273 7.32959C26.5043 6.80652 25.8986 6.40734 25.2104 6.13205C24.8112 5.98063 24.3191 5.85331 23.7341 5.75007C23.1491 5.64683 22.4402 5.57801 21.6074 5.5436C20.7746 5.50919 20.1105 5.48854 19.615 5.48166C19.1194 5.47477 18.3933 5.47477 17.4367 5.48166ZM31.611 11.9546C31.6799 13.1659 31.7143 15.3476 31.7143 18.4998C31.7143 21.6519 31.6799 23.8337 31.611 25.045C31.4734 27.9081 30.62 30.1242 29.0508 31.6934C27.4816 33.2626 25.2654 34.116 22.4023 34.2537C21.191 34.3225 19.0093 34.3569 15.8571 34.3569C12.705 34.3569 10.5233 34.3225 9.31194 34.2537C6.44885 34.116 4.2327 33.2626 2.6635 31.6934C1.09431 30.1242 0.240885 27.9081 0.103237 25.045C0.0344122 23.8337 0 21.6519 0 18.4998C0 15.3476 0.0344122 13.1659 0.103237 11.9546C0.240885 9.0915 1.09431 6.87535 2.6635 5.30615C4.2327 3.73696 6.44885 2.88353 9.31194 2.74589C10.5233 2.67706 12.705 2.64265 15.8571 2.64265C19.0093 2.64265 21.191 2.67706 22.4023 2.74589C25.2654 2.88353 27.4816 3.73696 29.0508 5.30615C30.62 6.87535 31.4734 9.0915 31.611 11.9546Z" fill="white"/>
</g>
<defs>
<clipPath id="clip0_160_1039">
<rect width="32" height="37" fill="white" transform="matrix(1 0 0 -1 0 37)"/>
</clipPath>
</defs>
</svg>
