<svg width="45" height="45" viewBox="0 0 45 45" fill="none" xmlns="http://www.w3.org/2000/svg">
<path d="M22.4173 0C13.0613 0 10.3251 0.0096517 9.79318 0.0537737C7.87318 0.213371 6.67844 0.515676 5.37684 1.16372C4.37375 1.66182 3.58266 2.23919 2.8019 3.04856C1.38 4.52458 0.518243 6.34048 0.206286 8.49901C0.0546164 9.54691 0.0104943 9.76062 0.00153202 15.1132C-0.00191502 16.8974 0.00153202 19.2455 0.00153202 22.395C0.00153202 31.7434 0.0118731 34.4769 0.0566846 35.0077C0.211801 36.876 0.504799 38.0515 1.12527 39.3372C2.31105 41.7984 4.57575 43.646 7.24375 44.3354C8.16756 44.5733 9.18788 44.7043 10.4978 44.7663C11.0527 44.7904 16.7093 44.8077 22.3693 44.8077C28.0294 44.8077 33.6894 44.8008 34.2306 44.7732C35.7473 44.7018 36.628 44.5836 37.6018 44.332C38.9247 43.9927 40.1576 43.3688 41.2144 42.5037C42.2712 41.6386 43.1264 40.5533 43.7203 39.3234C44.3287 38.0687 44.6372 36.8485 44.7768 35.0777C44.8071 34.6917 44.8199 28.5363 44.8199 22.3892C44.8199 16.2411 44.8061 10.0971 44.7758 9.71099C44.6344 7.91164 44.3259 6.70173 43.6979 5.42288C43.1825 4.37601 42.6103 3.59422 41.7796 2.79486C40.2974 1.37881 38.4842 0.517055 36.3233 0.205443C35.2764 0.0541185 35.0679 0.009307 29.7112 0H22.4173Z" fill="url(#paint0_radial_153_586)"/>
<path d="M22.4173 0C13.0613 0 10.3251 0.0096517 9.79318 0.0537737C7.87318 0.213371 6.67844 0.515676 5.37684 1.16372C4.37375 1.66182 3.58266 2.23919 2.8019 3.04856C1.38 4.52458 0.518243 6.34048 0.206286 8.49901C0.0546164 9.54691 0.0104943 9.76062 0.00153202 15.1132C-0.00191502 16.8974 0.00153202 19.2455 0.00153202 22.395C0.00153202 31.7434 0.0118731 34.4769 0.0566846 35.0077C0.211801 36.876 0.504799 38.0515 1.12527 39.3372C2.31105 41.7984 4.57575 43.646 7.24375 44.3354C8.16756 44.5733 9.18788 44.7043 10.4978 44.7663C11.0527 44.7904 16.7093 44.8077 22.3693 44.8077C28.0294 44.8077 33.6894 44.8008 34.2306 44.7732C35.7473 44.7018 36.628 44.5836 37.6018 44.332C38.9247 43.9927 40.1576 43.3688 41.2144 42.5037C42.2712 41.6386 43.1264 40.5533 43.7203 39.3234C44.3287 38.0687 44.6372 36.8485 44.7768 35.0777C44.8071 34.6917 44.8199 28.5363 44.8199 22.3892C44.8199 16.2411 44.8061 10.0971 44.7758 9.71099C44.6344 7.91164 44.3259 6.70173 43.6979 5.42288C43.1825 4.37601 42.6103 3.59422 41.7796 2.79486C40.2974 1.37881 38.4842 0.517055 36.3233 0.205443C35.2764 0.0541185 35.0679 0.009307 29.7112 0H22.4173Z" fill="url(#paint1_radial_153_586)"/>
<path d="M22.4066 5.85995C17.9131 5.85995 17.3491 5.8796 15.5843 5.95992C13.8228 6.04058 12.6205 6.31944 11.5685 6.72861C10.4802 7.15121 9.55712 7.71653 8.63745 8.63654C7.7171 9.55621 7.15178 10.4793 6.7278 11.5672C6.3176 12.6196 6.03839 13.8223 5.95911 15.583C5.88052 17.3479 5.85983 17.9122 5.85983 22.4057C5.85983 26.8993 5.87983 27.4615 5.9598 29.2264C6.0408 30.9878 6.31967 32.1901 6.72849 33.2422C7.15144 34.3304 7.71675 35.2535 8.63676 36.1732C9.55609 37.0935 10.4792 37.6602 11.5667 38.0828C12.6195 38.492 13.8221 38.7709 15.5832 38.8515C17.3481 38.9318 17.9117 38.9515 22.4049 38.9515C26.8988 38.9515 27.461 38.9318 29.2259 38.8515C30.9873 38.7709 32.191 38.492 33.2438 38.0828C34.3317 37.6602 35.2534 37.0935 36.1727 36.1732C37.0931 35.2535 37.6584 34.3304 38.0824 33.2425C38.4891 32.1901 38.7683 30.9875 38.8511 29.2267C38.9303 27.4618 38.951 26.8993 38.951 22.4057C38.951 17.9122 38.9303 17.3482 38.8511 15.5834C38.7683 13.8219 38.4891 12.6196 38.0824 11.5676C37.6584 10.4793 37.0931 9.55621 36.1727 8.63654C35.2524 7.71618 34.332 7.15087 33.2427 6.72861C32.1879 6.31944 30.9849 6.04058 29.2235 5.95992C27.4586 5.8796 26.8967 5.85995 22.4018 5.85995H22.4066ZM20.9223 8.84164C21.3629 8.84095 21.8544 8.84164 22.4066 8.84164C26.8244 8.84164 27.348 8.8575 29.0925 8.93678C30.7057 9.01054 31.5813 9.2801 32.1645 9.50657C32.9366 9.80646 33.4871 10.165 34.0659 10.7441C34.645 11.3232 35.0035 11.8747 35.3041 12.6468C35.5305 13.2294 35.8004 14.1049 35.8739 15.7181C35.9531 17.4623 35.9704 17.9863 35.9704 22.4019C35.9704 26.8176 35.9531 27.3415 35.8739 29.0857C35.8001 30.6989 35.5305 31.5745 35.3041 32.157C35.0042 32.9292 34.645 33.479 34.0659 34.0577C33.4868 34.6368 32.937 34.9953 32.1645 35.2952C31.5819 35.5227 30.7057 35.7916 29.0925 35.8654C27.3483 35.9446 26.8244 35.9619 22.4066 35.9619C17.9886 35.9619 17.465 35.9446 15.7208 35.8654C14.1076 35.7909 13.232 35.5213 12.6484 35.2949C11.8763 34.995 11.3248 34.6365 10.7457 34.0574C10.1666 33.4783 9.80807 32.9281 9.50748 32.1557C9.28101 31.5731 9.01111 30.6976 8.93769 29.0844C8.85841 27.3402 8.84255 26.8162 8.84255 22.3978C8.84255 17.9794 8.85841 17.4582 8.93769 15.714C9.01146 14.1008 9.28101 13.2252 9.50748 12.642C9.80738 11.8699 10.1666 11.3183 10.7457 10.7392C11.3248 10.1601 11.8763 9.80164 12.6484 9.50106C13.2317 9.27355 14.1076 9.00468 15.7208 8.93057C17.2471 8.86163 17.8386 8.84095 20.9223 8.8375V8.84164ZM31.2386 11.5889C30.8459 11.5889 30.462 11.7054 30.1355 11.9236C29.8089 12.1418 29.5545 12.4519 29.4042 12.8148C29.2539 13.1776 29.2147 13.5769 29.2913 13.962C29.368 14.3472 29.5572 14.701 29.8349 14.9786C30.1127 15.2563 30.4665 15.4453 30.8517 15.5218C31.2369 15.5984 31.6361 15.559 31.9989 15.4086C32.3617 15.2582 32.6718 15.0036 32.8898 14.677C33.1079 14.3504 33.2243 13.9665 33.2241 13.5737C33.2241 12.4776 32.3348 11.5882 31.2386 11.5882V11.5889ZM22.4066 13.9088C17.7142 13.9088 13.9097 17.7133 13.9097 22.4057C13.9097 27.0982 17.7142 30.9009 22.4066 30.9009C27.0991 30.9009 30.9025 27.0982 30.9025 22.4057C30.9025 17.7133 27.0987 13.9088 22.4063 13.9088H22.4066ZM22.4066 16.8905C25.4524 16.8905 27.9219 19.3596 27.9219 22.4057C27.9219 25.4515 25.4524 27.921 22.4066 27.921C19.3605 27.921 16.8914 25.4515 16.8914 22.4057C16.8914 19.3596 19.3605 16.8905 22.4066 16.8905Z" fill="white"/>
<defs>
<radialGradient id="paint0_radial_153_586" cx="0" cy="0" r="1" gradientUnits="userSpaceOnUse" gradientTransform="translate(11.9053 48.2588) rotate(-90) scale(44.4077 41.3139)">
<stop stop-color="#FFDD55"/>
<stop offset="0.1" stop-color="#FFDD55"/>
<stop offset="0.5" stop-color="#FF543E"/>
<stop offset="1" stop-color="#C837AB"/>
</radialGradient>
<radialGradient id="paint1_radial_153_586" cx="0" cy="0" r="1" gradientUnits="userSpaceOnUse" gradientTransform="translate(-7.50757 3.22787) rotate(78.6776) scale(19.8506 81.8457)">
<stop stop-color="#3771C8"/>
<stop offset="0.128" stop-color="#3771C8"/>
<stop offset="1" stop-color="#6600FF" stop-opacity="0"/>
</radialGradient>
</defs>
</svg>
