<svg width="142" height="144" viewBox="0 0 142 144" fill="none" xmlns="http://www.w3.org/2000/svg">
<path d="M120.394 66.356C121.032 66.2106 124.012 64.6747 127.229 62.8571C128.978 65.3231 130.523 67.3917 130.917 67.8341C131.948 68.9914 134.082 68.4484 133.327 66.7024C132.771 65.4185 131.568 63.3321 130.2 61.1301C132.426 59.8017 134.453 58.5012 135.536 57.6153C137.009 56.411 135.362 54.9481 133.915 55.5037C133.362 55.7158 131.04 56.8435 128.352 58.232C126.33 55.14 124.387 52.4072 123.887 51.986C122.883 51.1372 121.292 51.4553 121.136 52.9286C121.062 53.6224 122.999 56.7132 125.177 59.9094C121.775 61.7491 118.635 63.6051 118.382 64.2551C117.844 65.6351 119.112 66.6487 120.394 66.356Z" fill="#C1B8A7"/>
<mask id="mask0_176_63" style="mask-type:luminance" maskUnits="userSpaceOnUse" x="0" y="15" width="129" height="129">
<path d="M128.392 74.9587L69.0337 143.993L-3.33403e-05 84.6346L59.3578 15.6009L128.392 74.9587Z" fill="white"/>
</mask>
<g mask="url(#mask0_176_63)">
<path d="M29.6789 50.1177C46.0429 31.0863 74.8433 28.9158 93.8747 45.2798C112.909 61.6459 115.077 90.4442 98.7127 109.476C82.3465 128.51 53.5508 130.68 34.5168 114.314C15.4854 97.9496 13.3128 69.1517 29.6789 50.1177ZM83.9805 96.8083C93.3599 85.9 92.1183 69.3936 81.2074 60.012C70.2966 50.6304 53.7905 51.8767 44.4111 62.785C35.0295 73.6959 36.2711 90.2023 47.182 99.5839C58.0929 108.965 74.5989 107.719 83.9805 96.8083Z" fill="#347BBE"/>
</g>
</svg>
