<svg width="64" height="58" viewBox="0 0 64 58" fill="none" xmlns="http://www.w3.org/2000/svg">
<mask id="mask0_105_246" style="mask-type:luminance" maskUnits="userSpaceOnUse" x="26" y="43" width="12" height="9">
<path d="M26.4845 43.1781H37.0991V51.9773H26.4845V43.1781Z" fill="white"/>
</mask>
<g mask="url(#mask0_105_246)">
<path d="M35.0968 49.917V49.2333C35.0968 49.1577 35.035 49.0951 34.9594 49.0951C34.9594 49.0951 33.3602 49.2813 31.8098 49.2813C30.2586 49.2813 28.6594 49.0951 28.6594 49.0951C28.5838 49.0951 28.522 49.1577 28.522 49.2333V49.917C28.522 51.0553 29.4423 51.9772 30.5781 51.9772H33.0407C34.1765 51.9772 35.0968 51.0553 35.0968 49.917ZM35.8789 47.9821C36.2009 47.874 36.374 47.5244 36.2667 47.2024C36.1586 46.8796 35.8106 46.7065 35.4887 46.8138C32.5838 47.7886 30.5838 47.5504 28.1122 46.8081C27.7862 46.7097 27.4439 46.8951 27.3464 47.2211C27.2488 47.5471 27.4334 47.8902 27.7586 47.9878C29.1732 48.4122 30.483 48.6886 31.887 48.6886C33.1049 48.6886 34.3927 48.4805 35.8789 47.9821ZM36.2244 46.1927C36.5635 46.0886 36.7537 45.7284 36.6496 45.3894C36.5456 45.0496 36.1854 44.8593 35.8472 44.9634C32.6594 45.9439 30.4651 45.704 27.7529 44.9577C27.4106 44.8634 27.0578 45.065 26.9635 45.4073C26.87 45.7504 27.0716 46.104 27.4131 46.1983C28.948 46.6203 30.3708 46.8951 31.8944 46.8951C33.2155 46.8951 34.6122 46.6886 36.2244 46.1927ZM31.9025 45.1414C30.2448 45.1414 28.6976 44.8902 27.0269 44.504C26.6797 44.4235 26.4626 44.0764 26.5431 43.7284C26.6236 43.3805 26.97 43.1634 27.3171 43.2439C30.2448 43.9203 32.7667 44.1577 36.2854 43.2471C36.6309 43.1577 36.983 43.3666 37.0724 43.7122C37.1618 44.0585 36.9537 44.4114 36.6082 44.5C34.857 44.9528 33.3383 45.1414 31.9025 45.1414Z" fill="#C1B8A7"/>
</g>
<mask id="mask1_105_246" style="mask-type:luminance" maskUnits="userSpaceOnUse" x="8" y="3" width="48" height="40">
<path d="M8.27319 3.90649H55.7244V42.9268H8.27319V3.90649Z" fill="white"/>
</mask>
<g mask="url(#mask1_105_246)">
<path d="M31.5334 10.9626C31.935 10.9464 32.2464 10.6065 32.2302 10.2041L31.9944 4.6049C31.9773 4.20328 31.6407 3.89027 31.2375 3.90734C30.8359 3.92442 30.5237 4.26425 30.5407 4.66669L30.7757 10.2659C30.7928 10.6569 31.1147 10.9634 31.5025 10.9634C31.5123 10.9634 31.5229 10.9634 31.5334 10.9626ZM45.4903 15.0334L49.7529 11.4041C50.0586 11.1439 50.096 10.6838 49.8359 10.3773C49.5757 10.0699 49.1155 10.0334 48.8098 10.2935L44.5481 13.9236C44.2416 14.1838 44.205 14.6439 44.4651 14.9504C44.609 15.1204 44.8131 15.2073 45.0196 15.2073C45.1863 15.2073 45.3537 15.1504 45.4903 15.0334ZM49.5163 23.8781L55.0765 23.2626C55.4757 23.2187 55.7643 22.8586 55.7204 22.4586C55.6757 22.0578 55.3147 21.7699 54.9163 21.8138L49.357 22.4285C48.957 22.4732 48.6692 22.8334 48.7131 23.2334C48.7546 23.6057 49.0692 23.8821 49.4359 23.8821C49.4627 23.8821 49.4887 23.8805 49.5163 23.8781ZM54.1489 36.3179C54.2798 35.9374 54.0789 35.522 53.6993 35.3903L48.4123 33.5594C48.0318 33.4277 47.618 33.6301 47.4863 34.0098C47.3554 34.3903 47.557 34.8049 47.9367 34.9374L53.2237 36.7683C53.3017 36.7952 53.3822 36.8082 53.4611 36.8082C53.7627 36.8082 54.0448 36.6187 54.1489 36.3179ZM21.4952 14.4683C21.8058 14.2122 21.8505 13.7529 21.596 13.4423L18.0448 9.11222C17.7895 8.80084 17.331 8.75531 17.0204 9.01141C16.7107 9.26669 16.6651 9.72604 16.9204 10.0374L20.4716 14.3675C20.6155 14.5423 20.8237 14.6334 21.0342 14.6334C21.196 14.6334 21.3594 14.5797 21.4952 14.4683ZM15.8456 21.8626C15.9602 21.4773 15.7407 21.0708 15.3554 20.9569L9.99277 19.3626C9.60659 19.248 9.20252 19.4675 9.08789 19.8537C8.97326 20.2399 9.19277 20.6456 9.57813 20.7594L14.9415 22.3545C15.0098 22.3748 15.0798 22.3846 15.1489 22.3846C15.4627 22.3846 15.7521 22.1789 15.8456 21.8626ZM9.22773 34.7935L14.544 33.0504C14.9253 32.9244 15.1334 32.513 15.009 32.1301C14.8838 31.748 14.4733 31.5391 14.0911 31.6651L8.77488 33.4082C8.39277 33.5334 8.18464 33.9447 8.30984 34.3277C8.40984 34.635 8.69439 34.8301 9.0009 34.8301C9.0757 34.8301 9.15212 34.8187 9.22773 34.7935ZM42.6107 26.409C42.6107 28.8456 41.8066 31.0951 40.4489 32.9025C39.4895 34.1805 38.6806 35.5594 38.0497 37.013C37.418 38.4675 36.9635 39.9968 36.7123 41.5756C36.5936 42.3236 35.9489 42.874 35.1936 42.874H27.9659C27.205 42.874 26.5594 42.3179 26.444 41.5651L26.3448 40.909C25.892 37.9391 24.7416 35.1212 23.0033 32.674C21.7741 30.9439 21.0399 28.8366 21.0098 26.5586C20.9302 20.613 25.7212 15.6724 31.6562 15.5903C37.6911 15.5057 42.6107 20.3813 42.6107 26.409Z" fill="#FFDD00"/>
</g>
<path d="M24.1407 20.2374C29.3106 15.4601 33.9464 16.6805 36.3692 18.9951C38.7927 21.3097 39.3277 24.6122 37.609 27.3496C35.8903 30.0878 29.9171 34.6601 25.296 32.4024C20.6749 30.1439 21.2391 22.9179 24.1407 20.2374Z" fill="#FFEA00"/>
<path d="M24.5952 22.209C24.3879 22.1634 24.2789 21.9309 24.3423 21.7277C24.5789 20.9618 25.1952 20.1537 26.1236 19.6317C26.3082 19.5285 26.9342 19.3829 27.0854 19.5309C27.6244 20.0602 26.4464 20.5846 26.261 20.6886C25.5106 21.1098 25.3423 21.4618 25.0244 21.9732C24.909 22.1594 24.7887 22.252 24.5952 22.209Z" fill="white"/>
<path d="M36.9504 28.3073C36.7463 27.9837 36.3349 27.948 36.0065 28.0862C35.6162 28.2496 35.4122 28.6301 35.3024 29.0179C35.1626 29.5106 35.104 30.0325 35.0268 30.5382C34.9813 30.8301 34.939 31.1203 34.9008 31.4122C34.687 31.6472 34.417 31.8862 34.0951 31.8098C33.7479 31.7277 33.5642 31.335 33.4601 31.0277C33.4398 30.9699 33.4219 30.9114 33.4048 30.8537C33.6691 30.5415 33.9048 30.2081 34.1073 29.8529C34.3154 29.4846 34.5544 29.035 34.4048 28.6033C34.2805 28.2439 33.9122 28.0374 33.5536 28.2073C33.1325 28.4057 33.0431 28.8919 33.03 29.3114C33.0146 29.8211 33.074 30.3301 33.2065 30.822C33.2089 30.8301 33.2113 30.8382 33.2138 30.848C33.1618 30.9065 33.1097 30.965 33.0569 31.0211C32.7764 31.3203 32.465 31.5959 32.1276 31.8293C31.7845 32.0675 31.3317 32.2683 30.9406 32.0203C30.6447 31.8325 30.4845 31.4732 30.3967 31.1463C30.3536 30.9813 30.3211 30.8122 30.2983 30.6415C30.4113 30.4935 30.5146 30.3407 30.6081 30.1943C30.8618 29.8008 31.0764 29.3821 31.2479 28.9455C31.3341 28.7285 31.4081 28.5057 31.4699 28.2805C31.5203 28.1008 31.5699 27.9081 31.5366 27.7203C31.5089 27.5642 31.4122 27.4244 31.2528 27.3829C31.0805 27.3382 30.9113 27.4277 30.7918 27.5463C30.6374 27.6959 30.5512 27.8829 30.4723 28.0797C30.3845 28.3041 30.3113 28.5333 30.2536 28.7667C30.1374 29.2455 30.0926 29.7333 30.113 30.226C30.1187 30.348 30.1268 30.4699 30.139 30.5935C30.1154 30.6236 30.0926 30.6553 30.0699 30.6854C29.8244 30.9903 29.5244 31.2894 29.1431 31.4138C28.7943 31.5252 28.4577 31.4675 28.1585 31.3138C28.117 30.9285 28.0748 30.5447 28.0292 30.1594C27.9959 29.8854 27.9618 29.6114 27.9268 29.339C27.8951 29.0894 27.8756 28.8342 27.8146 28.5894C27.7235 28.2301 27.4585 27.8545 27.0414 27.8919C26.6731 27.9252 26.5414 28.2837 26.5536 28.6073C26.5601 28.8081 26.6146 29.0033 26.6634 29.1992C26.7203 29.4236 26.7813 29.6472 26.8553 29.8667C27.0609 30.4781 27.4325 31.1073 28.0008 31.4203C28.0512 31.9024 28.0975 32.3862 28.139 32.8691C28.3073 34.7919 28.3447 36.6342 28.3951 38.5626C28.4048 38.9342 28.3861 41.5805 28.3886 42.874H28.7219C28.8065 38.4537 28.5723 35.5342 28.4057 33.4561C28.3544 32.8049 28.2447 32.152 28.178 31.5033C28.3122 31.5569 28.4536 31.5959 28.6065 31.6122C29.2544 31.6837 29.765 31.2894 30.165 30.8098C30.2008 31.0561 30.2585 31.2984 30.3536 31.5252C30.491 31.8553 30.7284 32.1626 31.0886 32.2577C31.5333 32.374 31.9723 32.1236 32.3195 31.8691C32.6618 31.6179 32.978 31.3309 33.2626 31.0163C33.3585 31.3317 33.4975 31.6553 33.7658 31.8504C34.1024 32.0951 34.504 31.9829 34.8032 31.7382C34.8244 31.7187 34.8455 31.7 34.865 31.6813C34.6317 33.4797 34.4959 35.2886 34.4601 37.1024C34.4504 37.5512 34.4504 41.4163 34.4544 42.874H34.7227C34.7162 40.5285 34.8073 34.6277 34.9837 32.8374C35.0317 32.3545 35.0861 31.8732 35.1455 31.3919C35.187 31.3455 35.2268 31.2984 35.2674 31.2512C35.4463 31.0455 35.626 30.8382 35.8057 30.6309C35.9853 30.4244 36.1642 30.2171 36.3439 30.0106C36.5065 29.822 36.6805 29.639 36.8203 29.4325C37.039 29.113 37.1756 28.6626 36.9504 28.3073ZM36.7927 29.0854C36.6276 29.4919 36.2674 29.8236 35.987 30.1504C35.7203 30.461 35.4528 30.7707 35.187 31.0813C35.2341 30.7179 35.2853 30.3537 35.3414 29.9911C35.4057 29.5756 35.4382 29.1163 35.617 28.7317C35.765 28.4122 36.0894 28.126 36.4658 28.2081C36.8609 28.2943 36.9227 28.7659 36.7927 29.0854ZM33.2081 29.6642C33.1894 29.2642 33.1593 28.6854 33.5113 28.409C33.887 28.1146 34.2715 28.4927 34.2788 28.8903C34.287 29.3138 34.0065 29.7398 33.787 30.0837C33.6553 30.2903 33.5105 30.4878 33.3561 30.6772C33.2723 30.3463 33.2235 30.0049 33.2081 29.6642ZM30.2609 29.8878C30.274 29.4439 30.3382 29.0024 30.4609 28.5756C30.5219 28.3618 30.5959 28.1472 30.6894 27.9447C30.7634 27.7829 30.9016 27.5569 31.0943 27.5236C31.3097 27.4854 31.3837 27.722 31.378 27.8911C31.3723 28.0756 31.3097 28.2577 31.2544 28.4325C31.1268 28.8382 30.9658 29.2317 30.7683 29.609C30.6227 29.887 30.4577 30.1577 30.274 30.413C30.2601 30.2382 30.2553 30.0618 30.2609 29.8878ZM27.2252 30.3309C27.0349 29.9537 26.9195 29.5447 26.8154 29.1374C26.7414 28.8512 26.5951 28.4016 26.8179 28.1455C26.952 27.9911 27.1683 28.0163 27.3268 28.1146C27.5097 28.2277 27.604 28.4277 27.6553 28.6301C27.7081 28.8415 27.7276 29.0626 27.7553 29.2789C27.7861 29.5195 27.8162 29.7602 27.8447 30.0008C27.8918 30.4016 27.9357 30.8041 27.978 31.2057C27.6577 30.9878 27.3935 30.6626 27.2252 30.3309Z" fill="#544E38"/>
</svg>
