<svg width="24" height="28" viewBox="0 0 24 28" fill="none" xmlns="http://www.w3.org/2000/svg">
<path d="M14.8281 16.8281C14.8281 16.8281 15.0234 16.6328 15.4141 16.2422C15.8047 15.8516 16 15.1042 16 14C16 12.8958 15.6094 11.9531 14.8281 11.1719C14.0469 10.3906 13.1042 10 12 10C10.8958 10 9.95312 10.3906 9.17188 11.1719C8.39062 11.9531 8 12.8958 8 14C8 15.1042 8.39062 16.0469 9.17188 16.8281C9.95312 17.6094 10.8958 18 12 18C13.1042 18 14.0469 17.6094 14.8281 16.8281ZM16.3594 9.64062C16.3594 9.64062 16.6589 9.9401 17.2578 10.5391C17.8568 11.138 18.1562 12.2917 18.1562 14C18.1562 15.7083 17.5573 17.1615 16.3594 18.3594C15.1615 19.5573 13.7083 20.1562 12 20.1562C10.2917 20.1562 8.83854 19.5573 7.64062 18.3594C6.44271 17.1615 5.84375 15.7083 5.84375 14C5.84375 12.2917 6.44271 10.8385 7.64062 9.64062C8.83854 8.44271 10.2917 7.84375 12 7.84375C13.7083 7.84375 15.1615 8.44271 16.3594 9.64062ZM19.4219 6.57812C19.4219 6.57812 19.4922 6.64844 19.6328 6.78906C19.7734 6.92969 19.8438 7.19792 19.8438 7.59375C19.8438 7.98958 19.7031 8.32812 19.4219 8.60938C19.1406 8.89062 18.8021 9.03125 18.4062 9.03125C18.0104 9.03125 17.6719 8.89062 17.3906 8.60938C17.1094 8.32812 16.9688 7.98958 16.9688 7.59375C16.9688 7.19792 17.1094 6.85938 17.3906 6.57812C17.6719 6.29688 18.0104 6.15625 18.4062 6.15625C18.8021 6.15625 19.1406 6.29688 19.4219 6.57812ZM13.1953 4.14844C13.1953 4.14844 13.0143 4.14974 12.6523 4.15234C12.2904 4.15495 12.0729 4.15625 12 4.15625C11.9271 4.15625 11.5286 4.15365 10.8047 4.14844C10.0807 4.14323 9.53125 4.14323 9.15625 4.14844C8.78125 4.15365 8.27865 4.16927 7.64844 4.19531C7.01823 4.22135 6.48177 4.27344 6.03906 4.35156C5.59635 4.42969 5.22396 4.52604 4.92188 4.64062C4.40104 4.84896 3.94271 5.15104 3.54688 5.54688C3.15104 5.94271 2.84896 6.40104 2.64062 6.92188C2.52604 7.22396 2.42969 7.59635 2.35156 8.03906C2.27344 8.48177 2.22135 9.01823 2.19531 9.64844C2.16927 10.2786 2.15365 10.7812 2.14844 11.1562C2.14323 11.5312 2.14323 12.0807 2.14844 12.8047C2.15365 13.5286 2.15625 13.9271 2.15625 14C2.15625 14.0729 2.15365 14.4714 2.14844 15.1953C2.14323 15.9193 2.14323 16.4688 2.14844 16.8438C2.15365 17.2188 2.16927 17.7214 2.19531 18.3516C2.22135 18.9818 2.27344 19.5182 2.35156 19.9609C2.42969 20.4036 2.52604 20.776 2.64062 21.0781C2.84896 21.599 3.15104 22.0573 3.54688 22.4531C3.94271 22.849 4.40104 23.151 4.92188 23.3594C5.22396 23.474 5.59635 23.5703 6.03906 23.6484C6.48177 23.7266 7.01823 23.7786 7.64844 23.8047C8.27865 23.8307 8.78125 23.8464 9.15625 23.8516C9.53125 23.8568 10.0807 23.8568 10.8047 23.8516C11.5286 23.8464 11.9271 23.8438 12 23.8438C12.0729 23.8438 12.4714 23.8464 13.1953 23.8516C13.9193 23.8568 14.4688 23.8568 14.8438 23.8516C15.2188 23.8464 15.7214 23.8307 16.3516 23.8047C16.9818 23.7786 17.5182 23.7266 17.9609 23.6484C18.4036 23.5703 18.776 23.474 19.0781 23.3594C19.599 23.151 20.0573 22.849 20.4531 22.4531C20.849 22.0573 21.151 21.599 21.3594 21.0781C21.474 20.776 21.5703 20.4036 21.6484 19.9609C21.7266 19.5182 21.7786 18.9818 21.8047 18.3516C21.8307 17.7214 21.8464 17.2188 21.8516 16.8438C21.8568 16.4688 21.8568 15.9193 21.8516 15.1953C21.8464 14.4714 21.8438 14.0729 21.8438 14C21.8438 13.9271 21.8464 13.5286 21.8516 12.8047C21.8568 12.0807 21.8568 11.5312 21.8516 11.1562C21.8464 10.7812 21.8307 10.2786 21.8047 9.64844C21.7786 9.01823 21.7266 8.48177 21.6484 8.03906C21.5703 7.59635 21.474 7.22396 21.3594 6.92188C21.151 6.40104 20.849 5.94271 20.4531 5.54688C20.0573 5.15104 19.599 4.84896 19.0781 4.64062C18.776 4.52604 18.4036 4.42969 17.9609 4.35156C17.5182 4.27344 16.9818 4.22135 16.3516 4.19531C15.7214 4.16927 15.2188 4.15365 14.8438 4.14844C14.4688 4.14323 13.9193 4.14323 13.1953 4.14844ZM23.9219 9.04688C23.974 9.96354 24 11.6146 24 14C24 16.3854 23.974 18.0365 23.9219 18.9531C23.8177 21.1198 23.1719 22.7969 21.9844 23.9844C20.7969 25.1719 19.1198 25.8177 16.9531 25.9219C16.0365 25.974 14.3854 26 12 26C9.61458 26 7.96354 25.974 7.04688 25.9219C4.88021 25.8177 3.20312 25.1719 2.01562 23.9844C0.828125 22.7969 0.182292 21.1198 0.078125 18.9531C0.0260417 18.0365 0 16.3854 0 14C0 11.6146 0.0260417 9.96354 0.078125 9.04688C0.182292 6.88021 0.828125 5.20312 2.01562 4.01562C3.20312 2.82812 4.88021 2.18229 7.04688 2.07812C7.96354 2.02604 9.61458 2 12 2C14.3854 2 16.0365 2.02604 16.9531 2.07812C19.1198 2.18229 20.7969 2.82812 21.9844 4.01562C23.1719 5.20312 23.8177 6.88021 23.9219 9.04688Z" fill="white"/>
</svg>
