<svg width="17" height="16" viewBox="0 0 17 16" fill="none" xmlns="http://www.w3.org/2000/svg">
<path d="M8.50261 0C5.16269 0 4.18588 0.00344551 3.99601 0.0191964C3.3106 0.0761703 2.8841 0.184088 2.41945 0.41543C2.06136 0.593242 1.77895 0.799357 1.50024 1.08829C0.992639 1.6152 0.685005 2.26345 0.573641 3.03401C0.519497 3.4081 0.503746 3.48439 0.500547 5.39517C0.499316 6.0321 0.500547 6.87034 0.500547 7.99468C0.500547 11.3319 0.504239 12.3077 0.520236 12.4972C0.57561 13.1642 0.680205 13.5838 0.901702 14.0428C1.32501 14.9214 2.13347 15.5809 3.08591 15.8271C3.41569 15.912 3.77993 15.9587 4.24753 15.9809C4.44565 15.9895 6.46496 15.9956 8.48551 15.9956C10.5061 15.9956 12.5266 15.9932 12.7198 15.9833C13.2612 15.9579 13.5756 15.9157 13.9233 15.8258C14.3955 15.7047 14.8356 15.482 15.2129 15.1732C15.5902 14.8643 15.8954 14.4769 16.1075 14.0379C16.3246 13.5899 16.4348 13.1543 16.4846 12.5222C16.4954 12.3844 16.5 10.187 16.5 7.99259C16.5 5.7978 16.4951 3.60449 16.4843 3.46667C16.4338 2.82433 16.3237 2.39241 16.0995 1.93588C15.9155 1.56217 15.7112 1.28308 15.4147 0.99772C14.8855 0.492215 14.2383 0.184581 13.4668 0.0733401C13.0931 0.0193194 13.0187 0.00332245 11.1064 0H8.50261Z" fill="url(#paint0_radial_45_692)"/>
<path d="M8.50261 0C5.16269 0 4.18588 0.00344551 3.99601 0.0191964C3.3106 0.0761703 2.8841 0.184088 2.41945 0.41543C2.06136 0.593242 1.77895 0.799357 1.50024 1.08829C0.992639 1.6152 0.685005 2.26345 0.573641 3.03401C0.519497 3.4081 0.503746 3.48439 0.500547 5.39517C0.499316 6.0321 0.500547 6.87034 0.500547 7.99468C0.500547 11.3319 0.504239 12.3077 0.520236 12.4972C0.57561 13.1642 0.680205 13.5838 0.901702 14.0428C1.32501 14.9214 2.13347 15.5809 3.08591 15.8271C3.41569 15.912 3.77993 15.9587 4.24753 15.9809C4.44565 15.9895 6.46496 15.9956 8.48551 15.9956C10.5061 15.9956 12.5266 15.9932 12.7198 15.9833C13.2612 15.9579 13.5756 15.9157 13.9233 15.8258C14.3955 15.7047 14.8356 15.482 15.2129 15.1732C15.5902 14.8643 15.8954 14.4769 16.1075 14.0379C16.3246 13.5899 16.4348 13.1543 16.4846 12.5222C16.4954 12.3844 16.5 10.187 16.5 7.99259C16.5 5.7978 16.4951 3.60449 16.4843 3.46667C16.4338 2.82433 16.3237 2.39241 16.0995 1.93588C15.9155 1.56217 15.7112 1.28308 15.4147 0.99772C14.8855 0.492215 14.2383 0.184581 13.4668 0.0733401C13.0931 0.0193194 13.0187 0.00332245 11.1064 0H8.50261Z" fill="url(#paint1_radial_45_692)"/>
<path d="M8.49875 2.09204C6.89462 2.09204 6.6933 2.09906 6.06327 2.12773C5.43446 2.15652 5.00525 2.25607 4.62969 2.40214C4.24121 2.553 3.91167 2.75481 3.58336 3.08324C3.25481 3.41155 3.053 3.74108 2.90165 4.12944C2.75521 4.50513 2.65554 4.93446 2.62724 5.56302C2.59918 6.19305 2.5918 6.39449 2.5918 7.99862C2.5918 9.60275 2.59893 9.80345 2.62748 10.4335C2.6564 11.0623 2.75595 11.4915 2.90189 11.8671C3.05288 12.2555 3.25469 12.5851 3.58312 12.9134C3.9113 13.2419 4.24084 13.4442 4.62908 13.5951C5.00488 13.7412 5.43422 13.8407 6.0629 13.8695C6.69293 13.8982 6.89413 13.9052 8.49813 13.9052C10.1024 13.9052 10.3031 13.8982 10.9331 13.8695C11.5619 13.8407 11.9916 13.7412 12.3674 13.5951C12.7558 13.4442 13.0848 13.2419 13.413 12.9134C13.7416 12.5851 13.9434 12.2555 14.0947 11.8672C14.2399 11.4915 14.3396 11.0622 14.3692 10.4336C14.3975 9.80358 14.4048 9.60275 14.4048 7.99862C14.4048 6.39449 14.3975 6.19318 14.3692 5.56314C14.3396 4.93434 14.2399 4.50513 14.0947 4.12957C13.9434 3.74108 13.7416 3.41155 13.413 3.08324C13.0845 2.75469 12.7559 2.55288 12.3671 2.40214C11.9905 2.25607 11.5611 2.15652 10.9323 2.12773C10.3022 2.09906 10.1016 2.09204 8.49702 2.09204H8.49875ZM7.96888 3.15646C8.12614 3.15621 8.30162 3.15646 8.49875 3.15646C10.0758 3.15646 10.2627 3.16212 10.8855 3.19042C11.4614 3.21675 11.7739 3.31298 11.9822 3.39383C12.2578 3.50088 12.4543 3.62886 12.6609 3.83559C12.8676 4.04232 12.9956 4.23921 13.1029 4.51485C13.1838 4.72281 13.2801 5.03536 13.3063 5.61126C13.3346 6.23391 13.3408 6.42095 13.3408 7.99727C13.3408 9.57359 13.3346 9.76063 13.3063 10.3833C13.28 10.9592 13.1838 11.2717 13.1029 11.4797C12.9959 11.7553 12.8676 11.9516 12.6609 12.1582C12.4542 12.3649 12.2579 12.4929 11.9822 12.6C11.7742 12.6812 11.4614 12.7772 10.8855 12.8035C10.2628 12.8318 10.0758 12.838 8.49875 12.838C6.92157 12.838 6.73465 12.8318 6.112 12.8035C5.5361 12.7769 5.22355 12.6807 5.01522 12.5998C4.73958 12.4928 4.54269 12.3648 4.33596 12.1581C4.12923 11.9514 4.00125 11.755 3.89395 11.4792C3.81311 11.2712 3.71675 10.9587 3.69054 10.3828C3.66224 9.76014 3.65658 9.57309 3.65658 7.99579C3.65658 6.41849 3.66224 6.23243 3.69054 5.60978C3.71688 5.03389 3.81311 4.72133 3.89395 4.51312C4.00101 4.23748 4.12923 4.0406 4.33596 3.83387C4.54269 3.62714 4.73958 3.49916 5.01522 3.39186C5.22343 3.31064 5.5361 3.21466 6.112 3.1882C6.65688 3.16359 6.86804 3.15621 7.96888 3.15498V3.15646ZM11.6516 4.13719C11.5114 4.13719 11.3744 4.17877 11.2578 4.25666C11.1413 4.33456 11.0504 4.44527 10.9968 4.5748C10.9431 4.70433 10.9291 4.84685 10.9565 4.98435C10.9838 5.12185 11.0514 5.24815 11.1505 5.34726C11.2497 5.44638 11.376 5.51386 11.5135 5.54119C11.651 5.56851 11.7935 5.55443 11.923 5.50075C12.0526 5.44707 12.1632 5.35618 12.2411 5.23959C12.3189 5.123 12.3605 4.98593 12.3604 4.84574C12.3604 4.45443 12.0429 4.13695 11.6516 4.13695V4.13719ZM8.49875 4.96535C6.82362 4.96535 5.46547 6.32349 5.46547 7.99862C5.46547 9.67375 6.82362 11.0313 8.49875 11.0313C10.1739 11.0313 11.5317 9.67375 11.5317 7.99862C11.5317 6.32349 10.1738 4.96535 8.49862 4.96535H8.49875ZM8.49875 6.02976C9.58605 6.02976 10.4676 6.9112 10.4676 7.99862C10.4676 9.08593 9.58605 9.96748 8.49875 9.96748C7.41132 9.96748 6.52989 9.08593 6.52989 7.99862C6.52989 6.9112 7.41132 6.02976 8.49875 6.02976Z" fill="white"/>
<defs>
<radialGradient id="paint0_radial_45_692" cx="0" cy="0" r="1" gradientUnits="userSpaceOnUse" gradientTransform="translate(4.75002 17.2276) rotate(-90) scale(15.8529 14.7484)">
<stop stop-color="#FFDD55"/>
<stop offset="0.1" stop-color="#FFDD55"/>
<stop offset="0.5" stop-color="#FF543E"/>
<stop offset="1" stop-color="#C837AB"/>
</radialGradient>
<radialGradient id="paint1_radial_45_692" cx="0" cy="0" r="1" gradientUnits="userSpaceOnUse" gradientTransform="translate(-2.18008 1.1523) rotate(78.6776) scale(7.08637 29.2177)">
<stop stop-color="#3771C8"/>
<stop offset="0.128" stop-color="#3771C8"/>
<stop offset="1" stop-color="#6600FF" stop-opacity="0"/>
</radialGradient>
</defs>
</svg>
