<svg width="77" height="134" viewBox="0 0 77 134" fill="none" xmlns="http://www.w3.org/2000/svg">
<g opacity="0.4">
<path d="M6.54468 12.763C10.9973 9.84576 15.6034 7.61946 20.363 6.08409C25.2762 4.54872 31.2642 3.78104 38.3269 3.78104C46.0037 3.78104 52.3755 5.16287 57.4423 7.92654C62.509 10.6902 66.2707 14.2983 68.7273 18.7509C71.1839 23.2035 72.4122 27.9632 72.4122 33.0299C72.4122 39.7855 70.1859 45.6967 65.7333 50.7634C61.4342 55.8302 55.9069 60.1292 49.1513 63.6606C44.3916 66.1172 41.0138 68.5738 39.0178 71.0304C37.1754 73.3334 36.1006 76.8648 35.7935 81.6244C35.64 83.1598 34.9491 84.4649 33.7208 85.5396C32.646 86.6144 31.3409 87.1518 29.8056 87.1518C28.2702 87.1518 26.9651 86.6144 25.8904 85.5396C24.8156 84.3113 24.2782 83.0063 24.2782 81.6244C24.2782 77.9395 24.6621 74.5617 25.4298 71.491C26.351 68.4202 28.1934 65.4262 30.9571 62.509C33.7208 59.5918 38.0966 56.5979 44.0845 53.5271C48.5371 51.224 52.4523 48.4604 55.8301 45.2361C59.208 41.8583 60.8969 37.7895 60.8969 33.0299C60.8969 28.1167 58.8241 23.9712 54.6786 20.5934C50.6866 17.062 45.2361 15.2963 38.3269 15.2963C32.646 15.2963 27.8096 15.9873 23.8176 17.3691C19.9792 18.5974 16.2175 20.2863 12.5326 22.4358C12.072 22.5894 11.6114 22.8197 11.1508 23.1267C10.6902 23.2803 10.1528 23.357 9.53865 23.357C8.00328 23.357 6.62144 22.8197 5.39315 21.7449C4.31839 20.5166 3.78101 19.1348 3.78101 17.5994C3.78101 15.4499 4.70223 13.8377 6.54468 12.763ZM31.1874 105.346C34.2582 105.346 36.7915 106.574 38.7875 109.031C40.7835 111.334 41.7815 114.251 41.7815 117.782C41.7815 122.081 40.7835 125.229 38.7875 127.225C36.9451 129.221 34.4885 130.219 31.4177 130.219C28.9611 130.219 26.5813 129.221 24.2782 127.225C21.9752 125.229 20.8236 122.081 20.8236 117.782C20.8236 114.098 21.7449 111.104 23.5873 108.801C25.4298 106.497 27.9631 105.346 31.1874 105.346Z" fill="#F3DA70"/>
</g>
</svg>
