<svg width="219" height="162" viewBox="0 0 219 162" fill="none" xmlns="http://www.w3.org/2000/svg">
<mask id="mask0_240_33" style="mask-type:luminance" maskUnits="userSpaceOnUse" x="0" y="0" width="219" height="162">
<path d="M0 0H219V162H0V0Z" fill="white"/>
</mask>
<g mask="url(#mask0_240_33)">
<path fill-rule="evenodd" clip-rule="evenodd" d="M117.667 2.69394C166.566 0.916042 210.549 27.7051 216.406 65.1797C224.73 118.456 162.777 164.049 88.0762 160.481C68.1994 159.535 49.1619 151.351 34.2776 139.821C9.15411 127.262 0.0506552 107.397 1.57637 86.6772C3.314 63.1125 18.8255 38.4448 39.9821 22.2991C58.723 7.99149 90.2546 -2.21789 117.667 2.69394ZM24.8097 131.468C11.2054 117.818 3.19533 101.419 4.65324 87.0207C8.20478 51.9931 40.8213 20.3645 84.3297 8.93769C84.3805 8.60622 84.6857 8.30488 85.1434 8.16627C92.594 5.88211 100.095 4.33926 107.538 3.46537C83.5583 2.18769 57.9517 11.4147 41.9655 23.6189C21.2158 39.4573 6.00096 63.6609 4.28876 86.7797C3.05971 103.426 8.88288 119.523 24.8097 131.468ZM129.33 4.7551C135.187 5.16493 141.129 5.94238 147.096 7.12363C141.349 5.91225 135.416 5.10466 129.33 4.7551ZM213.041 87.6114C212.126 90.0462 210.964 92.4448 209.532 94.7832C199.598 111.062 184.781 122.259 165.871 133.343C128.169 155.461 91.4158 160.397 46.2206 144.806C45.5595 144.571 44.8898 144.335 44.2541 144.1C57.1719 152.261 72.4291 157.799 88.2626 158.553C150.614 161.53 203.878 129.467 213.041 87.6114ZM132.042 6.91872C132.593 7.21403 132.746 7.75645 132.398 8.17832C132.017 8.63636 131.186 8.79305 130.534 8.52185C128.669 7.73234 126.762 7.04528 124.829 6.44863C63.7664 4.0801 11.858 42.8986 7.36563 87.1593C5.83144 102.238 15.0705 119.559 30.1836 133.379C32.0653 135.09 34.0233 136.748 36.0576 138.345C39.5244 140.068 43.2963 141.648 47.4073 143.064C91.509 158.281 127.363 153.43 164.15 131.854C182.705 120.964 197.275 109.995 207.031 94.0118C216.55 78.4386 214.007 60.2136 203.514 44.5319C193.003 28.8381 174.551 15.6696 152.139 10.2576C145.384 8.6243 138.671 7.52743 132.042 6.91872Z" fill="#F3DA70"/>
</g>
</svg>
