<svg width="170" height="130" viewBox="0 0 170 130" fill="none" xmlns="http://www.w3.org/2000/svg">
<g opacity="0.3" clip-path="url(#clip0_267_309)">
<path d="M119.066 82.102C111.995 82.102 105.371 79.1086 99.3514 74.2357L100.817 67.3567L100.881 67.1018C102.186 59.7777 106.326 47.4837 119.066 47.4837C128.619 47.4837 136.39 55.2548 136.39 64.8086C136.358 74.3309 128.588 82.102 119.066 82.102ZM119.066 29.9363C102.791 29.9363 90.1801 40.5096 85.0531 57.8982C77.2183 46.1463 71.2944 32.0384 67.8235 20.1591H50.3074V65.7322C50.3074 74.7132 42.9824 82.0374 34.0014 82.0374C25.0203 82.0374 17.6961 74.7132 17.6961 65.7322V20.1591H0.178422V65.7322C0.114697 84.3952 15.306 99.7131 33.9682 99.7131C52.6313 99.7131 67.8226 84.3952 67.8226 65.7322V58.0894C71.2298 65.1909 75.4017 72.3562 80.4657 78.7262L69.7327 129.171H87.6633L95.4336 92.5793C102.249 96.9424 110.084 99.6817 119.065 99.6817C138.268 99.6817 153.906 83.9492 153.906 64.7448C153.906 45.5728 138.269 29.9363 119.066 29.9363Z" fill="#F3DA70"/>
<path d="M207.377 31.9114L218.683 77.4845L231.136 31.9114H245.976L226.836 97.7713H211.995L200.244 51.911L188.524 97.739H173.683L154.542 31.88H169.383L181.835 77.4531L193.141 31.88H207.376V31.9123L207.377 31.9114ZM281.486 29.9368C262.219 29.9368 246.613 45.5733 246.613 64.8091C246.613 84.0771 262.25 99.6822 281.486 99.6822C300.754 99.6822 316.39 84.0771 316.39 64.8091C316.39 45.5419 300.754 29.9368 281.486 29.9368ZM281.486 85.3508C270.149 85.3508 260.976 76.1786 260.976 64.8414C260.976 53.5033 270.18 44.332 281.486 44.332C292.824 44.332 301.995 53.5033 301.995 64.8414C301.995 76.1471 292.824 85.3508 281.486 85.3508ZM358.779 46.6567C348.811 46.6567 340.754 54.7456 340.754 64.6816V97.739H325.817V31.9114H340.754V42.0387C340.754 42.0387 347.123 31.8791 360.212 31.8791H364.798V46.6567H358.779ZM408.907 62.2618C419.511 56.2741 426.709 44.9046 426.709 31.8791H411.772C411.772 42.8663 402.856 51.7836 391.868 51.7836H389.862V0.127708H374.926V97.7382H389.862V66.72H391.646C393.111 66.72 395.022 67.6759 395.881 68.8535L417.091 97.739H434.989L408.907 62.2618Z" fill="#F3DA70"/>
</g>
<defs>
<clipPath id="clip0_267_309">
<rect width="435" height="130" fill="white"/>
</clipPath>
</defs>
</svg>
