<svg width="141" height="42" viewBox="0 0 141 42" fill="none" xmlns="http://www.w3.org/2000/svg">
<g clip-path="url(#clip0_267_288)">
<path d="M38.4674 26.5252C36.1832 26.5252 34.0428 25.5581 32.0982 23.9838L32.5717 21.7613L32.5923 21.679C33.014 19.3127 34.3516 15.3408 38.4674 15.3408C41.554 15.3408 44.0646 17.8515 44.0646 20.9381C44.0542 24.0145 41.5438 26.5252 38.4674 26.5252ZM38.4674 9.67166C33.2094 9.67166 29.1351 13.0877 27.4787 18.7055C24.9475 14.9088 23.0336 10.3508 21.9122 6.51288H16.2532V21.2365C16.2532 24.1381 13.8867 26.5043 10.9851 26.5043C8.08353 26.5043 5.71725 24.1381 5.71725 21.2365V6.51288H0.0576817V21.2365C0.0370935 27.2661 4.94505 32.215 10.9744 32.215C17.004 32.215 21.912 27.2661 21.912 21.2365V18.7673C23.0127 21.0616 24.3606 23.3766 25.9967 25.4346L22.5291 41.7322H28.322L30.8324 29.9102C33.0343 31.3198 35.5655 32.2048 38.4671 32.2048C44.6713 32.2048 49.7234 27.122 49.7234 20.9175C49.7234 14.7235 44.6716 9.67166 38.4674 9.67166Z" fill="#6FDA44"/>
<path d="M66.9988 10.3099L70.6514 25.0335L74.6746 10.3099H79.4692L73.2856 31.5877H68.4908L64.6943 16.7713L60.9077 31.5773H56.1131L49.929 10.2998H54.7238L58.7468 25.0234L62.3994 10.2998H66.9985V10.3102L66.9988 10.3099ZM90.9415 9.67195C84.7168 9.67195 79.6751 14.7238 79.6751 20.9384C79.6751 27.1634 84.7269 32.2051 90.9415 32.2051C97.1666 32.2051 102.218 27.1634 102.218 20.9384C102.218 14.7136 97.1666 9.67195 90.9415 9.67195ZM90.9415 27.5749C87.2788 27.5749 84.3154 24.6116 84.3154 20.9488C84.3154 17.2858 87.2889 14.3227 90.9415 14.3227C94.6046 14.3227 97.5677 17.2858 97.5677 20.9488C97.5677 24.6014 94.6046 27.5749 90.9415 27.5749ZM115.913 15.0738C112.693 15.0738 110.09 17.6871 110.09 20.8972V31.5773H105.264V10.3099H110.09V13.5818C110.09 13.5818 112.147 10.2995 116.376 10.2995H117.858V15.0738H115.913ZM132.108 20.1154C135.534 18.1809 137.86 14.5077 137.86 10.2995H133.034C133.034 13.8492 130.153 16.7301 126.604 16.7301H125.955V0.0413208H121.13V31.577H125.955V21.5558H126.532C127.005 21.5558 127.622 21.8646 127.9 22.245L134.752 31.5773H140.535L132.108 20.1154Z" fill="#6FDA44"/>
</g>
<defs>
<clipPath id="clip0_267_288">
<rect width="140.562" height="42" fill="white"/>
</clipPath>
</defs>
</svg>
