<svg width="281" height="100" viewBox="0 0 281 100" fill="none" xmlns="http://www.w3.org/2000/svg">
<path d="M52.8764 32.38V33.126L53.106 32.8946L64.1977 77.6049L64.6596 79.4669L65.1653 77.6163L77.5175 32.4114H91.3102L72.4611 97.2713H58.3832L46.7286 51.7869L45.7598 51.7872L34.1356 97.239H20.0588L1.208 32.38H15.0015L27.3529 77.5849L27.8585 79.4355L28.3205 77.5735L39.5321 32.38H52.8764ZM186.254 43.7776L187.177 42.3046L187.177 42.3043L187.178 42.304L187.18 42.3L187.192 42.2814C187.203 42.2642 187.22 42.2379 187.244 42.2029C187.291 42.1328 187.363 42.0282 187.459 41.894C187.652 41.6255 187.944 41.2388 188.336 40.7732C189.12 39.8416 190.301 38.5968 191.884 37.3519C195.047 34.8633 199.806 32.3791 206.212 32.3791H210.298V46.1567H204.779C194.535 46.1567 186.254 54.47 186.254 64.6816V97.239H172.317V32.4114H186.254V42.0387V43.7776ZM254.661 61.8264L254.17 62.1036L254.504 62.5579L280.001 97.239H263.344L242.285 68.5587C241.796 67.8881 241.032 67.309 240.215 66.8984C239.398 66.4876 238.477 66.22 237.646 66.22H235.862H235.362V66.72V97.2382H221.426V0.627708H235.362V51.7836V52.2836H235.862H237.868C248.965 52.2836 258 43.4117 258.266 32.3791H272.206C272.024 45.0064 264.98 55.9999 254.661 61.8264ZM93.1134 64.8091C93.1134 45.8492 108.495 30.4368 127.486 30.4368C146.478 30.4368 161.89 45.8186 161.89 64.8091C161.89 83.8004 146.478 99.1822 127.486 99.1822C108.526 99.1822 93.1134 83.8007 93.1134 64.8091ZM106.476 64.8414C106.476 76.4547 115.872 85.8508 127.486 85.8508C139.1 85.8508 148.495 76.4228 148.495 64.8414C148.495 53.2272 139.1 43.832 127.486 43.832C115.904 43.832 106.476 53.2267 106.476 64.8414Z" fill="#F3DA70" stroke="black"/>
</svg>
