<svg width="31" height="31" viewBox="0 0 31 31" fill="none" xmlns="http://www.w3.org/2000/svg">
<path d="M22.7743 27.8236C22.7709 26.7918 21.4374 21.6714 19.7515 16.0902C24.1538 14.2497 27.8734 12.5862 28.6909 12.1324C30.8294 10.9462 30.7319 7.47182 27.782 8.03108C25.613 8.44274 21.9841 9.57386 18.1205 10.9175C16.8452 7.0308 15.5442 3.46004 14.555 1.48544C13.2103 -1.19904 10.3881 0.830503 10.743 3.25056C10.8781 4.1758 11.8109 8.14153 13.0191 12.7596C7.55844 14.8043 2.67866 16.8499 1.85716 17.4734C0.202806 18.7264 0.141993 21.2862 2.35636 22.0366C3.39928 22.3894 8.82841 20.4767 14.5031 18.2294C16.1585 24.1041 17.9301 29.5803 18.8432 30.1954C20.7821 31.5003 22.7812 29.8997 22.7743 27.8236Z" fill="#3B718E"/>
</svg>
