<svg width="77" height="97" viewBox="0 0 77 97" fill="none" xmlns="http://www.w3.org/2000/svg">
<mask id="mask0_45_183" style="mask-type:luminance" maskUnits="userSpaceOnUse" x="-37" y="0" width="98" height="97">
<path d="M60.2371 0H-36.7629V97H60.2371V0Z" fill="white"/>
</mask>
<g mask="url(#mask0_45_183)">
<path d="M11.7371 97C38.4783 97 60.2371 75.2413 60.2371 48.5C60.2371 21.7552 38.4783 0 11.7371 0C-15.0077 0 -36.7629 21.7552 -36.7629 48.5C-36.7629 75.2413 -15.0077 97 11.7371 97ZM11.7371 20.7003C27.0645 20.7003 39.5367 33.169 39.5367 48.5C39.5367 63.831 27.0645 76.2997 11.7371 76.2997C-3.5939 76.2997 -16.0661 63.831 -16.0661 48.5C-16.0661 33.169 -3.5939 20.7003 11.7371 20.7003Z" fill="#F3DA70"/>
</g>
<path d="M60.4606 18.5725C60.7716 17.9492 63.1117 15.2502 65.803 12.3779C63.6904 9.946 61.9378 7.82571 61.579 7.30631C60.6403 5.94823 61.7396 3.8751 63.3571 5.0968C64.5463 5.99539 66.4034 7.76644 68.3388 9.73633C70.2743 7.76644 72.1308 5.99539 73.3206 5.0968C74.9381 3.8751 76.038 5.94823 75.0987 7.30631C74.7399 7.82571 72.9879 9.946 70.874 12.3786C73.566 15.2509 75.9061 17.9498 76.2165 18.5731C76.8423 19.8267 76.1126 21.3938 74.548 21.1848C73.8113 21.086 71.099 18.3029 68.3382 15.2439C65.5774 18.3029 62.8657 21.086 62.129 21.1848C60.5651 21.3938 59.8347 19.8267 60.4606 18.5725Z" fill="#347BBE"/>
</svg>
