<svg width="24" height="25" viewBox="0 0 24 25" fill="none" xmlns="http://www.w3.org/2000/svg">
<path d="M23.669 20.5098C23.2083 19.5866 19.742 15.5888 15.7557 11.3344C18.8849 7.73216 21.4808 4.59157 22.0123 3.82223C23.4028 1.81063 21.7744 -1.26011 19.3786 0.549479C17.6172 1.88048 14.8664 4.50378 11.9996 7.42159C9.13275 4.50378 6.38296 1.88048 4.62057 0.549479C2.22477 -1.26011 0.595471 1.81063 1.98688 3.82223C2.51834 4.59157 5.11332 7.73216 8.24447 11.3353C4.25714 15.5898 0.790873 19.5875 0.331159 20.5107C-0.595822 22.3675 0.485026 24.6887 2.80248 24.3791C3.89371 24.2328 7.91125 20.1105 12.0005 15.5794C16.0898 20.1105 20.1064 24.2328 21.1977 24.3791C23.5142 24.6887 24.5959 22.3675 23.669 20.5098Z" fill="white"/>
</svg>
