<svg width="24" height="20" viewBox="0 0 24 20" fill="none" xmlns="http://www.w3.org/2000/svg">
<path d="M23.669 16.5008C23.2083 15.7581 19.742 12.5418 15.7557 9.11889C18.8849 6.22079 21.4808 3.69408 22.0123 3.07512C23.4028 1.45671 21.7744 -1.01381 19.3786 0.442076C17.6172 1.51291 14.8664 3.62345 11.9996 5.97093C9.13275 3.62345 6.38296 1.51291 4.62057 0.442076C2.22477 -1.01381 0.595471 1.45671 1.98688 3.07512C2.51834 3.69408 5.11332 6.22079 8.24447 9.11965C4.25714 12.5425 0.790873 15.7588 0.331159 16.5016C-0.595822 17.9954 0.485026 19.8629 2.80248 19.6138C3.89371 19.4961 7.91125 16.1796 12.0005 12.5342C16.0898 16.1796 20.1064 19.4961 21.1977 19.6138C23.5142 19.8629 24.5959 17.9954 23.669 16.5008Z" fill="#F3DA70"/>
</svg>
