<svg width="87" height="88" viewBox="0 0 87 88" fill="none" xmlns="http://www.w3.org/2000/svg">
<mask id="mask0_67_79" style="mask-type:luminance" maskUnits="userSpaceOnUse" x="1" y="0" width="86" height="88">
<path d="M16.4021 0.574951L86.3865 16.0718L71.071 87.3059L1.0866 71.8091L16.4021 0.574951Z" fill="white"/>
</mask>
<g mask="url(#mask0_67_79)">
<path d="M59.264 84.702C59.2614 84.7015 59.2614 84.7015 59.2614 84.7015C56.4884 84.0874 54.1625 82.3712 52.5366 79.7334L40.1101 59.584L20.5451 72.6494C17.9842 74.3602 15.1653 74.9372 12.3923 74.3231C8.05199 73.362 4.53178 69.6013 3.63332 64.963C2.78328 60.5815 4.5379 56.4549 8.32437 53.928L28.3671 40.5436L15.6399 19.9028C13.2353 16.0023 13.3334 11.5116 15.9046 7.88769C18.6253 4.05074 23.3698 2.11737 27.7101 3.07846C30.4856 3.69306 32.811 5.41183 34.4369 8.04971L46.8608 28.1985L66.4258 15.1331C68.9867 13.4223 71.8062 12.8428 74.5791 13.4568C78.9195 14.4179 82.4391 18.1812 83.3376 22.8195C84.1876 27.201 82.433 31.3276 78.6465 33.8545L58.6038 47.2389L71.3311 67.8797C73.7362 71.7776 73.6375 76.2709 71.0663 79.8948C68.3456 83.7318 63.6017 85.6625 59.264 84.702ZM42.0367 50.6232L57.9498 76.4277C58.6517 77.5651 59.5442 78.2605 60.5981 78.4966C62.4181 78.8996 64.6316 77.9289 65.8638 76.1944C66.6306 75.1144 67.2603 73.3655 65.9173 71.1879L49.9725 45.3277L75.0822 28.561C77.1975 27.1465 77.3397 25.2924 77.0891 23.9843C76.6809 21.8866 75.0638 20.0704 73.2438 19.6674C72.192 19.4344 71.0952 19.6893 69.9902 20.4267L44.9336 37.1619L29.0211 11.3548C28.3192 10.2173 27.4293 9.52253 26.3748 9.28903C24.5549 8.88603 22.3393 9.85359 21.1097 11.5887C20.3424 12.6713 19.7106 14.417 21.0557 16.5977L37.001 42.4554L11.8881 59.2241C9.77342 60.636 9.62858 62.4896 9.88184 63.7982C10.29 65.8959 11.9065 67.7147 13.7265 68.1177C14.7784 68.3506 15.8731 68.0926 16.9808 67.3558L42.0367 50.6232Z" fill="#F3DA70"/>
</g>
</svg>
