<svg width="136" height="213" viewBox="0 0 136 213" fill="none" xmlns="http://www.w3.org/2000/svg">
<mask id="mask0_82_382" style="mask-type:luminance" maskUnits="userSpaceOnUse" x="10" y="22" width="191" height="191">
<path d="M141.879 22.46L200.706 153.542L69.6246 212.369L10.7969 81.2876L141.879 22.46Z" fill="white"/>
</mask>
<g mask="url(#mask0_82_382)">
<path d="M40.2108 146.828C23.993 110.691 40.2008 68.0916 76.3378 51.8738C112.48 35.6539 155.075 51.8638 171.292 88.0008C187.512 124.143 171.307 166.736 135.165 182.955C99.0284 199.173 56.4307 182.97 40.2108 146.828ZM143.319 100.555C134.023 79.8421 109.61 70.5495 88.8919 79.8473C68.1743 89.1451 58.8887 113.561 68.1843 134.274C77.4821 154.992 101.896 164.284 122.613 154.987C143.331 145.689 152.617 121.273 143.319 100.555Z" fill="#F3DA70"/>
</g>
<path d="M116.645 33.4218C117.299 32.6235 119.527 27.8243 121.776 22.4454C126.344 23.8254 130.272 24.9079 131.191 25.0778C133.596 25.5227 135.731 22.7798 133.099 21.335C131.163 20.2729 127.644 18.8374 123.808 17.4166C125.296 13.6063 126.564 10.0235 127.056 7.87066C127.726 4.94396 124.258 4.71479 122.992 6.80787C122.508 7.60773 120.705 11.2611 118.7 15.5931C113.186 13.6972 108.119 12.1717 107.089 12.1303C105.015 12.0448 103.34 13.9813 104.571 15.9688C105.152 16.9045 110.557 18.882 116.366 20.7576C113.906 26.3436 111.79 31.6959 112.103 32.7514C112.769 34.9916 115.33 35.0282 116.645 33.4218Z" fill="#347BBE"/>
</svg>
