<svg width="117" height="102" viewBox="0 0 117 102" fill="none" xmlns="http://www.w3.org/2000/svg">
<mask id="mask0_45_556" style="mask-type:luminance" maskUnits="userSpaceOnUse" x="0" y="0" width="135" height="102">
<path d="M0 78.8184L120.122 -5.09666e-05L134.934 22.5742L14.8122 101.393L0 78.8184Z" fill="white"/>
</mask>
<g mask="url(#mask0_45_556)">
<path d="M132.32 18.6468C132.088 18.3784 130.856 19.4068 130.699 19.8703C130.655 19.9928 130.6 20.1088 130.553 20.2267C129.783 21.9205 127.778 23.2226 126.428 24.3159C125.103 25.3921 123.735 26.4302 122.257 27.2927C119.55 28.8821 116.429 29.8883 113.186 29.5319C110.546 29.2479 108.269 27.9435 106.218 26.1843C104.596 24.6044 103.194 22.8196 101.579 21.2415C101.523 21.1847 101.466 21.1354 101.413 21.0833C100.415 19.8753 99.4569 18.6809 98.5178 17.601C98.3298 17.3904 98.0641 17.498 97.7986 17.739C97.3576 17.3138 96.9223 16.8783 96.5101 16.4209C95.9842 15.8378 94.8461 17.673 94.8789 18.1122C95.2102 22.2153 95.3593 26.3445 94.9225 30.3973C94.4799 34.5741 93.5195 38.256 89.9149 40.481C83.6515 44.3503 77.1792 39.6223 71.6078 35.9258C71.0217 35.5358 69.9752 36.9504 69.9785 37.449C69.9793 38.2098 69.9875 38.9723 70.0001 39.732C69.4454 39.969 68.8408 40.8799 68.8399 41.2678C68.8363 50.0915 68.8226 61.7196 60.1029 66.0321C59.6002 66.2818 59.1022 66.4817 58.6137 66.6487C56.4606 66.5857 54.2337 65.9166 52.2021 64.7856C47.8699 62.3795 44.6453 58.3385 41.8563 54.2588C41.4861 53.7137 40.5384 55.0701 40.29 55.7072C40.16 55.5187 40.0301 55.3302 39.9032 55.1463C39.478 54.5172 38.2594 56.4386 38.2764 56.8348C38.5492 63.0797 38.1683 69.5533 36.3039 75.4176C35.1867 78.4144 33.7459 81.2029 31.4274 83.4987C28.3153 86.5692 24.2349 89.6071 19.6508 89.6367C15.4736 89.6598 11.0215 88.2672 7.52018 85.7033C6.93006 85.2691 5.45672 87.144 5.95815 87.5095C7.28558 88.4882 8.76093 89.3031 10.3087 89.9436C9.64707 89.9036 8.4718 91.4828 8.92954 91.8101C17.1537 97.7459 27.2023 91.68 32.323 85.2149C34.7653 82.1299 36.5117 78.6869 37.7203 75.0225C38.271 73.5927 38.7644 72.1137 39.2303 70.5926C40.1656 67.575 40.9857 64.486 41.4724 61.3353C43.5986 64.0536 46.0405 66.5314 49.1177 67.9647C51.8727 69.2488 54.7389 69.3447 57.3951 68.5701C60.6808 68.6312 63.7327 67.3298 66.1562 64.8048C71.5626 59.1739 71.9448 51.1169 71.8159 43.2684C78.3941 46.7716 86.2656 48.3912 92.1513 43.5477C98.4924 38.3252 99.2547 30.0121 98.8702 21.964C99.2412 22.3016 99.6109 22.6466 99.9675 23.0003C101.457 24.7673 102.996 26.5152 104.704 28.0061C105.462 28.7637 106.254 29.4862 107.112 30.1583C109.624 32.1161 112.606 33.679 115.734 33.3762C118.264 33.1314 120.68 31.8199 122.748 30.4899C126.783 27.8957 130.2 24.2449 132.052 19.6908C132.145 19.4824 132.229 19.2675 132.304 19.0508C132.386 18.8237 132.38 18.7007 132.32 18.6468ZM10.5649 90.0493C13.4941 91.2191 16.6748 91.7564 19.6414 91.4926C23.9221 91.1145 27.939 88.1983 31.0492 85.2293C26.1993 90.8824 17.6302 95.0827 10.5649 90.0493ZM40.0136 60.8969C40.0295 60.399 40.0397 59.9114 40.0439 59.4146C40.0745 59.4612 40.1126 59.5097 40.1475 59.5535C40.1097 59.9991 40.0632 60.4503 40.0136 60.8969ZM66.1152 63.4227C64.9582 64.7828 63.5642 65.6775 62.0455 66.1731C67.0401 62.4018 69.1143 56.7337 69.9687 50.6306C69.7311 55.2338 69.0825 59.9131 66.1152 63.4227ZM90.5917 43.2689C84.7831 46.4926 77.4154 43.9414 71.7584 40.5415C71.7432 39.9772 71.7311 39.4175 71.7189 38.8579C74.6604 40.8343 77.7322 42.8387 81.1006 43.6335C84.9227 44.5312 88.4159 43.1807 91.2998 40.8544C97.0473 36.2083 97.2922 27.6004 96.8387 20.1117C96.8781 20.1527 96.9218 20.1908 96.9655 20.2289C97.6123 28.2117 98.1844 39.0615 90.5917 43.2689ZM120.905 30.1498C119.167 31.0035 117.333 31.6654 115.321 31.4565C115.207 31.4444 115.095 31.4247 114.982 31.4051C115.21 31.3824 115.432 31.3503 115.66 31.3078C119.43 30.6639 122.715 28.5884 125.651 26.2747C126.506 25.5935 127.436 24.9031 128.329 24.1568C126.39 26.7178 123.763 28.7422 120.905 30.1498Z" fill="#F3DA70"/>
</g>
</svg>
