<svg width="187" height="194" viewBox="0 0 187 194" fill="none" xmlns="http://www.w3.org/2000/svg">
<mask id="mask0_45_273" style="mask-type:luminance" maskUnits="userSpaceOnUse" x="0" y="0" width="187" height="194">
<path d="M0 0H186.472V194H0V0Z" fill="white"/>
</mask>
<g mask="url(#mask0_45_273)">
<path fill-rule="evenodd" clip-rule="evenodd" d="M100.19 3.22623C141.826 1.09714 179.277 33.1779 184.264 78.0548C191.351 141.855 138.6 196.454 74.9945 192.181C58.07 191.048 41.86 181.247 29.1865 167.441C7.79454 152.4 0.0431982 128.612 1.34231 103.799C2.82184 75.5793 16.0294 46.039 34.0437 26.704C50.0011 9.57021 76.8493 -2.65584 100.19 3.22623ZM21.1248 157.437C9.54112 141.09 2.7208 121.452 3.96217 104.21C6.9862 62.2634 34.7582 24.3872 71.8044 10.7033C71.8477 10.3064 72.1076 9.9455 72.4973 9.77951C78.8413 7.04416 85.2285 5.19654 91.5653 4.15004C71.1477 2.61998 49.3443 13.6696 35.7326 28.2846C18.0647 47.2515 5.10972 76.2361 3.65183 103.921C2.60533 123.856 7.56359 143.133 21.1248 157.437ZM110.121 5.69454C115.108 6.18531 120.167 7.11633 125.248 8.53092C120.355 7.08025 115.303 6.11314 110.121 5.69454ZM181.399 104.917C180.619 107.833 179.63 110.706 178.411 113.506C169.952 133 157.336 146.41 141.234 159.682C109.132 186.169 77.8381 192.08 39.3556 173.409C38.7927 173.128 38.2225 172.846 37.6812 172.565C48.6803 182.337 61.6714 188.97 75.1532 189.872C128.243 193.437 173.597 155.041 181.399 104.917ZM112.43 8.28553C112.9 8.63918 113.029 9.28873 112.734 9.79394C112.409 10.3425 111.701 10.5301 111.146 10.2053C109.558 9.25986 107.934 8.43709 106.289 7.72259C54.2954 4.8862 10.0968 51.3726 6.2717 104.376C4.96537 122.434 12.8322 143.176 25.7006 159.725C27.3028 161.775 28.97 163.76 30.7021 165.672C33.654 167.737 36.8657 169.627 40.366 171.323C77.9174 189.547 108.446 183.737 139.769 157.899C155.568 144.858 167.974 131.722 176.282 112.582C184.387 93.9328 182.221 72.1078 173.286 53.3285C164.337 34.5347 148.625 18.765 129.543 12.2839C123.79 10.328 118.074 9.01448 112.43 8.28553Z" fill="#F3DA70"/>
</g>
</svg>
