<svg width="15" height="15" viewBox="0 0 15 15" fill="none" xmlns="http://www.w3.org/2000/svg">
<path d="M8.10573 12.0502C8.06215 12.0066 8.02758 11.9549 8.00399 11.898C7.9804 11.8411 7.96826 11.7801 7.96826 11.7185C7.96826 11.6569 7.9804 11.5959 8.00399 11.539C8.02758 11.4821 8.06215 11.4304 8.10573 11.3869L11.5247 7.96852L2.34363 7.96852C2.21931 7.96852 2.10008 7.91914 2.01217 7.83123C1.92426 7.74332 1.87488 7.62409 1.87488 7.49977C1.87488 7.37545 1.92426 7.25622 2.01217 7.16832C2.10008 7.08041 2.21931 7.03102 2.34363 7.03102L11.5247 7.03102L8.10573 3.61266C8.01778 3.52471 7.96836 3.40541 7.96836 3.28102C7.96836 3.15663 8.01778 3.03734 8.10573 2.94938C8.19369 2.86143 8.31299 2.81201 8.43738 2.81201C8.56176 2.81201 8.68106 2.86143 8.76902 2.94938L12.9878 7.16813C13.0313 7.21167 13.0659 7.26336 13.0895 7.32027C13.1131 7.37717 13.1252 7.43817 13.1252 7.49977C13.1252 7.56137 13.1131 7.62237 13.0895 7.67928C13.0659 7.73618 13.0313 7.78788 12.9878 7.83141L8.76902 12.0502C8.72548 12.0937 8.67378 12.1283 8.61688 12.1519C8.55997 12.1755 8.49898 12.1876 8.43738 12.1876C8.37577 12.1876 8.31478 12.1755 8.25787 12.1519C8.20097 12.1283 8.14927 12.0937 8.10573 12.0502Z" fill="white"/>
</svg>
