<svg width="129" height="56" viewBox="0 0 129 56" fill="none" xmlns="http://www.w3.org/2000/svg">
<path d="M-15 0.697917C-15 0.505207 -14.9323 0.338541 -14.7969 0.203125C-14.6562 0.0677077 -14.4896 0 -14.2969 0C-9.48438 0 -7.11458 3.34896 -4.82812 6.58854C-2.65104 9.67188 -0.59375 12.5833 3.48958 12.5833C7.56771 12.5833 9.61979 9.67188 11.8021 6.58854C14.0885 3.34896 16.4583 0 21.2708 0C26.0833 0 28.4479 3.34896 30.7344 6.58854C32.9167 9.67188 34.9635 12.5833 39.0521 12.5833C43.1406 12.5833 45.1875 9.67188 47.3698 6.58854C49.6562 3.34896 52.026 0 56.8385 0C61.651 0 64.0156 3.34896 66.3073 6.58854C68.4844 9.67188 70.5312 12.5833 74.6198 12.5833C78.7083 12.5833 80.7604 9.67188 82.9375 6.58854C85.2188 3.34896 87.5885 0 92.4062 0C97.224 0 99.5833 3.34896 101.875 6.58854C104.052 9.67188 106.099 12.5833 110.193 12.5833C114.281 12.5833 116.328 9.67188 118.505 6.58854C120.792 3.34896 123.156 0 127.974 0C128.167 0 128.333 0.0677077 128.469 0.203125C128.609 0.338541 128.677 0.505207 128.677 0.697917C128.677 0.890625 128.609 1.05729 128.469 1.19271C128.333 1.32813 128.167 1.39583 127.974 1.39583C123.891 1.39583 121.833 4.30729 119.656 7.39062C117.365 10.6354 115 13.9844 110.188 13.9844C105.38 13.9844 103.005 10.6354 100.714 7.39062C98.5365 4.30729 96.4844 1.39583 92.4062 1.39583C88.3281 1.39583 86.2656 4.30729 84.0885 7.39062C81.7969 10.6354 79.4323 13.9844 74.6198 13.9844C69.8021 13.9844 67.4375 10.6354 65.1458 7.39062C62.974 4.30729 60.9167 1.39583 56.8385 1.39583C52.7604 1.39583 50.6979 4.30729 48.5208 7.39062C46.2292 10.6354 43.8646 13.9844 39.0521 13.9844C34.2344 13.9844 31.875 10.6354 29.5833 7.39062C27.4062 4.30729 25.349 1.39583 21.2708 1.39583C17.1927 1.39583 15.1302 4.30729 12.9531 7.39062C10.6615 10.6354 8.29688 13.9844 3.48958 13.9844C-1.32292 13.9844 -3.69271 10.6354 -5.98438 7.39062C-8.15625 4.30729 -10.2187 1.39583 -14.2969 1.39583C-14.4896 1.39583 -14.6562 1.32813 -14.7969 1.19271C-14.9323 1.05729 -15 0.890625 -15 0.697917ZM127.974 20.974C123.156 20.974 120.792 24.3229 118.5 27.5625C116.323 30.6615 114.266 33.5573 110.188 33.5573C106.109 33.5573 104.052 30.6458 101.87 27.5625C99.5833 24.3385 97.2135 20.974 92.4062 20.974C87.5938 20.974 85.2188 24.3385 82.9323 27.5781C80.7552 30.6615 78.7083 33.5729 74.6198 33.5729C70.5312 33.5729 68.4792 30.6615 66.3021 27.5781C64.0156 24.3385 61.6458 20.974 56.8385 20.974C52.026 20.974 49.6615 24.3229 47.3698 27.5625C45.1927 30.6458 43.1458 33.5573 39.0521 33.5573C34.9635 33.5573 32.9219 30.6458 30.7396 27.5625C28.4479 24.3385 26.0833 20.974 21.2708 20.974C16.4583 20.974 14.0885 24.3385 11.8021 27.5781C9.61979 30.6615 7.5625 33.5573 3.48958 33.5573C-0.588542 33.5573 -2.65104 30.6615 -4.82812 27.5781C-7.11458 24.3385 -9.48438 20.974 -14.2969 20.974C-14.4896 20.974 -14.6562 21.0417 -14.7969 21.1771C-14.9323 21.3125 -15 21.4792 -15 21.6719C-15 21.8646 -14.9323 22.0313 -14.7969 22.1667C-14.6562 22.3021 -14.4896 22.3698 -14.2969 22.3698C-10.2187 22.3698 -8.15625 25.2812 -5.98438 28.3646C-3.69271 31.6198 -1.32812 34.9583 3.48958 34.9583C8.30208 34.9583 10.6615 31.6042 12.9531 28.3646C15.1302 25.2969 17.1875 22.3698 21.2708 22.3698C25.3542 22.3698 27.4062 25.2812 29.5833 28.3646C31.875 31.6042 34.2396 34.9583 39.0521 34.9583C43.8594 34.9583 46.2292 31.6042 48.5208 28.3646C50.6979 25.2969 52.7552 22.3698 56.8385 22.3698C60.9167 22.3698 62.974 25.2812 65.151 28.3646C67.4427 31.6042 69.8125 34.9583 74.6198 34.9583C79.4323 34.9583 81.8021 31.6042 84.0885 28.3646C86.2604 25.2969 88.3229 22.3698 92.4062 22.3698C96.4844 22.3698 98.5417 25.2812 100.719 28.3646C103.01 31.6042 105.38 34.9583 110.193 34.9583C115.005 34.9583 117.37 31.6042 119.656 28.3646C121.833 25.2969 123.891 22.3698 127.974 22.3698C128.167 22.3698 128.333 22.3021 128.469 22.1667C128.609 22.0313 128.677 21.8646 128.677 21.6719C128.677 21.4792 128.609 21.3125 128.469 21.1771C128.333 21.0417 128.167 20.974 127.974 20.974ZM127.974 41.9479C123.156 41.9479 120.792 45.3021 118.5 48.5365C116.323 51.6198 114.276 54.5312 110.188 54.5312C106.099 54.5312 104.052 51.6198 101.87 48.5365C99.5833 45.3021 97.2135 41.9479 92.401 41.9479C87.5885 41.9479 85.2188 45.3021 82.9323 48.5365C80.7552 51.6198 78.7083 54.5312 74.6198 54.5312C70.5312 54.5312 68.4792 51.6198 66.3021 48.5365C64.0156 45.3021 61.6458 41.9479 56.8333 41.9479C52.0208 41.9479 49.6562 45.3021 47.3698 48.5365C45.1875 51.6198 43.1406 54.5312 39.0521 54.5312C34.9583 54.5312 32.9167 51.6198 30.7344 48.5365C28.4479 45.3021 26.0833 41.9479 21.2708 41.9479C16.4583 41.9479 14.0885 45.3021 11.8021 48.5365C9.61979 51.6198 7.57292 54.5312 3.48958 54.5312C-0.598959 54.5312 -2.65104 51.6198 -4.82812 48.5365C-7.11458 45.3021 -9.48438 41.9479 -14.2969 41.9479C-14.4896 41.9479 -14.6562 42.0156 -14.7969 42.151C-14.9323 42.2917 -15 42.4531 -15 42.6458C-15 42.8385 -14.9323 43.0052 -14.7969 43.1406C-14.6562 43.276 -14.4896 43.349 -14.2969 43.349C-10.2187 43.349 -8.15625 46.2604 -5.98438 49.3438C-3.69271 52.5833 -1.32812 55.9323 3.48958 55.9323C8.30208 55.9323 10.6615 52.5833 12.9531 49.3438C15.1302 46.2604 17.1771 43.349 21.2708 43.349C25.3646 43.349 27.4062 46.2604 29.5833 49.3438C31.875 52.5833 34.2396 55.9323 39.0521 55.9323C43.8594 55.9323 46.2292 52.5833 48.5208 49.3438C50.6979 46.2604 52.7448 43.349 56.8333 43.349C60.9219 43.349 62.974 46.2604 65.1458 49.3438C67.4375 52.5833 69.8073 55.9323 74.6198 55.9323C79.4271 55.9323 81.7969 52.5833 84.0885 49.3438C86.2604 46.2604 88.3125 43.349 92.401 43.349C96.4896 43.349 98.5365 46.2604 100.714 49.3438C103.005 52.5833 105.375 55.9323 110.188 55.9323C115 55.9323 117.365 52.5833 119.656 49.3438C121.833 46.2604 123.88 43.349 127.974 43.349C128.167 43.349 128.333 43.276 128.469 43.1406C128.609 43.0052 128.677 42.8385 128.677 42.6458C128.677 42.4531 128.609 42.2917 128.469 42.151C128.333 42.0156 128.167 41.9479 127.974 41.9479Z" fill="#F3DA70"/>
</svg>
