<svg width="24" height="21" viewBox="0 0 24 21" fill="none" xmlns="http://www.w3.org/2000/svg">
<mask id="mask0_45_66" style="mask-type:luminance" maskUnits="userSpaceOnUse" x="0" y="0" width="24" height="21">
<path d="M0 0.549316H24V20.4507H0V0.549316Z" fill="white"/>
</mask>
<g mask="url(#mask0_45_66)">
<path d="M14.5178 16.3148C14.4038 16.2582 14.2881 16.2773 14.1732 16.3078C14.1471 16.3148 14.1193 16.3382 14.108 16.3617C14.1028 16.3739 14.1315 16.4061 14.1497 16.4226C14.1715 16.4418 14.2002 16.4522 14.2246 16.4688C14.2315 16.4731 14.2359 16.4835 14.2411 16.4914C14.2237 16.4992 14.2054 16.5149 14.1889 16.5131C14.1506 16.5096 14.1106 16.5036 14.0758 16.4879C13.9114 16.4113 13.7722 16.4879 13.6303 16.5549C13.6243 16.5584 13.6251 16.6036 13.6312 16.6053C13.7217 16.6375 13.8183 16.6706 13.9105 16.6993C13.9053 16.708 13.9079 16.7271 13.9009 16.7306C13.7782 16.7898 13.6234 16.7524 13.5155 16.8576C13.3667 16.8046 13.2267 16.8977 13.0796 16.8829C13.0283 16.8785 12.9831 16.8681 12.9396 16.8411C12.8534 16.7889 12.7577 16.7724 12.6612 16.7489C12.5698 16.7263 12.4932 16.7176 12.4054 16.7515C12.341 16.7776 12.267 16.7541 12.2009 16.7611C12.0957 16.7706 11.9852 16.7419 11.8825 16.8063C11.8155 16.8489 11.7311 16.8324 11.6537 16.7976C11.5693 16.7593 11.4797 16.7541 11.397 16.8063C11.3753 16.8202 11.3527 16.8489 11.3509 16.8724C11.3492 16.8968 11.3657 16.9342 11.3857 16.9464C11.4275 16.9716 11.4771 16.9812 11.5223 17.0003C11.5371 17.0064 11.5493 17.0212 11.5623 17.0316C11.5423 17.0517 11.5249 17.0804 11.5006 17.0908C11.4449 17.1143 11.3831 17.1195 11.3266 17.0978C11.2526 17.0699 11.1795 17.0369 11.1108 16.9995C11.049 16.9647 10.9873 16.942 10.9151 16.9412C10.8724 16.9403 10.8402 16.8785 10.7828 16.9185C10.7445 16.9464 10.6854 16.9533 10.7237 17.0212C10.6584 17.0708 10.5705 17.0899 10.5218 17.1639C10.4452 17.1508 10.3591 17.1456 10.3226 17.0673C10.2895 16.9986 10.2399 16.9916 10.179 16.9916C10.0102 16.9934 9.84146 16.9968 9.67268 16.9942C9.63527 16.9942 9.59438 16.9777 9.56306 16.9568C9.51086 16.922 9.49085 16.8681 9.49085 16.8028C9.49172 16.7515 9.50738 16.7089 9.53261 16.6645C9.57524 16.5871 9.57524 16.5157 9.48998 16.4592C9.45866 16.4383 9.44126 16.3983 9.41777 16.367C9.38993 16.3313 9.3908 16.3052 9.42386 16.2669C9.46823 16.2164 9.50042 16.1538 9.53435 16.0955C9.54305 16.0799 9.54827 16.0564 9.54392 16.0407C9.53 16.0007 9.50129 16.0181 9.47432 16.0277C9.42908 16.0442 9.3647 16.0877 9.33947 16.0712C9.19766 15.9807 9.09587 16.0825 8.98103 16.1277C8.96363 16.1355 8.94449 16.1408 8.92535 16.1425C8.91926 16.1434 8.90882 16.1303 8.90621 16.1216C8.9036 16.1129 8.90534 16.099 8.91143 16.0929C8.93144 16.0729 8.95319 16.0538 8.97581 16.0372C9.00452 16.0172 9.00974 15.9885 8.99843 15.9615C8.95406 15.8615 8.95493 15.8189 9.02018 15.7762C9.11762 15.7118 9.23594 15.6718 9.27509 15.5439C9.37862 15.4874 9.47867 15.4213 9.58742 15.3769C9.70487 15.3282 9.81188 15.2542 9.92846 15.2168C10.0442 15.1785 10.1381 15.1081 10.2486 15.0672C10.3809 15.0184 10.4905 14.9332 10.5923 14.841C10.6758 14.7653 10.7776 14.727 10.8724 14.6765C10.902 14.66 10.9464 14.6739 10.9855 14.6757C10.9499 14.7522 10.8663 14.7748 10.8054 14.8218C10.6497 14.9436 10.4887 15.0576 10.3295 15.1742C10.2504 15.2316 10.2817 15.3151 10.2704 15.3891C10.2217 15.3899 10.1755 15.3934 10.1373 15.4291C10.0877 15.4761 10.0311 15.5091 9.96414 15.5231C9.93891 15.5283 9.93717 15.5465 9.95544 15.5666C9.9624 15.5735 9.96675 15.5848 9.97458 15.5874C10.0007 15.5961 10.0398 15.6161 10.052 15.6057C10.1294 15.5387 10.2364 15.4996 10.2704 15.3891C10.3217 15.396 10.3635 15.3804 10.4035 15.3464C10.7532 15.055 11.1439 14.827 11.5432 14.613C11.7242 14.5156 11.9086 14.4225 12.0765 14.3033C12.1261 14.2685 12.0582 14.2729 12.0487 14.2572C12.0287 14.2224 12.0052 14.2615 12.0313 14.2381C12.0861 14.1893 12.1113 14.1067 12.1905 14.0902C12.2131 14.0858 12.2409 14.1136 12.2679 14.1223C12.314 14.1371 12.3436 14.1284 12.3253 14.071C12.3184 14.0501 12.3262 14.0362 12.348 14.024C12.4645 13.9579 12.5846 13.9353 12.716 13.9623C12.6838 13.9971 12.6464 14.0275 12.615 14.0632C12.609 14.0693 12.6072 14.0832 12.609 14.0919C12.6107 14.0997 12.6237 14.1136 12.6255 14.1128C12.7934 14.0301 12.9822 14.011 13.1571 13.9483C13.2206 13.9249 13.2902 13.8935 13.3337 13.8457C13.4624 13.7056 13.6347 13.6612 13.8061 13.6169C13.8844 13.5969 13.9575 13.5777 14.0201 13.5246C14.0627 13.4872 14.108 13.4942 14.1541 13.5255C14.2098 13.5629 14.2689 13.5534 14.322 13.5212C14.5143 13.4046 14.7309 13.3837 14.9458 13.3637C15.0345 13.355 15.1207 13.3576 15.2077 13.3245C15.2694 13.3011 15.3521 13.2863 15.4112 13.308C15.5374 13.3533 15.6374 13.3037 15.7453 13.2602C15.9037 13.1975 16.0655 13.1584 16.2378 13.1819C16.4431 13.2106 16.631 13.1758 16.7946 13.0392C16.832 13.0087 16.8789 12.9896 16.9242 12.9687C16.9503 12.9557 16.9773 12.9504 17.006 12.9713C17.1104 13.0496 17.2087 13.0366 17.2966 12.9435C17.3296 12.9087 17.3601 12.9174 17.401 12.9322C17.4949 12.9652 17.5584 12.8652 17.648 12.8678C17.6376 12.8513 17.6289 12.8339 17.6158 12.8199C17.5958 12.7991 17.5741 12.7843 17.541 12.806C17.5175 12.8217 17.4888 12.8321 17.4601 12.8382C17.4244 12.846 17.4027 12.8086 17.4166 12.7634C17.4218 12.7451 17.4253 12.7303 17.4314 12.7121C17.4592 12.7051 17.4975 12.7112 17.5097 12.6938C17.5732 12.6007 17.6567 12.5763 17.7646 12.5859C17.8377 12.5929 17.856 12.5781 17.8742 12.465C17.8812 12.4232 17.9029 12.4267 17.9203 12.411C18.0004 12.3423 18.0143 12.2536 17.9638 12.1448C17.9595 12.137 17.9638 12.1248 17.9604 12.1161C17.9395 12.0683 17.9099 12.0578 17.8777 12.083C17.7977 12.1431 17.7376 12.2188 17.6802 12.2988C17.6498 12.3414 17.6002 12.3545 17.548 12.3484C17.5393 12.3475 17.5297 12.3423 17.5228 12.3353C17.5193 12.3319 17.5175 12.3188 17.521 12.3153C17.6846 12.1083 17.849 11.9021 18.0134 11.6968C18.0465 11.6559 18.0752 11.6567 18.0961 11.7089C18.1065 11.7359 18.1196 11.735 18.1387 11.7194C18.1866 11.6794 18.2109 11.6272 18.2309 11.5706C18.2797 11.4845 18.3275 11.3984 18.3754 11.3114C18.4911 11.2061 18.5285 11.0651 18.5572 10.9198C18.5581 10.9129 18.5476 10.9016 18.5398 10.8955C18.5085 10.8711 18.5494 10.8859 18.5189 10.912C18.5006 10.9277 18.4937 10.9712 18.4641 10.959C18.431 10.9451 18.4432 10.9059 18.4528 10.879C18.4841 10.7859 18.5215 10.6936 18.5528 10.6006C18.5859 10.5014 18.5842 10.4013 18.5128 10.3204C18.4615 10.2621 18.4571 10.2151 18.4711 10.1368C18.5302 9.79319 18.545 9.45215 18.4023 9.11633C18.3066 8.89273 18.1726 8.72569 17.929 8.66479C17.8786 8.65174 17.8107 8.61607 17.8168 8.58127C17.8325 8.49862 17.8072 8.48557 17.7342 8.47339C17.668 8.46208 17.6063 8.4238 17.5436 8.39422C17.4549 8.35159 17.3679 8.30722 17.2635 8.30896C17.2165 8.30983 17.1591 8.29591 17.1252 8.26633C17.0425 8.19325 16.9451 8.18977 16.8459 8.1889C16.5579 8.1889 16.2699 8.19151 15.9811 8.19238C15.9428 8.19238 15.9037 8.18716 15.8654 8.18194C15.8567 8.18107 15.848 8.1715 15.8436 8.1628C15.8419 8.16106 15.8515 8.14801 15.8584 8.1454C15.8854 8.13583 15.9132 8.12713 15.942 8.12191C15.9898 8.11321 16.0411 8.13844 16.0864 8.10451C16.0411 8.05405 15.9811 8.08711 15.9289 8.07754C15.8906 8.06971 15.8445 8.07928 15.8115 8.06188C15.6792 7.99054 15.5374 8.02447 15.4078 8.04535C15.1589 8.08624 14.9127 8.05318 14.6657 8.05666C14.6413 8.05753 14.6291 8.03752 14.6369 8.01664C14.6439 8.00011 14.6535 7.97749 14.6665 7.97401C14.7135 7.95922 14.7631 7.95139 14.8109 7.93921C14.8205 7.93747 14.8283 7.92964 14.8362 7.92442C14.8301 7.9192 14.8231 7.91398 14.8162 7.9105C14.8075 7.90702 14.7979 7.90354 14.7883 7.90267C14.5473 7.88353 14.3194 7.91485 14.0984 8.02447C13.9688 8.08972 13.8226 8.12539 13.686 8.1802C13.4938 8.25676 13.2928 8.3107 13.1022 8.39074C12.9369 8.45947 12.7734 8.5282 12.595 8.55604C12.5428 8.56474 12.5037 8.60041 12.4863 8.64826C12.4454 8.75962 12.3741 8.82748 12.2523 8.84923C12.2079 8.85706 12.1618 8.88925 12.127 8.92231C12.02 9.02497 11.9016 9.12154 11.8172 9.24248C11.5841 9.57656 11.2987 9.86192 11.0099 10.1455C10.9681 10.1873 10.9255 10.2317 10.8759 10.2621C10.8228 10.2952 10.7854 10.3361 10.7576 10.3909C10.7089 10.4866 10.6558 10.5658 10.5331 10.5953C10.467 10.611 10.3974 10.6884 10.3661 10.7554C10.3278 10.8363 10.2634 10.8703 10.1973 10.9111C10.1381 10.9468 10.0781 10.9816 10.025 11.0251C9.94761 11.0878 9.86408 11.1391 9.7736 11.1826C9.69443 11.2209 9.617 11.2652 9.53957 11.307C9.38471 11.3923 9.21506 11.4506 9.05237 11.521C8.94275 11.568 8.834 11.6141 8.72786 11.6663C8.70872 11.675 8.70437 11.7116 8.69306 11.7359C8.71133 11.742 8.7296 11.7481 8.74787 11.7542C8.76614 11.7611 8.79311 11.7646 8.80007 11.7777C8.82356 11.8203 8.78006 11.816 8.75918 11.8238C8.74091 11.8307 8.72003 11.8299 8.70002 11.8342C8.69132 11.836 8.68175 11.8412 8.67305 11.8464C8.57561 11.9038 8.45467 11.8534 8.35636 11.9151C8.26414 11.9717 8.16757 12.0221 8.07535 12.0787C7.99009 12.13 7.89874 12.1587 7.80043 12.1822C7.66732 12.2135 7.54378 12.2831 7.41154 12.3232C7.28974 12.3597 7.21317 12.4928 7.06353 12.4711C6.9426 12.4537 6.84081 12.5372 6.72336 12.5581C6.59112 12.5816 6.44931 12.6016 6.32751 12.6764C6.29532 12.6964 6.25269 12.7077 6.21528 12.7095C5.99691 12.719 5.79158 12.7965 5.57843 12.8286C5.46272 12.846 5.38355 12.9226 5.28002 12.9531C5.19476 12.9783 5.11559 13.0157 5.02772 12.9513C4.98161 12.9183 4.92245 12.8948 4.85894 12.9035C4.84067 12.9061 4.8224 12.9139 4.80326 12.92C4.81109 12.9374 4.81805 12.9557 4.82675 12.9722C4.8311 12.9809 4.84067 12.9861 4.84589 12.9948C4.85894 13.0166 4.89809 13.0479 4.84676 13.0592C4.72322 13.0862 4.59881 13.1262 4.477 13.0427C4.40827 12.9957 4.32301 13.0026 4.24471 13.0061C4.13248 13.0122 4.08376 12.9513 4.05331 12.8582C4.04461 12.8313 4.02025 12.8104 4.03939 12.7764C4.05679 12.746 4.042 12.7138 4.00807 12.7234C3.80884 12.7747 3.68182 12.6251 3.52609 12.5581C3.46954 12.465 3.40342 12.3797 3.32599 12.3032C3.2764 12.2553 3.28597 12.2257 3.35296 12.164C3.4156 12.1057 3.41647 12.0926 3.35818 12.0613C3.30598 12.0335 3.25378 12.0065 3.20158 11.9786C3.2094 11.9673 3.21463 11.9534 3.2242 11.9447C3.23899 11.9325 3.27205 11.916 3.27205 11.916C3.22681 11.829 3.30598 11.7481 3.28336 11.6611C3.27205 11.6176 3.26161 11.5906 3.21637 11.5793C3.19984 11.575 3.17808 11.5584 3.17373 11.5436C3.16329 11.5045 3.16242 11.4619 3.19897 11.4349C3.23725 11.4062 3.27031 11.4158 3.29293 11.461C3.30076 11.4775 3.31294 11.4984 3.3286 11.5036C3.34165 11.5088 3.36166 11.4958 3.37906 11.4906C3.32425 11.3914 3.43039 11.3549 3.45736 11.2879C3.48085 11.2296 3.52957 11.1974 3.57829 11.1617C3.6505 11.1095 3.7201 11.053 3.78535 10.9921C3.8941 10.892 3.98371 10.7615 4.10812 10.6893C4.22818 10.6188 4.33258 10.5301 4.4509 10.4596C4.57706 10.3831 4.70582 10.31 4.83284 10.2343C4.92593 10.1795 5.02946 10.1351 5.10863 10.0646C5.20781 9.97763 5.31917 9.91673 5.43314 9.85931C5.62019 9.76448 5.79419 9.65399 5.94558 9.50783C5.97951 9.47477 6.02475 9.45128 6.06825 9.42866C6.17352 9.37298 6.27531 9.31295 6.35361 9.22073C6.46497 9.20768 6.5598 9.15548 6.65289 9.09892C6.68682 9.07804 6.72597 9.06413 6.75555 9.03889C7.07571 8.76223 7.45939 8.60215 7.84567 8.44816C7.87264 8.43772 7.90396 8.42206 7.93006 8.42641C8.05621 8.44468 8.1667 8.41684 8.25979 8.32897C8.26675 8.32201 8.27806 8.31505 8.28589 8.31505C8.46076 8.32114 8.57213 8.19847 8.7035 8.11495C8.8688 8.00794 9.03149 7.89223 9.24116 7.8844C9.2777 7.88353 9.3212 7.86526 9.34904 7.8409C9.44996 7.75303 9.58046 7.74694 9.69791 7.70605C9.81884 7.66428 9.93978 7.62426 10.0564 7.56771C10.1686 7.5129 10.3017 7.49811 10.4261 7.47114C10.4835 7.45896 10.5514 7.47549 10.6019 7.45287C10.7924 7.36848 11.0099 7.38762 11.1978 7.28844C11.3257 7.22145 11.4788 7.1997 11.5763 7.07616C11.5789 7.07268 11.605 7.0866 11.618 7.0953C11.6206 7.09704 11.6102 7.11357 11.6102 7.12227C11.6119 7.16229 11.5736 7.12314 11.6024 7.14924C11.6137 7.15968 11.645 7.16403 11.6563 7.1562C11.7155 7.11444 11.7711 7.0431 11.7433 6.98307C11.6954 6.88041 11.7215 6.81429 11.7946 6.74991C11.9129 6.64725 11.9512 6.50283 11.9982 6.36363C12.0034 6.34883 11.9939 6.32621 11.9852 6.31055C11.9765 6.29576 11.9573 6.30098 11.9443 6.32447C11.9121 6.38538 11.886 6.44976 11.8494 6.50892C11.8364 6.5298 11.8051 6.54546 11.7798 6.55155C11.7659 6.5559 11.7381 6.53937 11.7294 6.52545C11.7094 6.49152 11.692 6.52893 11.7172 6.50022C11.8451 6.35319 11.8703 6.13655 12.0461 6.02171C12.0765 6.0017 12.0974 5.96081 12.1113 5.92514C12.1887 5.72243 12.274 5.52059 12.2905 5.30135C12.2975 5.20217 12.3749 5.11604 12.3471 5.01425C12.3201 4.91593 12.3462 4.82371 12.3575 4.72801C12.3662 4.65406 12.3219 4.6036 12.2496 4.5862C12.1809 4.5688 12.1731 4.55662 12.2175 4.50964C12.2349 4.49137 12.2792 4.48615 12.2653 4.45309C12.2183 4.33825 12.2357 4.21819 12.2279 4.10074C12.2262 4.07116 12.2331 4.0381 12.2218 4.012C12.1218 3.78232 12.1226 3.53001 12.0548 3.2925C12.0348 3.22029 12.0034 3.16896 11.9408 3.13068C11.9243 3.09501 11.9069 3.06195 11.8929 3.02541C11.8781 2.98191 11.8503 2.95146 11.812 2.988C11.7468 3.04977 11.6894 2.93841 11.6206 2.99148C11.5876 3.01671 11.558 2.95668 11.5458 2.92536C11.4736 2.7444 11.337 2.6139 11.2039 2.48253C11.1282 2.40771 11.0325 2.35116 10.9438 2.28851C10.9203 2.27285 10.8907 2.25719 10.8637 2.25545C10.7585 2.24588 10.6427 2.26763 10.5897 2.13974C10.4348 2.11799 10.286 2.02055 10.1277 2.06579C9.84929 2.14496 9.55349 2.07623 9.28031 2.17976C9.26204 2.18585 9.24029 2.18846 9.22115 2.18585C8.93753 2.14322 8.70437 2.28155 8.47033 2.40336C8.31982 2.48166 8.16409 2.50689 8.00227 2.5356C8.01271 2.51994 8.01532 2.49993 8.03011 2.4921C8.43553 2.28504 8.84618 2.09189 9.2951 1.99358C9.32294 1.98662 9.35078 1.97357 9.37514 1.95878C9.39167 1.94921 9.40124 1.9292 9.41342 1.91441C9.40037 1.90571 9.38819 1.88918 9.37427 1.88918C9.20375 1.87874 9.04106 1.93181 8.87663 1.96139C8.54515 2.02055 8.23543 2.15801 7.9144 2.25545C7.84132 2.27808 7.77868 2.3355 7.71256 2.37813C7.63774 2.42685 7.56988 2.50515 7.48984 2.52081C7.28104 2.56083 7.14531 2.70786 6.98436 2.81922C6.97044 2.82966 6.96435 2.85141 6.95391 2.86707C6.97218 2.87403 6.99132 2.88969 7.00698 2.88708C7.16271 2.85576 7.31845 2.81748 7.45417 2.73657C7.6273 2.63304 7.81435 2.59389 8.00227 2.5356C7.9405 2.65305 7.83001 2.68089 7.71604 2.71308C7.67863 2.72352 7.62991 2.72265 7.60555 2.74701C7.45591 2.88969 7.25059 2.91666 7.07484 3.00279C6.89736 3.08892 6.71466 3.16461 6.53022 3.23334C6.45453 3.26118 6.37971 3.28206 6.32664 3.34557C6.26661 3.41778 6.18222 3.45171 6.0987 3.47781C5.77157 3.58047 5.49665 3.76144 5.25827 4.00417C5.18867 4.07464 5.11472 4.13989 5.03816 4.20253C5.00945 4.22689 4.9703 4.24603 4.93376 4.25125C4.88678 4.25734 4.83371 4.26256 4.79543 4.22167C4.76846 4.19383 4.79282 4.10335 4.82675 4.06072C4.88591 3.9859 4.97291 3.94762 5.05469 3.92935C5.24261 3.88498 5.34527 3.73621 5.47925 3.62485C5.48795 3.61788 5.48795 3.58482 5.47925 3.57525C5.46968 3.56394 5.43923 3.55698 5.42792 3.56394C5.16518 3.73708 4.90157 3.91021 4.64144 4.08856C4.57793 4.13206 4.50919 4.17817 4.48657 4.26169C4.46569 4.33999 4.36825 4.32955 4.33432 4.39306C4.30039 4.45744 4.25254 4.49833 4.17685 4.51225C4.14379 4.51834 4.10551 4.55227 4.08811 4.58359C3.9985 4.74454 3.86104 4.84894 3.70792 4.94464C3.58525 5.02121 3.45388 5.08733 3.3634 5.21261C3.31381 5.28134 3.22506 5.31962 3.13893 5.35007C3.02322 5.39183 2.93883 5.4623 2.90664 5.59541C2.88663 5.67893 2.82486 5.74766 2.71263 5.72069C2.69523 5.71721 2.66043 5.75114 2.64564 5.77463C2.57952 5.8886 2.43423 5.91557 2.36811 6.03215C2.30982 6.13481 2.18976 6.18962 2.14017 6.30272C1.95225 6.40713 1.87829 6.61854 1.71908 6.75078C1.70864 6.75948 1.70777 6.78123 1.70255 6.79689C1.72169 6.7995 1.74779 6.81081 1.75736 6.80298C1.84001 6.73686 1.94181 6.69336 1.99836 6.59244C2.03055 6.53502 2.08101 6.48021 2.15409 6.46281C2.16453 6.52284 2.16888 6.58287 2.12538 6.62985C2.04447 6.71772 2.00184 6.82995 1.92615 6.92217C1.84001 7.0257 1.78955 7.15881 1.70168 7.26582C1.66079 7.31715 1.75214 7.36326 1.71908 7.42938C1.69385 7.47897 1.76258 7.48506 1.79042 7.49463C1.8548 7.51725 1.92528 7.52421 1.9914 7.54248C2.02968 7.55205 2.07405 7.56945 2.07492 7.61556C2.07666 7.67212 2.0262 7.66081 1.99053 7.66341C1.97052 7.66428 1.95051 7.65906 1.93137 7.66341C1.91745 7.66603 1.90614 7.67908 1.89396 7.6869C1.90266 7.69126 1.91136 7.69995 1.92006 7.69995C2.00967 7.70257 2.09841 7.70169 2.18802 7.70518C2.25327 7.70866 2.29155 7.76172 2.27763 7.83046C2.27154 7.8583 2.23935 7.88788 2.24457 7.9105C2.27154 8.02447 2.19498 8.07406 2.11494 8.11147C2.0349 8.14801 1.9479 8.17672 1.8609 8.19151C1.77128 8.20717 1.69124 8.24023 1.60946 8.27764C1.40588 8.37247 1.19621 8.40727 0.978708 8.32636C0.960438 8.3194 0.938688 8.3107 0.921288 8.31418C0.741197 8.3455 0.688126 8.23675 0.633316 8.09146C0.579375 7.94617 0.515865 7.7974 0.390584 7.6869C0.330553 7.63557 0.300973 7.56336 0.361004 7.47897C0.380144 7.45374 0.374054 7.39806 0.361004 7.36413C0.324464 7.27017 0.312283 7.1736 0.302713 7.07529C0.300103 7.05615 0.296623 7.03353 0.285313 7.01961C0.153072 6.85431 0.154812 6.62985 0.0338813 6.45933C0.0234412 6.44367 0.017351 6.42279 0.0138712 6.40365C0.00430104 6.35319 0.012131 6.30707 0.0486714 6.26618C0.0904317 6.22094 0.133062 6.22442 0.180912 6.25139C0.215713 6.2714 0.237463 6.25226 0.237463 6.22181C0.237463 6.09914 0.316633 5.99996 0.334904 5.88338C0.344473 5.82509 0.364484 5.76854 0.368834 5.71025C0.383624 5.50754 0.425384 5.39966 0.566325 5.27264C0.641146 5.20565 0.709876 5.13692 0.753377 5.04557C0.769907 5.01164 0.799487 4.98118 0.829937 4.9577C0.993499 4.8298 1.16054 4.70539 1.27625 4.52704C1.5068 4.36957 1.67732 4.14424 1.89396 3.97198C1.99401 3.89194 2.08884 3.80494 2.17845 3.71446C2.22021 3.67096 2.15757 3.67879 2.14017 3.66661C2.10102 3.63877 2.08971 3.597 2.12016 3.57612C2.23326 3.49608 2.34723 3.41691 2.46294 3.34122C2.48556 3.32643 2.52558 3.31251 2.54385 3.32295C2.59779 3.35253 2.63694 3.33948 2.67522 3.3012C2.74482 3.22986 2.82138 3.16896 2.91621 3.13155C2.94318 3.12198 2.98407 3.11067 2.99016 3.09066C3.03888 2.9358 3.17982 2.90622 3.30163 2.84532C3.36166 2.81574 3.40951 2.76006 3.46432 2.71743C3.4939 2.69307 3.52348 2.66697 3.55741 2.64783C3.62527 2.61042 3.71314 2.64696 3.77578 2.59824C3.83842 2.54952 3.8941 2.49123 3.94804 2.43381C4.06636 2.30765 4.22383 2.23544 4.37086 2.16062C4.51963 2.0858 4.66319 1.99967 4.81109 1.92137C4.89635 1.877 4.97378 1.81436 5.08079 1.87439C5.10602 1.88831 5.15648 1.86482 5.19215 1.84916C5.44619 1.73954 5.70632 1.64036 5.95167 1.51247C6.1161 1.42721 6.29619 1.36979 6.44322 1.25408C6.47715 1.22798 6.51282 1.21754 6.55371 1.22015C6.63462 1.2245 6.71031 1.21319 6.78252 1.17143C7.00002 1.04702 7.24885 1.01309 7.48201 0.936525C7.58554 0.903465 7.6969 0.892155 7.79521 0.849524C7.97791 0.769484 8.1754 0.744254 8.36332 0.684223C8.65391 0.592002 8.95319 0.626803 9.24986 0.627673C9.34817 0.627673 9.44735 0.627672 9.54653 0.631153C9.61526 0.633763 9.68834 0.628543 9.75272 0.648553C9.90845 0.696403 10.0685 0.679003 10.226 0.693793C10.2747 0.698143 10.3252 0.690313 10.3739 0.685093C10.4296 0.679873 10.4305 0.645943 10.4131 0.603313C10.4131 0.603313 10.4287 0.588522 10.4357 0.589392C10.6523 0.620712 10.8585 0.690313 11.0482 0.792974C11.1317 0.838214 11.2091 0.863444 11.2996 0.862574C11.3396 0.861704 11.3796 0.862574 11.4188 0.858224C11.5119 0.847784 11.5676 0.897375 11.6084 0.972195C11.6232 0.998295 11.638 1.02353 11.6485 1.0505C11.6833 1.13663 11.7511 1.19492 11.8146 1.25756C11.8738 1.31585 11.9382 1.35326 12.0252 1.35239C12.073 1.35239 12.1226 1.35935 12.1696 1.37066C12.2488 1.3898 12.321 1.41851 12.3488 1.50812C12.3671 1.56728 12.4062 1.61513 12.4628 1.63949C12.515 1.66124 12.5385 1.70474 12.555 1.74824C12.6029 1.87178 12.6707 1.97183 12.7995 2.02142C12.8282 2.03273 12.8369 2.07101 12.823 2.09885C12.8012 2.14409 12.8038 2.16671 12.8604 2.17454C12.9483 2.18672 13.01 2.23283 13.0083 2.32941C13.0065 2.41467 13.0405 2.48079 13.0953 2.54256C13.1223 2.57214 13.137 2.61216 13.1092 2.65044C13.0561 2.72526 13.0744 2.80182 13.1022 2.87751C13.1162 2.91405 13.131 2.95146 13.1518 2.98539C13.2562 3.15765 13.271 3.35775 13.3154 3.54654C13.3502 3.69793 13.3824 3.85279 13.3728 4.01287C13.3685 4.08769 13.4215 4.16425 13.4233 4.24081C13.432 4.5079 13.4285 4.77586 13.4302 5.04296C13.3276 5.25437 13.412 5.49536 13.3232 5.70938C13.3215 5.7146 13.3319 5.72852 13.3398 5.73287C13.3459 5.73548 13.3563 5.73026 13.365 5.72591C13.3737 5.72243 13.3815 5.71634 13.3894 5.71112C13.4503 5.6711 13.4842 5.5493 13.5721 5.60237C13.646 5.64761 13.5433 5.7233 13.5486 5.78942C13.5599 5.91122 13.465 6.00692 13.465 6.12872C13.4642 6.18875 13.4189 6.24095 13.3685 6.2714C13.2919 6.31925 13.2441 6.44541 13.1179 6.37494C13.0927 6.41322 13.0674 6.45063 13.044 6.49065C13.0431 6.49239 13.0718 6.51936 13.0831 6.51762C13.1718 6.50283 13.2475 6.60027 13.3389 6.54459C13.3946 6.59679 13.5233 6.54198 13.5268 6.67248C13.5268 6.67596 13.5634 6.68466 13.5808 6.68118C13.7965 6.6429 14.0105 6.61245 14.2237 6.69771C14.2567 6.71163 14.3011 6.69684 14.3411 6.69684C14.6587 6.69858 14.978 6.68379 15.2938 6.70902C15.5304 6.72729 15.7653 6.76383 16.0037 6.75948C16.2177 6.84474 16.4587 6.77862 16.671 6.87519C16.8224 6.87084 16.9625 6.90303 17.1008 6.97002C17.166 7.00221 17.2557 6.98655 17.3348 6.98655C17.4062 6.98655 17.4662 7.00308 17.5271 7.04745C17.7289 7.19448 17.9752 7.25451 18.1918 7.36674C18.4241 7.48854 18.6938 7.54857 18.8791 7.76172C18.9548 7.84873 19.0653 7.90702 19.1636 7.97314C19.3611 8.10451 19.4655 8.30722 19.5751 8.50558C19.5986 8.54821 19.6099 8.60041 19.6412 8.63521C19.7865 8.79442 19.8605 8.97973 19.884 9.19289C19.8944 9.28859 19.9092 9.40169 19.9666 9.47042C20.0275 9.5435 20.0545 9.58961 19.9962 9.66617C20.0284 9.78971 20.0127 9.91586 20.0058 10.0411C20.0031 10.089 20.0023 10.1499 19.9744 10.1812C19.8866 10.2795 19.877 10.3926 19.884 10.5136C19.8866 10.5527 19.8796 10.5927 19.8787 10.6319C19.8752 10.7824 19.9266 10.8207 20.0754 10.7754C20.1041 10.7659 20.1345 10.7528 20.1519 10.7833C20.1658 10.8067 20.1745 10.8407 20.1676 10.8659C20.1476 10.9416 20.1241 11.0182 20.0919 11.0895C20.0319 11.2235 20.0466 11.2244 19.9005 11.1495C19.8831 11.1408 19.8596 11.1191 19.85 11.1243C19.8248 11.1374 19.7961 11.1591 19.7874 11.1835C19.75 11.2931 19.6821 11.3975 19.6986 11.5219C19.6316 11.5175 19.5794 11.5341 19.5768 11.6098C19.576 11.6272 19.5847 11.6489 19.5977 11.6611C19.6038 11.6672 19.6316 11.6611 19.6421 11.6515C19.6786 11.6185 19.7004 11.5741 19.6986 11.5219C19.7787 11.5036 19.7882 11.4236 19.8344 11.3757C19.8631 11.3453 19.9031 11.3348 19.9431 11.3444C19.9736 11.3514 19.9918 11.3749 19.991 11.4079C19.9901 11.4714 20.0005 11.5236 20.078 11.5367C20.0884 11.5384 20.1041 11.5724 20.0988 11.5837C20.064 11.675 20.0632 11.7759 20.0066 11.8621C19.9649 11.9256 19.9196 11.9952 19.9362 12.0822C19.9405 12.1074 19.9248 12.1431 19.9066 12.1631C19.7578 12.3293 19.6482 12.532 19.4533 12.6573C19.4289 12.672 19.4072 12.6973 19.382 12.7025C19.2523 12.7329 19.1566 12.8208 19.0522 12.8922C19.0392 12.9009 19.0296 12.9148 19.0192 12.927C19.027 12.9322 19.0348 12.9391 19.0435 12.9426C19.3132 13.0366 19.5803 13.134 19.857 13.2062C20.1528 13.2837 20.4442 13.3759 20.7366 13.4629C20.7931 13.4803 20.8505 13.4985 20.9027 13.5246C21.001 13.5751 21.1046 13.6003 21.2116 13.623C21.3264 13.6473 21.4369 13.6899 21.5491 13.7265C21.577 13.7352 21.6127 13.743 21.6274 13.763C21.7327 13.9109 21.9024 13.9457 22.0537 14.0136C22.0807 14.0249 22.1138 14.031 22.1338 14.0501C22.2826 14.1954 22.4722 14.2929 22.6027 14.459C22.6454 14.513 22.7063 14.5573 22.6488 14.6365C22.6462 14.64 22.6654 14.6696 22.6758 14.6713C22.715 14.6765 22.755 14.6704 22.7941 14.6765C22.8211 14.6809 22.8629 14.6905 22.8716 14.7096C22.9238 14.8262 23.0351 14.8714 23.1282 14.9419C23.1804 14.9819 23.2248 15.0463 23.2474 15.1089C23.2987 15.2516 23.3892 15.3673 23.4727 15.4883C23.5876 15.6518 23.6833 15.8215 23.705 16.0242C23.7102 16.0677 23.7337 16.1016 23.7764 16.106C23.9034 16.1173 23.866 16.2104 23.8755 16.2817C23.8547 16.2626 23.792 16.199 23.7798 16.1877C23.7746 16.1964 23.7677 16.2051 23.7668 16.2147C23.765 16.2338 23.7616 16.2556 23.7677 16.273C23.8181 16.4061 23.8503 16.5375 23.7677 16.6706C23.7581 16.6863 23.7511 16.715 23.759 16.7271C23.8433 16.8603 23.7842 16.9942 23.7668 17.1282C23.7555 17.2126 23.8416 17.2857 23.7824 17.3831C23.7433 17.4475 23.7407 17.5336 23.7207 17.6102C23.6789 17.7764 23.6024 17.9234 23.4701 18.0365C23.3309 18.1548 23.2169 18.2853 23.2074 18.4802C23.2056 18.5028 23.1761 18.5281 23.1543 18.5463C23.1256 18.5707 23.1247 18.5977 23.1587 18.602C23.2309 18.6133 23.2909 18.6351 23.337 18.6951C23.3631 18.7282 23.4031 18.7264 23.4449 18.7238C23.4893 18.7212 23.5301 18.6472 23.5702 18.7073C23.5823 18.7255 23.5441 18.7751 23.531 18.8117C23.471 18.9813 23.3535 19.0823 23.1821 19.1449C23.0177 19.2058 22.8568 19.2867 22.708 19.3815C22.628 19.432 22.5436 19.4503 22.4609 19.4738C22.3513 19.5051 22.233 19.4877 22.1373 19.5869C22.0772 19.6495 21.9607 19.6399 21.8797 19.6217C21.7301 19.5869 21.6074 19.6547 21.4752 19.686C21.4656 19.6886 21.4578 19.6965 21.4491 19.7017C21.4595 19.7174 21.4665 19.7382 21.4804 19.7487C21.5039 19.7669 21.5335 19.7765 21.5561 19.7948C21.5665 19.8026 21.5692 19.8226 21.5709 19.8374C21.5718 19.8418 21.5561 19.8522 21.5474 19.8522C21.4787 19.8531 21.4091 19.8505 21.3403 19.8505C21.1629 19.8496 21.0193 19.9279 20.8905 20.041C20.861 20.0671 20.8679 20.0201 20.8705 20.0593C20.8705 20.0662 20.8958 20.0767 20.9097 20.0758C21.0358 20.0697 21.1663 20.108 21.289 20.0384C21.3195 20.0219 21.3664 20.0306 21.4056 20.034C21.5578 20.0506 21.6979 19.9888 21.8432 19.9618C21.8676 19.9575 21.8884 19.9279 21.9085 19.9079C21.9363 19.8792 21.9633 19.8435 22.0033 19.8809C22.0102 19.8879 21.9833 19.9296 21.9746 19.9557C21.9476 20.0375 21.811 20.041 21.8328 20.1628C21.838 20.1932 21.7719 20.2037 21.7423 20.1628C21.7153 20.1271 21.6997 20.0984 21.6553 20.1323C21.6248 20.1567 21.5953 20.1837 21.5683 20.2124C21.537 20.2463 21.5083 20.2515 21.4674 20.2272C21.3917 20.1837 21.3108 20.208 21.2351 20.2254C21.1394 20.2463 21.048 20.2855 20.9523 20.3055C20.7801 20.3411 20.6139 20.4081 20.4321 20.3925C20.3746 20.3873 20.312 20.3986 20.2581 20.4195C20.1876 20.4447 20.1267 20.4508 20.0588 20.4142C19.9866 20.3751 19.904 20.3855 19.8248 20.3873C19.5794 20.3907 19.335 20.389 19.1062 20.2785C18.9504 20.2724 18.8086 20.1785 18.6425 20.2185C18.5676 20.2359 18.4832 20.2106 18.4154 20.1645C18.3806 20.1419 18.3205 20.1715 18.3075 20.1089C18.3458 20.101 18.3849 20.0941 18.4223 20.0845C18.4389 20.0801 18.4545 20.0697 18.4702 20.0619C18.4554 20.0497 18.4406 20.0366 18.4249 20.0253C18.3928 20.0027 18.3606 19.981 18.3179 20.0053C18.2344 20.0523 18.1431 20.0349 18.0561 20.0271C17.9882 20.0219 17.9221 20.0001 17.909 19.914C17.9795 19.8661 18.0482 19.8165 18.1152 19.7635C18.1318 19.7495 18.1352 19.7121 18.1352 19.6852C18.1352 19.619 18.0935 19.5799 18.0352 19.559C17.9839 19.5407 17.9412 19.566 17.9056 19.5999C17.8603 19.6434 17.8351 19.7 17.8647 19.7565C17.8916 19.8087 17.909 19.8557 17.909 19.914C17.8716 19.9053 17.8333 19.907 17.8003 19.8887C17.7237 19.8452 17.7098 19.8026 17.7307 19.7182C17.7646 19.5816 17.7568 19.5747 17.5967 19.5964C17.588 19.5973 17.5767 19.6025 17.5715 19.599C17.5558 19.5886 17.5393 19.5764 17.5297 19.5608C17.5097 19.5294 17.5262 19.5086 17.5558 19.4955C17.5967 19.4781 17.655 19.5033 17.6698 19.4372C17.7559 19.3607 17.7881 19.2467 17.8873 19.1779C17.9264 19.151 17.8977 19.1075 17.8751 19.0753C17.8594 19.0518 17.8612 19.0344 17.8855 19.0318C18.0247 19.0161 18.1457 18.9509 18.2753 18.9056C18.3597 18.8761 18.4554 18.8143 18.5589 18.87C18.6181 18.9013 18.6425 18.836 18.6825 18.8143C18.7199 18.7943 18.7625 18.783 18.7869 18.8239C18.8225 18.8839 18.8765 18.8908 18.9365 18.8987C19.1114 18.9222 19.2671 18.8578 19.4168 18.7873C19.6134 18.6951 19.81 18.6072 20.0179 18.5481C20.064 18.535 20.1328 18.5167 20.145 18.4837C20.1858 18.3697 20.2859 18.3575 20.3746 18.3245C20.5321 18.2662 20.6748 18.187 20.8053 18.0783C20.901 17.9982 20.9906 17.9017 21.1255 17.8773C21.1959 17.8651 21.2029 17.7633 21.2786 17.7494C21.2707 17.7381 21.2638 17.7181 21.2542 17.7172C21.2046 17.7102 21.1568 17.7015 21.122 17.6607C21.115 17.6537 21.1098 17.645 21.1046 17.6372C21.0898 17.618 21.0967 17.6032 21.1255 17.6024C21.3952 17.5911 21.5866 17.4536 21.7266 17.2352C21.7867 17.2344 21.8423 17.2274 21.8719 17.1613C21.8745 17.1552 21.8754 17.1439 21.8719 17.1387C21.8676 17.1326 21.8563 17.1265 21.8493 17.1273C21.7823 17.1352 21.7414 17.1717 21.7266 17.2352C21.6779 17.2335 21.6318 17.2387 21.5839 17.2326C21.5596 17.2291 21.537 17.2126 21.5143 17.2013C21.5257 17.1865 21.5335 17.1656 21.5483 17.1561C21.5883 17.13 21.6335 17.1099 21.6744 17.0838C21.7101 17.0612 21.7275 17.029 21.6944 16.9899C21.6788 16.9716 21.6779 16.956 21.6927 16.9368C21.7362 16.8837 21.7745 16.8289 21.7849 16.7585C21.7867 16.7411 21.8014 16.7158 21.8154 16.7115C21.9868 16.6636 21.9572 16.5253 21.9667 16.4035C22.0102 16.387 22.0198 16.3487 22.0181 16.3069C22.0172 16.2887 22.012 16.2669 22.0015 16.253C21.9963 16.2469 21.9667 16.2521 21.9554 16.2617C21.9337 16.2773 21.9067 16.2956 21.9302 16.3313C21.9459 16.3548 21.9537 16.3783 21.9667 16.4035C21.9015 16.4139 21.858 16.3791 21.8058 16.3504C21.7275 16.3061 21.7266 16.3034 21.7736 16.2173C21.8145 16.1434 21.8136 16.1442 21.7553 16.0825C21.7353 16.0616 21.7223 16.0337 21.7014 16.0137C21.6013 15.9198 21.6013 15.9206 21.6431 15.8075C21.6518 15.7814 21.6666 15.7466 21.6562 15.7275C21.5996 15.624 21.5613 15.5135 21.5135 15.4073C21.47 15.3108 21.4047 15.2142 21.3247 15.1455C21.2394 15.0724 21.169 14.9732 21.0506 14.9384C20.9471 14.9088 20.8444 14.8758 20.7435 14.8375C20.6704 14.8096 20.6017 14.7705 20.5321 14.734C20.5208 14.7279 20.5164 14.7079 20.5086 14.6939C20.5269 14.687 20.5452 14.6748 20.5634 14.6748C20.633 14.6739 20.7018 14.68 20.7705 14.6783C20.7853 14.6783 20.8114 14.6591 20.8114 14.6496C20.8114 14.633 20.7983 14.6095 20.7835 14.6008C20.7418 14.5747 20.6974 14.5547 20.6539 14.5304C20.6104 14.5069 20.5321 14.553 20.5199 14.4616C20.5182 14.4512 20.4669 14.4442 20.4381 14.4434C20.4199 14.4425 20.3973 14.4495 20.3842 14.4616C20.3781 14.4669 20.3877 14.4938 20.3955 14.5086C20.4042 14.526 20.4181 14.5408 20.4312 14.5565C20.4486 14.5774 20.4477 14.5921 20.4268 14.6017C20.4173 14.6052 20.4077 14.6078 20.3981 14.6095C20.3442 14.6174 20.3059 14.5808 20.2624 14.56C20.0336 14.4521 19.7917 14.426 19.5429 14.4451C19.4168 14.5165 19.2932 14.4486 19.1697 14.4312C19.0949 14.4199 19.1471 14.3886 19.174 14.3668C19.1975 14.3468 19.1923 14.3346 19.1601 14.3311C18.9626 14.3042 18.7625 14.3059 18.5676 14.3381C18.4502 14.3572 18.3327 14.3677 18.2153 14.3746C18.1057 14.3825 17.9969 14.379 17.9082 14.4608C17.8603 14.5043 17.7968 14.4956 17.7376 14.4956C17.5889 14.4964 17.4418 14.5008 17.3087 14.5852C17.2478 14.6243 17.1739 14.62 17.1052 14.6139C17.0208 14.6061 16.952 14.6461 16.8798 14.6757C16.8328 14.6948 16.8337 14.7296 16.8494 14.7705C16.8589 14.7957 16.8833 14.827 16.8433 14.8444C16.698 14.9062 16.5744 15.0193 16.4144 15.0402C16.3152 15.0541 16.2447 15.0985 16.1986 15.1777C16.1247 15.3047 16.0098 15.3369 15.8758 15.3386C15.8889 15.2655 15.9689 15.2742 16.0063 15.2316C16.0185 15.2177 16.0255 15.1985 16.035 15.182C16.0168 15.1742 15.9976 15.1585 15.9811 15.162C15.8175 15.1907 15.6662 15.256 15.513 15.3143C15.5043 15.3177 15.5 15.3299 15.4922 15.3351C15.4713 15.3517 15.4704 15.3665 15.4887 15.3856C15.5322 15.43 15.5852 15.4622 15.6453 15.4387C15.7001 15.4169 15.7497 15.3847 15.8123 15.3934C15.7636 15.5126 15.6444 15.5526 15.5531 15.6248C15.5035 15.664 15.4539 15.6875 15.3921 15.6892C15.3295 15.691 15.279 15.7232 15.2338 15.7623C15.1833 15.8049 15.1067 15.8206 15.0867 15.8963C14.9997 15.8737 14.9745 15.9467 14.9388 15.9963C14.8979 16.0529 14.831 16.0364 14.7822 16.0659C14.7753 16.0703 14.7744 16.1016 14.7822 16.112C14.8153 16.1564 14.8658 16.1582 14.9153 16.1625C14.9327 16.1642 14.9484 16.1799 14.9649 16.1895C14.9501 16.2008 14.9354 16.2138 14.9188 16.2217C14.8571 16.2486 14.8014 16.2878 14.7248 16.2834C14.6683 16.28 14.61 16.3069 14.5526 16.3208C14.5543 16.2817 14.5647 16.2478 14.5995 16.226C14.6152 16.2164 14.6317 16.2069 14.6474 16.1982C14.6387 16.1869 14.63 16.1669 14.623 16.1677C14.5961 16.1695 14.5639 16.1712 14.5439 16.1851C14.4986 16.2182 14.5221 16.2704 14.5178 16.3148ZM11.7033 14.6765C11.8155 14.6783 11.9103 14.6217 12.0026 14.573C12.194 14.473 12.4036 14.4208 12.5976 14.3285C12.6846 14.2876 12.7864 14.2772 12.8813 14.2537C12.9517 14.2372 13.0048 14.1963 13.0474 14.1397C13.0527 14.1328 13.0587 14.1163 13.0553 14.1128C13.044 14.0997 13.0283 14.0815 13.0144 14.0815C12.9665 14.0832 12.9143 14.0806 12.8708 14.098C12.6081 14.2059 12.3471 14.3172 12.087 14.4321C11.9799 14.479 11.8764 14.5365 11.7737 14.593C11.7424 14.6104 11.7015 14.6287 11.7033 14.6765C11.5667 14.6557 11.464 14.7183 11.3744 14.8123C11.3701 14.8166 11.3692 14.8288 11.3727 14.8331C11.3779 14.841 11.3875 14.8497 11.3953 14.8497C11.4231 14.8505 11.4632 14.8584 11.4788 14.8436C11.5458 14.7766 11.6493 14.7583 11.7033 14.6765ZM19.7587 19.3172C19.7552 19.3267 19.7535 19.3328 19.7535 19.3424C19.7526 19.3694 19.6856 19.4146 19.7621 19.4207C19.8979 19.4329 20.0388 19.4537 20.1502 19.3372C20.1676 19.318 20.2067 19.305 20.2311 19.3102C20.339 19.3319 20.3103 19.2049 20.3772 19.1823C20.4025 19.1736 20.3973 19.1484 20.3668 19.1458C20.3294 19.1432 20.2885 19.1432 20.2528 19.1553C20.0875 19.211 19.9344 19.2919 19.7587 19.3172C19.7969 19.2014 19.8787 19.1536 19.9953 19.1336C20.0814 19.1197 20.1658 19.0927 20.2511 19.0701C20.2789 19.0631 20.2833 19.0483 20.265 19.0292C20.2589 19.0213 20.2546 19.0118 20.2467 19.0066C20.2311 18.9944 20.2154 18.9761 20.198 18.9752C20.0223 18.9613 19.8431 18.9361 19.6908 19.0579C19.5699 19.1553 19.4394 19.2032 19.2845 19.1588C19.2758 19.1562 19.2602 19.1588 19.2575 19.164C19.2445 19.1884 19.2297 19.2145 19.2262 19.2415C19.2219 19.2684 19.2254 19.3006 19.2706 19.2876C19.2984 19.2789 19.3332 19.2606 19.3541 19.2693C19.4864 19.3285 19.6229 19.3015 19.7587 19.3172ZM9.43343 9.7958C9.39428 9.7958 9.35687 9.80189 9.31772 9.79754C9.30206 9.79493 9.2864 9.77927 9.27248 9.76709C9.27074 9.76448 9.27683 9.74534 9.28379 9.74099C9.44387 9.65051 9.57002 9.49391 9.77534 9.4913C9.81971 9.4913 9.85277 9.46781 9.85452 9.42257C9.858 9.33905 9.9102 9.27641 9.94326 9.20594C9.97197 9.14417 9.92412 9.14939 9.88844 9.14504C9.87801 9.1433 9.86757 9.14504 9.85886 9.14156C9.84059 9.13459 9.82406 9.12502 9.80666 9.11633C9.81188 9.10937 9.81623 9.09892 9.82319 9.09457C9.93282 9.02845 10.0433 8.9632 10.1529 8.89534C10.1642 8.88838 10.1712 8.87359 10.1808 8.86228C10.1625 8.85793 10.1407 8.84488 10.126 8.8501C9.94326 8.92318 9.76055 8.998 9.57872 9.07195C9.4691 9.1172 9.35252 9.14939 9.25247 9.21029C9.14198 9.27815 9.02627 9.33209 8.9036 9.36776C8.80355 9.39647 8.70263 9.43562 8.66522 9.52871C8.62955 9.61571 8.54603 9.62702 8.4973 9.68879C8.44249 9.75752 8.37202 9.81233 8.29285 9.85757C8.16496 9.93152 8.03011 10.0046 7.92484 10.1055C7.80391 10.2221 7.67167 10.3248 7.55161 10.4422C7.44199 10.5492 7.30192 10.6362 7.28104 10.812C7.27669 10.8511 7.2358 10.8302 7.21056 10.8346C7.18446 10.8398 7.15836 10.8572 7.13748 10.8763C7.1253 10.8877 7.11834 10.9111 7.11834 10.9285C7.11834 10.9512 7.13487 10.959 7.15575 10.9529C7.34629 10.9033 7.52377 10.8094 7.723 10.7893C7.75606 10.7859 7.78651 10.7467 7.81609 10.7215C7.8535 10.6902 7.89265 10.6319 7.93789 10.6493C8.05969 10.6954 8.11885 10.5962 8.2015 10.5553C8.25457 10.5292 8.29807 10.4692 8.35114 10.4631C8.44597 10.4509 8.52949 10.4074 8.58778 10.3509C8.66348 10.2769 8.77832 10.3004 8.83835 10.2125C9.06542 10.1429 9.25421 10.0203 9.41342 9.84539C9.42473 9.83234 9.42821 9.8132 9.43343 9.7958C9.49433 9.80624 9.54044 9.78623 9.57785 9.73577C9.59264 9.71576 9.59438 9.70097 9.57263 9.69053C9.56567 9.68705 9.55523 9.68444 9.5474 9.68705C9.48911 9.70271 9.44996 9.73751 9.43343 9.7958ZM19.7413 20.1028C19.8605 20.0975 19.9797 20.0993 20.0971 20.0836C20.1824 20.0723 20.2737 20.0567 20.2972 19.9418C20.3033 19.9122 20.3511 19.8713 20.3816 19.8696C20.5582 19.8566 20.7192 19.7626 20.901 19.7835C20.9497 19.7887 21.0002 19.78 21.0489 19.7843C21.1672 19.7948 21.2577 19.7348 21.3464 19.6712C21.3577 19.6634 21.3612 19.6356 21.3577 19.619C21.3543 19.6025 21.3403 19.579 21.3264 19.5747C21.2899 19.5634 21.2499 19.5547 21.2116 19.5555C21.0924 19.5555 20.9741 19.5625 20.8549 19.5642C20.7766 19.566 20.7026 19.566 20.6235 19.5964C20.4956 19.646 20.3485 19.5816 20.2163 19.6434C20.1954 19.653 20.1615 19.6286 20.1328 19.626C19.9849 19.613 19.837 19.6016 19.6899 19.633C19.6812 19.6347 19.6743 19.6434 19.6664 19.6486C19.6734 19.6556 19.6795 19.6669 19.6873 19.6686C19.8431 19.693 19.9936 19.7487 20.1545 19.74C20.1832 19.7391 20.2128 19.7443 20.2424 19.7478C20.2502 19.7487 20.2572 19.7565 20.265 19.7609C20.2572 19.7678 20.2511 19.7774 20.2424 19.78C20.1684 19.8052 20.0945 19.847 20.0188 19.8505C19.7996 19.8609 19.6029 19.9697 19.3863 19.9888C19.3611 19.9905 19.355 20.0079 19.375 20.0297C19.4133 20.0706 19.4507 20.1428 19.5125 20.1149C19.5925 20.0801 19.6691 20.1567 19.7413 20.1028ZM21.0315 18.5515C21.0802 18.5515 21.1402 18.5559 21.1994 18.5507C21.3142 18.5411 21.3743 18.4306 21.4752 18.3932C21.443 18.3045 21.3412 18.321 21.2829 18.2688C21.249 18.2383 21.189 18.241 21.1472 18.2175C21.0202 18.1461 21.0184 18.1409 20.9593 18.2288C20.9375 18.261 20.9245 18.2966 20.8792 18.3071C20.8027 18.3245 20.7287 18.3575 20.6513 18.3645C20.5599 18.3723 20.4825 18.3906 20.406 18.4498C20.3242 18.5124 20.1937 18.508 20.1537 18.6333C20.1476 18.6525 20.1032 18.6586 20.0762 18.6707C20.0232 18.696 19.9692 18.7195 19.917 18.7473C19.9118 18.7499 19.9144 18.7873 19.924 18.7943C20.0232 18.8647 20.1397 18.9091 20.2546 18.8769C20.3311 18.8552 20.4086 18.8508 20.4843 18.8317C20.493 18.8299 20.4999 18.8195 20.5069 18.8134C20.4999 18.8073 20.493 18.7978 20.4851 18.7969C20.406 18.7908 20.3277 18.7873 20.2494 18.7795C20.2354 18.7777 20.2233 18.7612 20.2102 18.7516C20.2163 18.7438 20.2215 18.7334 20.2293 18.729C20.2972 18.6881 20.3642 18.6499 20.4503 18.6551C20.4982 18.6577 20.5573 18.6551 20.593 18.629C20.7252 18.535 20.8705 18.5333 21.0315 18.5515ZM18.1657 12.699C18.1848 12.6868 18.2127 12.6773 18.2292 12.6581C18.391 12.4737 18.5546 12.2892 18.7112 12.1004C18.7538 12.0482 18.7817 11.9821 18.8078 11.9195C18.8304 11.8655 18.8339 11.8038 18.8591 11.7524C18.8852 11.702 18.9296 11.6611 18.9626 11.6141C18.9731 11.5993 18.9748 11.5767 18.9748 11.5576C18.9739 11.5384 18.9713 11.5158 18.9591 11.5028C18.9513 11.4941 18.9226 11.4914 18.9113 11.4993C18.7999 11.5802 18.7155 11.6881 18.6311 11.7942C18.6329 11.9299 18.532 12.003 18.4493 12.0839C18.3493 12.1814 18.284 12.3014 18.2135 12.418C18.1927 12.4519 18.1718 12.4841 18.1535 12.5181C18.1283 12.5659 18.0926 12.5911 18.0369 12.5937C17.9186 12.599 17.8394 12.6738 17.7655 12.7547C17.7385 12.7851 17.7376 12.8217 17.7672 12.8208C17.7864 12.8208 17.8107 12.8243 17.8238 12.8139C17.8681 12.7764 17.9134 12.7382 17.9508 12.6938C17.9978 12.6407 18.0491 12.6346 18.1083 12.6625C18.1257 12.6712 18.1413 12.6842 18.1657 12.699ZM12.5959 4.81327C12.5959 4.76455 12.5959 4.71496 12.5994 4.66624C12.6003 4.6558 12.6211 4.64449 12.6351 4.6384C12.6394 4.63666 12.6533 4.6471 12.6568 4.65493C12.6707 4.68886 12.6716 4.7428 12.7273 4.72105C12.769 4.70539 12.7673 4.65841 12.7595 4.62013C12.7534 4.59229 12.7386 4.56532 12.7247 4.54009C12.7047 4.50616 12.6542 4.49746 12.6237 4.52356C12.595 4.54966 12.5637 4.57489 12.5437 4.60708C12.4906 4.69408 12.4889 4.79326 12.4845 4.89244C12.4715 5.18651 12.4376 5.47709 12.3253 5.75462C12.3114 5.78942 12.3114 5.83118 12.3097 5.86946C12.3079 5.89817 12.3105 5.95124 12.3184 5.95211C12.368 5.96081 12.3488 5.90165 12.3767 5.88251C12.401 5.86685 12.4202 5.84249 12.4463 5.82857C12.5341 5.78072 12.5472 5.71634 12.4976 5.63282C12.4758 5.59541 12.4706 5.54843 12.5115 5.53016C12.5742 5.50319 12.6011 5.4536 12.6177 5.39792C12.6655 5.23958 12.7142 5.08124 12.7081 4.91245C12.7081 4.90375 12.6994 4.89592 12.6942 4.88722C12.6838 4.89853 12.669 4.9081 12.6638 4.92202C12.6568 4.93942 12.662 4.96204 12.6551 4.97944C12.649 4.99337 12.6324 5.00207 12.6203 5.01338C12.6142 5.00555 12.6046 4.99771 12.6037 4.98902C12.5994 4.93072 12.5985 4.87156 12.5959 4.81327ZM12.6646 3.74839C12.6603 3.72403 12.662 3.69184 12.6498 3.66661C12.5846 3.53523 12.5167 3.4056 12.448 3.27597C12.4454 3.26988 12.4315 3.26727 12.4228 3.26553C12.3993 3.26292 12.3836 3.27684 12.3932 3.29598C12.4637 3.42822 12.4811 3.57612 12.5072 3.71794C12.5341 3.87019 12.609 4.01113 12.6046 4.17034C12.6037 4.21471 12.6377 4.25995 12.6577 4.30432C12.6655 4.32172 12.6786 4.33651 12.6899 4.35217C12.6968 4.33564 12.7099 4.31998 12.7099 4.30345C12.7107 4.22602 12.729 4.13467 12.6751 4.07638C12.6159 4.01374 12.7621 3.92152 12.6342 3.88498C12.6438 3.84061 12.6533 3.79624 12.6646 3.74839ZM13.4033 15.5239C13.7643 15.45 13.9479 15.3899 14.235 15.2481C14.2446 15.2429 14.2454 15.2142 14.2454 15.1968C14.2454 15.1898 14.2333 15.1785 14.2254 15.1777C14.1967 15.1733 14.1645 15.162 14.1402 15.1707C13.8739 15.2699 13.6086 15.3717 13.3441 15.4761C13.3328 15.4796 13.3224 15.5187 13.3276 15.5231C13.358 15.5483 13.3084 15.5509 13.3476 15.5431C13.3667 15.5396 13.385 15.53 13.4033 15.5239ZM14.1245 15.5405C14.121 15.5335 14.1184 15.5248 14.1132 15.5196C14.1062 15.5135 14.0975 15.5057 14.0888 15.5048C13.9514 15.4935 13.8209 15.5378 13.6878 15.5596C13.6208 15.5709 13.5425 15.5744 13.4911 15.6109C13.4137 15.6675 13.3337 15.6849 13.2441 15.6979C13.1779 15.7075 13.1153 15.7414 13.0518 15.7658C13.0474 15.7675 13.044 15.7823 13.044 15.7823C13.0518 15.7875 13.0614 15.7971 13.0692 15.7962C13.2345 15.7693 13.4015 15.7501 13.5642 15.7127C13.7461 15.671 13.9244 15.6135 14.1045 15.5613C14.1123 15.5596 14.1184 15.5474 14.1245 15.5405ZM10.8376 8.99452C10.8307 8.98843 10.8246 8.97712 10.8167 8.97625C10.7898 8.97277 10.7498 8.96059 10.735 8.97364C10.6071 9.09023 10.4827 9.21029 10.3582 9.33122C10.3278 9.36167 10.3574 9.38516 10.3791 9.40082C10.4305 9.43649 10.4757 9.43562 10.507 9.39212C10.5984 9.26597 10.715 9.16418 10.8159 9.0476C10.8272 9.03367 10.8307 9.01279 10.8376 8.99452ZM6.52152 2.64435C6.54414 2.63391 6.57285 2.62521 6.59808 2.61042C6.71901 2.5443 6.8382 2.47905 6.97479 2.44425C7.04874 2.42511 7.11486 2.37465 7.18446 2.33811C7.18794 2.3355 7.19055 2.32245 7.18794 2.32071C7.18098 2.31549 7.17054 2.30766 7.16271 2.3094C6.93825 2.34681 6.7251 2.41641 6.53544 2.54604C6.51978 2.55648 6.50673 2.57388 6.49803 2.59041C6.49107 2.60346 6.49107 2.62086 6.49107 2.63652C6.49107 2.63826 6.5076 2.64087 6.52152 2.64435ZM9.7736 1.9292C9.8841 1.9292 9.97284 1.89005 10.0503 1.82306C10.0572 1.81784 10.0616 1.80566 10.0607 1.79609C10.0607 1.79087 10.052 1.78043 10.0459 1.77956C10.0068 1.77347 9.95979 1.75172 9.93021 1.76651C9.81275 1.82567 9.68225 1.82132 9.55958 1.85177C9.55088 1.85351 9.54392 1.86308 9.53696 1.87091C9.53087 1.87787 9.51869 1.89179 9.52043 1.89353C9.52913 1.90484 9.5474 1.92398 9.55175 1.92137C9.63005 1.87787 9.704 1.93355 9.7736 1.9292ZM22.1634 19.1962C22.32 19.1371 22.4931 19.0996 22.6454 19.0066C22.6636 18.9952 22.6671 18.9761 22.6497 18.9578C22.6375 18.9439 22.6132 18.9213 22.6045 18.9248C22.4444 18.9944 22.2852 19.0666 22.1268 19.1388C22.119 19.1423 22.1112 19.1623 22.1112 19.1623C22.1242 19.1727 22.1381 19.1806 22.1634 19.1962ZM12.7168 5.73287C12.7142 5.71373 12.7125 5.69459 12.7081 5.67632C12.7055 5.66762 12.6968 5.65544 12.6907 5.65544C12.6829 5.65544 12.6716 5.66327 12.6664 5.6711C12.582 5.80769 12.5933 5.97212 12.542 6.11828C12.5341 6.13916 12.5568 6.17048 12.5646 6.19658C12.5776 6.18179 12.5933 6.16874 12.6037 6.15221C12.682 6.02345 12.7177 5.88338 12.7168 5.73287ZM14.3229 16.1068C14.3977 16.1016 14.4377 16.0955 14.4769 16.0964C14.5578 16.099 14.5639 16.0303 14.5926 15.9824C14.6056 15.9598 14.6039 15.9476 14.5752 15.9433C14.5047 15.9328 14.4412 16.0094 14.3742 15.9711C14.2594 15.9059 14.2724 16.0668 14.1941 16.0651C14.1767 16.0642 14.1811 16.0938 14.2106 16.0981C14.2594 16.1042 14.3089 16.106 14.3229 16.1068ZM20.7992 18.9648C20.7992 18.9604 20.7992 18.9683 20.7992 18.9648C20.7705 18.9683 20.7357 18.957 20.7148 18.9718C20.6609 19.0109 20.6139 19.0579 20.5634 19.1014C20.5721 19.111 20.5808 19.1292 20.5895 19.1292C20.6643 19.1318 20.7461 19.1658 20.8018 19.0796C20.8366 19.0248 20.8949 19.0153 20.9549 19.01C20.9628 19.0092 20.9706 18.9996 20.9784 18.9935C20.9671 18.9857 20.9567 18.9718 20.9445 18.9718C20.8966 18.9691 20.8479 18.9648 20.7992 18.9648ZM5.50709 1.83176C5.49752 1.83437 5.48708 1.83437 5.47838 1.83872C5.36354 1.8944 5.24957 1.95095 5.13473 2.0075C5.11037 2.01968 5.10167 2.03447 5.11646 2.0423C5.13299 2.051 5.153 2.05274 5.17127 2.05535C5.18084 2.05622 5.19215 2.05361 5.19998 2.04926C5.30525 1.99532 5.40965 1.94225 5.51318 1.8857C5.52362 1.87961 5.5271 1.85873 5.53145 1.84394C5.53145 1.84394 5.51579 1.83611 5.50709 1.83176ZM7.19229 1.22537C7.32454 1.20971 7.45156 1.15925 7.57597 1.10444C7.5925 1.09661 7.60642 1.08356 7.62208 1.07312C7.59424 1.06529 7.56292 1.04528 7.5403 1.05224C7.41067 1.09313 7.28365 1.14011 7.15575 1.18535C7.14792 1.18796 7.14183 1.19666 7.134 1.20275C7.1514 1.20971 7.1688 1.2158 7.19229 1.22537ZM19.3994 12.137C19.3959 12.1109 19.3976 12.0709 19.382 12.0387C19.3733 12.0204 19.3332 12.0039 19.3132 12.0091C19.2897 12.0143 19.268 12.0422 19.2523 12.0648C19.2227 12.1065 19.2645 12.11 19.2871 12.1187C19.3141 12.13 19.3376 12.1405 19.3489 12.1718C19.3532 12.184 19.3706 12.1918 19.382 12.2022C19.3872 12.184 19.3915 12.1666 19.3994 12.137ZM12.522 6.38451C12.5167 6.37668 12.5106 6.36189 12.5063 6.36189C12.4584 6.36537 12.3819 6.46455 12.3714 6.53763C12.3706 6.54459 12.3784 6.55938 12.3845 6.56025C12.4019 6.56373 12.428 6.56982 12.4367 6.56199C12.4828 6.5124 12.5211 6.45672 12.522 6.38451ZM10.4244 1.79174C10.3591 1.74824 10.2939 1.70561 10.2103 1.71431C10.2008 1.71518 10.1929 1.72301 10.1842 1.72736C10.1877 1.73345 10.1895 1.74302 10.1947 1.74563C10.2538 1.77782 10.3078 1.82567 10.3817 1.81784C10.3913 1.81697 10.4009 1.81349 10.4078 1.80914C10.4148 1.80566 10.4191 1.79783 10.4244 1.79174ZM15.2103 15.5648C15.1981 15.5648 15.2459 15.5692 15.2929 15.5683C15.3042 15.5683 15.3138 15.5457 15.3242 15.5335C15.3164 15.5283 15.3095 15.517 15.3025 15.517C15.2172 15.5161 15.1328 15.517 15.0485 15.5204C15.0371 15.5213 15.0258 15.5378 15.0145 15.5474C15.0224 15.5535 15.0293 15.5639 15.0371 15.5639C15.0754 15.5657 15.1128 15.5648 15.2103 15.5648ZM13.2867 16.695C13.3432 16.6958 13.4007 16.6984 13.4485 16.6584C13.4624 16.6471 13.4711 16.6297 13.4824 16.6149C13.4677 16.6062 13.4511 16.5906 13.4372 16.5914C13.4094 16.594 13.3824 16.6062 13.3554 16.614C13.3285 16.6219 13.3006 16.628 13.2745 16.6384C13.2562 16.6454 13.2171 16.6401 13.2336 16.6784C13.2388 16.6889 13.2676 16.6897 13.2867 16.695ZM10.1233 8.20978C10.1146 8.20456 10.1068 8.19673 10.0972 8.19586C10.0346 8.1889 9.98328 8.21326 9.94151 8.2585C9.9363 8.26459 9.92846 8.27677 9.93021 8.27938C9.93542 8.28721 9.94847 8.29765 9.9537 8.29504C10.0076 8.27416 10.0598 8.25154 10.1129 8.22805C10.1181 8.22631 10.1199 8.21587 10.1233 8.20978ZM15.0545 7.94704C15.0902 7.94443 15.1198 7.94443 15.1485 7.93921C15.1642 7.9366 15.1798 7.92616 15.1955 7.91833C15.1781 7.91224 15.1598 7.89919 15.1424 7.89919C15.0841 7.90006 15.0267 7.90441 14.9693 7.90876C14.9623 7.90963 14.9562 7.91833 14.9493 7.92268C14.958 7.9279 14.9658 7.93573 14.9745 7.93747C15.0032 7.94182 15.0319 7.94443 15.0545 7.94704ZM6.17874 2.80008C6.17091 2.79747 6.1596 2.78442 6.1509 2.78442C6.09261 2.78442 6.03954 2.79573 6.00039 2.84358C5.99517 2.85054 5.98647 2.86011 5.98821 2.86533C5.99082 2.87316 6.00387 2.88447 6.00822 2.88273C6.06651 2.85924 6.12132 2.82618 6.17874 2.80008ZM7.77085 1.03397C7.79086 1.02266 7.81609 1.01222 7.8361 0.995685C7.84741 0.986116 7.85002 0.966105 7.85611 0.951315C7.83958 0.944355 7.82305 0.934785 7.80565 0.933045C7.78738 0.931305 7.76824 0.933915 7.75084 0.940005C7.72039 0.950445 7.70995 0.978285 7.71952 1.00526C7.72387 1.01744 7.74823 1.02266 7.77085 1.03397ZM19.5464 18.9883C19.542 18.9796 19.5394 18.9691 19.5325 18.9639C19.5125 18.9465 19.4968 18.9152 19.4611 18.9378C19.4385 18.9526 19.4098 18.9718 19.4228 18.9987C19.4376 19.0292 19.5359 19.017 19.5464 18.9883ZM6.34926 12.324C6.36144 12.3319 6.36927 12.3414 6.3771 12.3423C6.4293 12.3423 6.46497 12.3127 6.49107 12.271C6.49194 12.2692 6.4815 12.2544 6.47802 12.2553C6.45105 12.257 6.42147 12.2553 6.39972 12.2675C6.37884 12.2779 6.36666 12.304 6.34926 12.324ZM3.72445 12.2588C3.69052 12.2605 3.65137 12.3084 3.6679 12.3362C3.68095 12.358 3.70966 12.3693 3.73141 12.3849C3.74272 12.3623 3.76012 12.3406 3.7636 12.3162C3.76708 12.291 3.76012 12.2623 3.72445 12.2588ZM7.09572 12.2266C7.10964 12.2257 7.12965 12.2266 7.14792 12.2222C7.16358 12.2179 7.17837 12.2075 7.19316 12.1996C7.17576 12.1909 7.1601 12.1779 7.1427 12.1761C7.11399 12.1727 7.08441 12.1744 7.0557 12.1796C7.03917 12.1831 7.02438 12.197 7.00872 12.2057C7.02612 12.2127 7.04352 12.2205 7.06092 12.2257C7.06962 12.2283 7.08006 12.2266 7.09572 12.2266ZM5.58887 3.09849C5.58104 3.09414 5.57321 3.08544 5.56451 3.08544C5.52101 3.08457 5.49578 3.11676 5.46881 3.14373C5.46359 3.14895 5.46011 3.16113 5.46272 3.16374C5.46881 3.1707 5.47925 3.17766 5.48621 3.17679C5.54102 3.16983 5.59409 3.12807 5.58887 3.09849ZM8.68523 0.799064C8.67653 0.800804 8.68262 0.799064 8.68523 0.799064C8.70437 0.794714 8.73047 0.787754 8.74961 0.782534C8.73221 0.775574 8.71568 0.762524 8.69828 0.760784C8.66957 0.758174 8.63999 0.760784 8.61128 0.766004C8.60083 0.767744 8.59126 0.780794 8.58082 0.788624C8.58953 0.792104 8.59822 0.798194 8.60693 0.799064C8.62607 0.800804 8.65391 0.799064 8.68523 0.799064Z" fill="#FFC736"/>
</g>
</svg>
