<svg width="132" height="47" viewBox="0 0 132 47" fill="none" xmlns="http://www.w3.org/2000/svg">
<path d="M60.9814 6.62734C54.7776 6.66761 52.4232 10.1472 52.4225 15.6511C54.5229 14.7733 70.5475 6.94942 60.9814 6.62734C59.9177 6.63453 61.824 6.65571 60.9814 6.62734ZM82.9692 26.806C88.97 27.008 94.9012 27.0256 100.858 26.4976C103.697 26.2455 111.291 26.7048 113.013 24.5002C108.178 22.4138 102.714 22.2413 97.9486 19.511C95.8958 18.3353 93.098 16.6867 93.0369 14.0427C92.9469 10.1116 96.4015 11.7379 98.8975 12.4075C104.262 13.8478 109.904 14.641 115.371 15.6749C119.555 16.4671 129.604 16.2718 131.185 21.2813C132.772 26.3113 124.843 30.0812 121.432 32.3592C115.903 36.0518 110.414 39.8229 104.853 43.4639C103.321 44.4671 100.381 46.9165 98.2945 46.1089C95.3811 44.9801 96.8225 42.3703 98.1769 40.6023C99.0518 39.4619 110.644 29.2806 110.667 29.2915C109.772 28.8656 104.278 30.3348 103.382 30.4703C99.7246 31.0238 95.9235 31.2727 92.1568 31.4241C82.3074 31.8184 72.0015 32.3592 62.2557 30.4161C57.7016 29.509 54.5629 27.3659 50.7361 25.0896C47.1021 22.9285 43.3802 24.7281 39.1624 25.0654C30.4462 25.7597 21.5732 24.1178 13.5708 20.7385C8.1062 18.4299 -4.05568 11.4162 2.22249 4.14439C3.86101 2.24562 6.59007 1.20686 6.03821 4.04648C5.66405 5.97265 4.15243 6.06593 4.67956 8.42209C5.05863 10.1182 6.49512 11.1909 7.84205 12.1342C14.5387 16.8189 24.7456 19.281 32.7725 19.665C35.8319 19.8111 41.9702 19.5827 44.684 18.0451C47.0969 16.6783 45.9653 14.1348 46.8382 11.1859C49.101 3.54114 59.2352 -2.326 67.2102 1.94905C78.7645 8.143 62.547 18.8565 56.3015 21.1288C61.3388 27.1046 76.0453 26.5728 82.9692 26.806Z" fill="#FDE464"/>
</svg>
