<svg width="28" height="28" viewBox="0 0 28 28" fill="none" xmlns="http://www.w3.org/2000/svg">
<path fill-rule="evenodd" clip-rule="evenodd" d="M21.5634 23.0882V23.0859L21.5844 23.0357L25.0832 5.39572V5.33972C25.0832 4.89988 24.9199 4.51605 24.5676 4.28622C24.2584 4.08438 23.9026 4.07038 23.6529 4.08905C23.4205 4.11007 23.1912 4.15703 22.9692 4.22905C22.8746 4.25956 22.7812 4.29381 22.6892 4.33172L22.6741 4.33755L3.16738 11.9897L3.16155 11.9921C3.10225 12.0123 3.0442 12.0361 2.98772 12.0632C2.84899 12.1255 2.71588 12.1997 2.58988 12.2849C2.33905 12.4576 1.86188 12.8636 1.94238 13.5076C2.00888 14.0419 2.37638 14.3802 2.62488 14.5564C2.77156 14.6592 2.92926 14.7453 3.09505 14.813L3.13238 14.8294L3.14405 14.8329L3.15222 14.8364L6.56588 15.9855C6.55422 16.199 6.57522 16.4172 6.63238 16.633L8.34155 23.1185C8.43492 23.4721 8.63668 23.7875 8.91849 24.0204C9.20031 24.2534 9.54802 24.3923 9.91279 24.4175C10.2776 24.4427 10.6411 24.3531 10.9523 24.1611C11.2635 23.9691 11.5067 23.6845 11.6479 23.3472L14.3172 20.4935L18.9011 24.0075L18.9664 24.0355C19.3829 24.2175 19.7714 24.2747 20.1272 24.2269C20.4831 24.1779 20.7654 24.0285 20.9777 23.8594C21.2233 23.6603 21.419 23.4066 21.5494 23.1185L21.5587 23.0987L21.5622 23.0917L21.5634 23.0882ZM8.32405 16.1874C8.30512 16.1154 8.30962 16.0393 8.3369 15.9701C8.36417 15.9008 8.4128 15.8421 8.47572 15.8024L20.0502 8.45238C20.0502 8.45238 20.7316 8.03822 20.7071 8.45238C20.7071 8.45238 20.8284 8.52472 20.4632 8.86422C20.1179 9.18738 12.2137 16.8186 11.4134 17.5909C11.3689 17.6341 11.3377 17.6892 11.3236 17.7495L10.0332 22.6729L8.32405 16.1862V16.1874Z" fill="white"/>
</svg>
