<svg width="20" height="22" viewBox="0 0 20 22" fill="none" xmlns="http://www.w3.org/2000/svg">
<path d="M15.8673 3.44667C14.9954 2.49287 14.5149 1.26797 14.5153 0H10.574V15.1556C10.5436 15.9757 10.1822 16.7525 9.56603 17.3225C8.94982 17.8924 8.12685 18.211 7.27041 18.2111C5.45918 18.2111 3.95408 16.7933 3.95408 15.0333C3.95408 12.9311 6.07143 11.3544 8.25255 12.0022V8.14C3.85204 7.57778 0 10.8533 0 15.0333C0 19.1033 3.52041 22 7.25765 22C11.2628 22 14.5153 18.8833 14.5153 15.0333V7.34556C16.1135 8.44537 18.0324 9.03546 20 9.03222V5.25556C20 5.25556 17.602 5.36556 15.8673 3.44667Z" fill="white"/>
</svg>
