<svg width="281" height="100" viewBox="0 0 281 100" fill="none" xmlns="http://www.w3.org/2000/svg">
<path d="M53.3772 31.9114L64.683 77.4845L77.1358 31.9114H91.9762L72.8364 97.7713H57.9952L46.2442 51.911L34.5238 97.739H19.6834L0.541992 31.88H15.3832L27.8352 77.4531L39.1409 31.88H53.3764V31.9123L53.3772 31.9114ZM127.486 29.9368C108.219 29.9368 92.6134 45.5733 92.6134 64.8091C92.6134 84.0771 108.25 99.6822 127.486 99.6822C146.754 99.6822 162.39 84.0771 162.39 64.8091C162.39 45.5419 146.754 29.9368 127.486 29.9368ZM127.486 85.3508C116.149 85.3508 106.976 76.1786 106.976 64.8414C106.976 53.5033 116.18 44.332 127.486 44.332C138.824 44.332 147.995 53.5033 147.995 64.8414C147.995 76.1471 138.824 85.3508 127.486 85.3508ZM204.779 46.6567C194.811 46.6567 186.754 54.7456 186.754 64.6816V97.739H171.817V31.9114H186.754V42.0387C186.754 42.0387 193.123 31.8791 206.212 31.8791H210.798V46.6567H204.779ZM254.907 62.2618C265.511 56.2741 272.709 44.9046 272.709 31.8791H257.772C257.772 42.8663 248.856 51.7836 237.868 51.7836H235.862V0.127708H220.926V97.7382H235.862V66.72H237.646C239.111 66.72 241.022 67.6759 241.881 68.8535L263.091 97.739H280.989L254.907 62.2618Z" fill="#F3DA70" fill-opacity="0.3"/>
</svg>
