<svg width="80" height="50" viewBox="0 0 80 50" fill="none" xmlns="http://www.w3.org/2000/svg">
<mask id="mask0_45_471" style="mask-type:luminance" maskUnits="userSpaceOnUse" x="0" y="-1" width="120" height="51">
<path d="M0 49.2275H120V-0.000247955H0V49.2275Z" fill="white"/>
</mask>
<g mask="url(#mask0_45_471)">
<path d="M0 48.5904C0 48.7598 0.0565499 48.9064 0.169651 49.0255C0.287102 49.1446 0.426303 49.2041 0.587254 49.2041C4.60668 49.2041 6.58595 46.259 8.49561 43.4102C10.3139 40.6987 12.0322 38.1384 15.4426 38.1384C18.8487 38.1384 20.5626 40.6987 22.3853 43.4102C24.2949 46.259 26.2742 49.2041 30.2936 49.2041C34.3131 49.2041 36.288 46.259 38.1976 43.4102C40.0203 40.6987 41.7299 38.1384 45.1446 38.1384C48.5594 38.1384 50.269 40.6987 52.0916 43.4102C54.0013 46.259 55.9806 49.2041 60 49.2041C64.0194 49.2041 65.9943 46.259 67.9084 43.4102C69.7267 40.6987 71.4362 38.1384 74.851 38.1384C78.2658 38.1384 79.9797 40.6987 81.798 43.4102C83.7033 46.259 85.6826 49.2041 89.7064 49.2041C93.7302 49.2041 95.7007 46.259 97.6147 43.4102C99.433 40.6987 101.143 38.1384 104.562 38.1384C107.977 38.1384 109.686 40.6987 111.504 43.4102C113.414 46.259 115.389 49.2041 119.413 49.2041C119.574 49.2041 119.713 49.1446 119.826 49.0255C119.943 48.9064 120 48.7598 120 48.5904C120 48.4209 119.943 48.2743 119.826 48.1552C119.713 48.0362 119.574 47.9766 119.413 47.9766C116.002 47.9766 114.284 45.4163 112.466 42.7048C110.552 39.8514 108.577 36.9063 104.557 36.9063C100.542 36.9063 98.5587 39.8514 96.6447 42.7048C94.8264 45.4163 93.1124 47.9766 89.7064 47.9766C86.3003 47.9766 84.5777 45.4163 82.7594 42.7048C80.8454 39.8514 78.8704 36.9063 74.851 36.9063C70.8272 36.9063 68.8523 39.8514 66.9383 42.7048C65.1243 45.4163 63.4061 47.9766 60 47.9766C56.5939 47.9766 54.8713 45.4163 53.053 42.7048C51.139 39.8514 49.1641 36.9063 45.1446 36.9063C41.1209 36.9063 39.1503 39.8514 37.2363 42.7048C35.418 45.4163 33.6997 47.9766 30.2936 47.9766C26.8876 47.9766 25.1649 45.4163 23.3466 42.7048C21.4326 39.8514 19.4577 36.9063 15.4426 36.9063C11.4232 36.9063 9.44392 39.8514 7.52991 42.7048C5.71594 45.4163 3.99333 47.9766 0.587254 47.9766C0.426303 47.9766 0.287102 48.0362 0.169651 48.1552C0.0565499 48.2743 0 48.4209 0 48.5904ZM119.413 30.7597C115.389 30.7597 113.414 27.8147 111.5 24.9658C109.682 22.2406 107.963 19.694 104.557 19.694C101.151 19.694 99.433 22.2543 97.6104 24.9658C95.7007 27.8009 93.7215 30.7597 89.7064 30.7597C85.6869 30.7597 83.7033 27.8009 81.7937 24.952C79.9753 22.2406 78.2658 19.6803 74.851 19.6803C71.4362 19.6803 69.7223 22.2406 67.904 24.952C65.9943 27.8009 64.0151 30.7597 60 30.7597C55.9806 30.7597 54.0057 27.8147 52.0916 24.9658C50.2733 22.2543 48.5638 19.694 45.1446 19.694C41.7299 19.694 40.0247 22.2543 38.202 24.9658C36.288 27.8009 34.3131 30.7597 30.2936 30.7597C26.2742 30.7597 24.2949 27.8009 22.3853 24.952C20.5626 22.2406 18.8443 19.694 15.4426 19.694C12.0365 19.694 10.3139 22.2406 8.49561 24.952C6.58595 27.8009 4.60668 30.7597 0.587254 30.7597C0.426303 30.7597 0.287102 30.7002 0.169651 30.5811C0.0565499 30.462 0 30.3154 0 30.146C0 29.9765 0.0565499 29.8299 0.169651 29.7109C0.287102 29.5918 0.426303 29.5322 0.587254 29.5322C3.99333 29.5322 5.71594 26.9719 7.52991 24.2604C9.44392 21.3978 11.4188 18.4619 15.4426 18.4619C19.462 18.4619 21.4326 21.4116 23.3466 24.2604C25.1649 26.9582 26.8832 29.5322 30.2936 29.5322C33.7041 29.5322 35.418 26.9719 37.2363 24.2604C39.1503 21.4116 41.1252 18.4619 45.1446 18.4619C49.1597 18.4619 51.139 21.4116 53.053 24.2604C54.8713 26.9582 56.5896 29.5322 60 29.5322C63.4061 29.5322 65.1243 26.9719 66.9426 24.2604C68.8567 21.4116 70.8359 18.4619 74.851 18.4619C78.8704 18.4619 80.8497 21.4116 82.7594 24.2604C84.5733 26.9582 86.2959 29.5322 89.7064 29.5322C93.1124 29.5322 94.8307 26.9719 96.649 24.2604C98.563 21.4116 100.542 18.4619 104.562 18.4619C108.581 18.4619 110.556 21.4116 112.466 24.2604C114.284 26.9582 116.002 29.5322 119.413 29.5322C119.574 29.5322 119.713 29.5918 119.826 29.7109C119.943 29.8299 120 29.9765 120 30.146C120 30.3154 119.943 30.462 119.826 30.5811C119.713 30.7002 119.574 30.7597 119.413 30.7597ZM119.413 12.3153C115.389 12.3153 113.414 9.36569 111.5 6.52139C109.682 3.80993 107.972 1.24961 104.557 1.24961C101.143 1.24961 99.433 3.80993 97.6104 6.52139C95.7007 9.36569 93.7215 12.3153 89.702 12.3153C85.6826 12.3153 83.7033 9.36569 81.7937 6.52139C79.9753 3.80993 78.2658 1.24961 74.851 1.24961C71.4362 1.24961 69.7223 3.80993 67.904 6.52139C65.9943 9.36569 64.0151 12.3153 59.9957 12.3153C55.9762 12.3153 54.0013 9.36569 52.0916 6.52139C50.269 3.80993 48.5594 1.24961 45.1446 1.24961C41.7255 1.24961 40.0203 3.80993 38.1976 6.52139C36.288 9.36569 34.3131 12.3153 30.2936 12.3153C26.2742 12.3153 24.2949 9.36569 22.3853 6.52139C20.5626 3.80993 18.853 1.24961 15.4426 1.24961C12.0278 1.24961 10.3139 3.80993 8.49561 6.52139C6.58595 9.36569 4.60668 12.3153 0.587254 12.3153C0.426303 12.3153 0.287102 12.2558 0.169651 12.1367C0.0565499 12.013 0 11.871 0 11.7016C0 11.5321 0.0565499 11.3855 0.169651 11.2665C0.287102 11.1474 0.426303 11.0833 0.587254 11.0833C3.99333 11.0833 5.71594 8.52293 7.52991 5.81147C9.44392 2.96259 11.4188 0.0175362 15.4426 0.0175362C19.462 0.0175362 21.4326 2.96259 23.3466 5.81147C25.1649 8.52293 26.8745 11.0833 30.2936 11.0833C33.7128 11.0833 35.418 8.52293 37.2363 5.81147C39.1503 2.96259 41.1252 0.0175362 45.1446 0.0175362C49.1597 0.0175362 51.139 2.96259 53.053 5.81147C54.8713 8.52293 56.5809 11.0833 59.9957 11.0833C63.4104 11.0833 65.1243 8.52293 66.9383 5.81147C68.8523 2.96259 70.8316 0.0175362 74.851 0.0175362C78.8661 0.0175362 80.8454 2.96259 82.7594 5.81147C84.5733 8.52293 86.2872 11.0833 89.702 11.0833C93.1168 11.0833 94.8264 8.52293 96.6447 5.81147C98.5587 2.96259 100.538 0.0175362 104.557 0.0175362C108.577 0.0175362 110.552 2.96259 112.466 5.81147C114.284 8.52293 115.994 11.0833 119.413 11.0833C119.574 11.0833 119.713 11.1474 119.826 11.2665C119.943 11.3855 120 11.5321 120 11.7016C120 11.871 119.943 12.013 119.826 12.1367C119.713 12.2558 119.574 12.3153 119.413 12.3153Z" fill="#F3DA70"/>
</g>
</svg>
