<svg width="72" height="76" viewBox="0 0 72 76" fill="none" xmlns="http://www.w3.org/2000/svg">
<path d="M69.5114 52.5728C67.7764 50.4374 56.4337 42.0452 43.5881 33.2867C49.641 22.0944 54.5739 12.4132 55.5104 10.1022C57.9614 4.05931 51.9404 -2.9874 46.7555 3.11347C42.9438 7.60039 37.3077 16.0252 31.5404 25.2839C22.3847 19.3543 13.7047 14.1233 8.34493 11.6824C1.05872 8.36362 -1.39888 17.3018 3.39052 21.7295C5.22044 23.4233 13.7979 30.0905 24.0394 37.6504C16.1318 51.0386 9.43139 63.456 8.77093 66.1257C7.43639 71.4966 11.5973 76.9105 17.4491 74.7591C20.2043 73.7446 28.2672 60.6828 36.2794 46.5155C49.5534 55.9342 62.4009 64.3311 65.326 64.0784C71.5349 63.5392 73.0027 56.8696 69.5114 52.5728Z" fill="#347BBE"/>
</svg>
