<svg width="93" height="117" viewBox="0 0 93 117" fill="none" xmlns="http://www.w3.org/2000/svg">
<mask id="mask0_45_299" style="mask-type:luminance" maskUnits="userSpaceOnUse" x="0" y="0" width="115" height="117">
<path d="M20.8916 0L114.188 20.3568L93.297 116.104L0.000137717 95.7473L20.8916 0Z" fill="white"/>
</mask>
<g mask="url(#mask0_45_299)">
<path d="M77.5544 112.68C77.551 112.679 77.551 112.679 77.551 112.679C73.8545 111.873 70.7615 109.584 68.6086 106.052L52.1539 79.0781L25.9621 96.747C22.5338 99.0606 18.7684 99.8534 15.0719 99.0469C9.28596 97.7844 4.61226 92.7577 3.44278 86.5356C2.33627 80.6582 4.70397 75.1062 9.77294 71.6889L36.6043 53.5886L19.7514 25.9568C16.5674 20.7351 16.7269 14.7048 20.1811 9.82256C23.8361 4.65321 30.1797 2.02671 35.9656 3.28916C39.6656 4.09647 42.7578 6.38924 44.9107 9.92059L61.3619 36.894L87.5538 19.225C90.982 16.9115 94.7482 16.1152 98.4447 16.9217C104.231 18.1842 108.904 23.2144 110.073 29.4364C111.18 35.3138 108.812 40.8659 103.743 44.2832L76.9115 62.3834L93.7644 90.0153C96.9492 95.2335 96.7889 101.267 93.3347 106.149C89.6797 111.319 83.3369 113.942 77.5544 112.68ZM54.7818 67.0342L75.8533 101.579C76.7828 103.102 77.9693 104.03 79.3743 104.34C81.8004 104.869 84.7604 103.551 86.4157 101.215C87.4459 99.7595 88.2973 97.4073 86.5189 94.4921L65.4056 59.8729L99.02 37.1986C101.852 35.2857 102.053 32.7953 101.727 31.0406C101.196 28.2267 99.0495 25.7985 96.6233 25.2691C95.2211 24.9632 93.7559 25.3125 92.2766 26.3097L58.7332 48.9413L37.6625 14.3932C36.733 12.8705 35.55 11.9433 34.1443 11.6366C31.7181 11.1072 28.7554 12.4206 27.1036 14.7582C26.0727 16.2168 25.2186 18.5648 26.9996 21.4841L48.1137 56.0999L14.495 78.777C11.664 80.6864 11.459 83.176 11.7886 84.9314C12.32 87.7454 14.4656 90.177 16.8917 90.7064C18.294 91.0124 19.7565 90.6588 21.2392 89.6624L54.7818 67.0342Z" fill="#F3DA70"/>
</g>
</svg>
